<mxfile host="Electron" modified="2023-05-07T11:56:33.301Z" agent="Mozilla/5.0 (Windows NT 10.0; Win64; x64) AppleWebKit/537.36 (KHTML, like Gecko) draw.io/21.2.1 Chrome/112.0.5615.87 Electron/24.1.2 Safari/537.36" etag="aXMgtmfreh5kBamY2tvo" version="21.2.1" type="device">
  <diagram name="Seite-1" id="W3kIpnxME0oK83wl_T-I">
    <mxGraphModel dx="1419" dy="819" grid="1" gridSize="10" guides="1" tooltips="1" connect="1" arrows="1" fold="1" page="1" pageScale="1" pageWidth="827" pageHeight="1169" math="0" shadow="0">
      <root>
        <mxCell id="0" />
        <mxCell id="1" parent="0" />
        <mxCell id="DbIWRlbTTAIPOmsmE3BR-1" value="Beastopia&amp;nbsp;- Login" style="strokeWidth=1;shadow=0;dashed=0;align=center;html=1;shape=mxgraph.mockup.containers.window;align=left;verticalAlign=top;spacingLeft=8;strokeColor2=#008cff;strokeColor3=#c4c4c4;fontColor=#666666;mainText=;fontSize=17;labelBackgroundColor=none;whiteSpace=wrap;fillColor=#DBF0EB;" parent="1" vertex="1">
          <mxGeometry x="84" y="40" width="660" height="500" as="geometry" />
        </mxCell>
        <mxCell id="DbIWRlbTTAIPOmsmE3BR-2" value="Login" style="strokeWidth=1;shadow=1;dashed=0;align=center;html=1;shape=mxgraph.mockup.buttons.button;strokeColor=#d6b656;mainText=;buttonStyle=round;fontSize=17;fontStyle=1;fillColor=#FFF6BD;whiteSpace=wrap;fontFamily=Happy Monkey;fontSource=https%3A%2F%2Ffonts.googleapis.com%2Fcss%3Ffamily%3DHappy%2BMonkey;" parent="1" vertex="1">
          <mxGeometry x="269" y="361" width="150" height="50" as="geometry" />
        </mxCell>
        <mxCell id="DbIWRlbTTAIPOmsmE3BR-3" value="Don&#39;t have an account yet?" style="text;html=1;strokeColor=none;fillColor=none;align=center;verticalAlign=middle;whiteSpace=wrap;rounded=0;shadow=0;glass=0;fontFamily=Happy Monkey;fontSource=https%3A%2F%2Ffonts.googleapis.com%2Fcss%3Ffamily%3DHappy%2BMonkey;fontStyle=3" parent="1" vertex="1">
          <mxGeometry x="439" y="360" width="180" height="30" as="geometry" />
        </mxCell>
        <mxCell id="DbIWRlbTTAIPOmsmE3BR-4" value="&lt;font style=&quot;font-size: 12px;&quot;&gt;Sign up!&lt;/font&gt;" style="shape=rectangle;strokeColor=none;fillColor=none;linkText=;fontSize=17;fontColor=#3399FF;fontStyle=7;html=1;align=center;rotation=0;shadow=0;glass=0;rounded=0;fontFamily=Happy Monkey;fontSource=https%3A%2F%2Ffonts.googleapis.com%2Fcss%3Ffamily%3DHappy%2BMonkey;" parent="1" vertex="1">
          <mxGeometry x="482" y="380" width="90" height="30" as="geometry" />
        </mxCell>
        <mxCell id="DbIWRlbTTAIPOmsmE3BR-7" value="&lt;b&gt;Username&lt;/b&gt;" style="text;html=1;strokeColor=none;fillColor=none;align=left;verticalAlign=middle;whiteSpace=wrap;overflow=hidden;fontFamily=Happy Monkey;fontSource=https%3A%2F%2Ffonts.googleapis.com%2Fcss%3Ffamily%3DHappy%2BMonkey;" parent="1" vertex="1">
          <mxGeometry x="271" y="166" width="90" height="20" as="geometry" />
        </mxCell>
        <mxCell id="DbIWRlbTTAIPOmsmE3BR-9" value="&lt;b&gt;Password&lt;/b&gt;" style="text;html=1;strokeColor=none;fillColor=none;align=left;verticalAlign=middle;whiteSpace=wrap;overflow=hidden;fontFamily=Happy Monkey;fontSource=https%3A%2F%2Ffonts.googleapis.com%2Fcss%3Ffamily%3DHappy%2BMonkey;" parent="1" vertex="1">
          <mxGeometry x="271" y="236" width="69" height="20" as="geometry" />
        </mxCell>
        <mxCell id="ZA-AG80TR2bSipceROlL-1" value="&lt;b&gt;Language&lt;/b&gt;" style="text;html=1;strokeColor=none;fillColor=none;align=left;verticalAlign=middle;whiteSpace=wrap;overflow=hidden;fontFamily=Happy Monkey;fontSource=https%3A%2F%2Ffonts.googleapis.com%2Fcss%3Ffamily%3DHappy%2BMonkey;" parent="1" vertex="1">
          <mxGeometry x="269" y="100" width="71" height="20" as="geometry" />
        </mxCell>
        <mxCell id="ZA-AG80TR2bSipceROlL-2" value="English" style="shape=ellipse;fillColor=#FFD4B2;strokeColor=#d79b00;html=1;align=left;spacingLeft=4;fontSize=17;labelPosition=right;shadow=1;fixDash=0;noLabel=0;editable=1;movable=1;resizable=1;rotatable=1;deletable=1;locked=0;connectable=1;portConstraintRotation=0;container=0;metaEdit=0;autosize=0;fixedWidth=0;snapToPoint=0;treeMoving=0;enumerate=0;comic=0;labelBackgroundColor=none;labelBorderColor=none;fontFamily=Happy Monkey;fontSource=https%3A%2F%2Ffonts.googleapis.com%2Fcss%3Ffamily%3DHappy%2BMonkey;" parent="1" vertex="1">
          <mxGeometry x="271" y="129.5" width="15" height="15" as="geometry" />
        </mxCell>
        <mxCell id="ZA-AG80TR2bSipceROlL-3" value="Deutsch" style="shape=ellipse;fillColor=#FFD4B2;strokeColor=#d79b00;html=1;align=left;spacingLeft=4;fontSize=17;labelPosition=right;shadow=1;fontFamily=Happy Monkey;fontSource=https%3A%2F%2Ffonts.googleapis.com%2Fcss%3Ffamily%3DHappy%2BMonkey;" parent="1" vertex="1">
          <mxGeometry x="367" y="129.5" width="15" height="15" as="geometry" />
        </mxCell>
        <mxCell id="QPnDjc2nBSr9qlbGT6zO-1" value="Remember me" style="strokeWidth=1;shadow=1;dashed=0;align=center;html=1;shape=mxgraph.mockup.forms.rrect;rSize=0;fillColor=#FFD4B2;strokeColor=#d79b00;align=left;spacingLeft=4;fontSize=17;labelPosition=right;fontFamily=Happy Monkey;fontSource=https%3A%2F%2Ffonts.googleapis.com%2Fcss%3Ffamily%3DHappy%2BMonkey;" parent="1" vertex="1">
          <mxGeometry x="272" y="312" width="15" height="15" as="geometry" />
        </mxCell>
        <mxCell id="BtyooU0QE-EjIrQg6kgT-2" value="" style="shape=image;verticalLabelPosition=bottom;labelBackgroundColor=default;verticalAlign=top;aspect=fixed;imageAspect=0;image=data:image/png,iVBORw0KGgoAAAANSUhEUgAAAOsAAADRCAYAAAAt60UeAAAt3XpUWHRSYXcgcHJvZmlsZSB0eXBlIGV4aWYAAHjavZxpkmSnkoX/swotAXDG5TCavR308vs7RKqeVFWSaWhrlVSZyoy49wLuZ3CccOd//nPdL7/8EnxtxaXM370Uzz+ppx4H3zT/+We8v4NP7+/3z5lfvwu//7nbX9/4yI+Mr/b531a+Xv/rz8O3C3y+DL7Lv7lQW1+/mL//RU9f12/fXejrRqYninyzvy7Uvy5k8fOL8HWB8RmWL73V3w5hns/Xr/d/poH/nP4qy7+BhK/ffv//qTJ7O3Mfi/FYMM/fZvHzAKb/zNngm8Tf0RovDFb4Plnm7/xeGj4T8rN5+vZP54muHjX99EW/W5Vv3323Wudrztz3q5Xi10vsu0ku377+9Ocu5J+vypv639w5ta/v4u9/vi22zxN9N/v6797d7hszoxipMNXla1C/DvF9x+sIz6RbN8ejFV/5L3OJ+v50/jSiehEK2y8/+bNCD5HluiGFHUa44byvKyweMcXjYuWbGFe098NmNfa4TOuX9CfcWK3btsa6rrfsyeK3Zwnvtt0v9+7WuPMOvDQGLhZ4y9/+4/7uG+5VKoSguTz25oq/Y9Rk8xhaOf3Ny1iRcL8mNb8J/vXP9/9oXY0VzJplpUhnYufnEjOH/yKBvYU2Xpj5+snBUPfXBZgibp15mGCsAKsWLIcCOMVYQ2AiGws0ePRoKU5WIOQcNw8Zk1lhbcgkbs1bangvjTnyY8fPAbOXXcUqa9NtsFgpZeKnpkYMjWw55ZxLrrnlnkexkkoupdQiUBzVanI111JrbbXX0ayllltptbXW2+ixG6CZe+m1t977GNxzcOXBuwcvGGPGaTPN7GaZdbbZ51iEz0orr7LqaquvseO2DX7ssutuu+9xwiGUTjr5lFNPO/2MS6hdczfdfMutt91+x7dV+1rWH/78jVULX6sW30rphfXbqvHTWn+9RBCcZK0ZCxZdCqx41RIQ0FFr5ltIKWrltGa+A3+WIw+ZtWaQBSvGCqYTYr7h17Vz8bOiWrl/tW6upt+tW/ynK+e0dH9z5X5ct5+t2hYNLf9JR2WhJtUb2cfvTxuxDZHdD1/dH/3i7379dxeqqQwGNuKc7qwUGYkBfTNVJmDuYIv/D8Y3WfM3O+Pn69h15JkaE7l9uQDAXiudXRIQ5VYqIV1fdz09n9pD4iVp6avFc1YgCGrokWvUATjMKUywmPvIbQUuX1lDlj+f1QtLjKDJrFK3WWuIqezlBeIK8lUt+UB09XEIkbyXJeLlKFhjHEiDMI/r1liskOYoZfYTSuZbYqIDYGWfMEe7Jczm76kLmD/Vrz5bXaP2s3O5q4ZxyuRCyXi+sm8ZOeTNU64yrTcCZ6W0WrrJLwNizk4nNVKDCYIqbppzbTjlzDPbJtfAtHVuh0SWz735vKY37rPgrrlP83GUPq8eaeeTOrf3O5HnDZYlb8+tpQc3QyROi10CdFxPurBGqwG/+kE4rQ/fZm3jlsj65A3HF97d2gxMxSUnjt083JiF5J6l3RMZ2Fhk496D+eqFL3kTH9zYbiRfju9wZy5n98UFohjXF66Qg0vbyhpkf4ZgiZcWFA4WdjvcibwjR2JOrN8BmGyiDvMkMTdj3Xsxl1YXZCzwrygGRc68THMmWvldYg2vnpN18SttZpIg3ZFMHax23XcfAoEL6zVpNreNi/COw8X6zG3D9jfFDai1RRQHm5fVZyU6E71y5qEJGL6MtO6oBNlt/RzHe1HAPRxr5RRkxS6rs4QnzRCugTjkz7SRJcPh6AtQbaTOyIWAszUvS1oIyAWyhr0ALfCkENfjKKDXBo0rmIKcT3d3IoeR3dwngdo1wgIqldaUP4yjugHmnnD34pEWiMoT3bkAoTV5dgi57zxu9yRQXKxDb8G4l9+7RhYOITGrbSLbE9rXg9c8Xw7VSIBTLdbDwp6Tyb97EO9EldK2kRJ+jwVuNxiCpF03R3KqOvI6+DVrj2GP0dvJhBmyReSxUXKzkRrrtEAWrYWIuqQHr0glEqe+1xkJrFsd4DEqIvz6AdzPnHlkBrstgf2gU9WK7hN53p55jIYirxWI8SB2iTY8V2hzOBiAaR8599vyANqRnvwbE8OEa8S7sZbsrfhVB5qUMYIyta0jm1JZicKcFhc3KbXIR8/KEM0YAUaMx1mH0RZcxOhM/9yVICqJKBxgZxeu3TwZba4dojUXEj+LZ4zK0OsYh7HUzWOe2xR0Z3SFAJCUJ4/op4IigI5EWTVwALAlI47L2Q8gGn4i45O01TYwbtyaw9wz7o0/OmnViuFYE2Vb+81nrpoJAdgVpGBRlzvgAnfg5SS7aQKY/N5iZnnQ0uAT4AQztgIRYF+EDgSPMafMX2ZA4X11v37z17/mvVGFp2yEQGoRImkxotgKeZzgElRDBzaY9kZQXrS7t4EI4VmNNRylAsYXohCmz0o4THQIyoSfkC2udNisAaHkzEGnogqO+J282gR3ZvJyEIQQHCiLfiP26NrTVHNeyI8cYuWc/N6EdRJ3xnGHW2zHckiXNjYLioggWQ9Ik+eIIFHRtJOYIkcC7sCF5+blFqDSBTFATYRjFpmOCCp2MvYE3CIVkzLTw1tFNE2uHx50ALW7x0vET3SQQ3cRzCAC+ScbKskVWoM8Cpk2atmFeCXxGiYplw3niF3FHRsF5KV/6lrRMY9EC5kKijRIKEcmFZIwYmJVTNAdJNiGRuDfqoslICeA2wHqia1460uRDZNANbZYgzzWAvOslwyUnR76BRsIXwIUyIUiG+iFrERswnYXS13QsMwA3s3BzWi2PCPDanmhmccWf4l/UL1xJdEcT21cFg1IMlooLccD4ubbSpTSBrMh4DMFARvsBo53I0uaQNJDF0X0spAqQVwdwN9t+U6yucOYA0OITAgsGDo7noQVQVCawUgNtUz2kAjhMHZeXAGC68EaBsclgMdNQEYYhdyv5xyUdGVoyXN3QGoneKKMjSKAFwYTzV3JbxZsw3Rjr5aLYL6TEvKgSwrr9inttOUgyde6Tyd/mGZWiJXqtSw0LE6MFIEOiEYAPGGc11yAI1ntQfzkQR2i6YB5xUkCeQ0UtJk4aWQBmryuKy6um8wEutth2FwbZcED5sfRmxAeG5nSgR9SJKSBMIwsv4B43AUYEgr3yT4joQ9JGJAkPFKvSeRkc0mD8KfzTsk47LXj130y4bOiD7EF5Dy6abG8sC/8O2BWcgg5dXlgT26jEhFvn5pIRyyGzhwnd1DihORCPRL7nbAqWSzHXPAe37OADNiHCms4CwAlT0hxvkdxIcZA39H2dSgIHAJgCgnjqdZBBWUyVpHgGfwhgj6yDbfCHTIIxcMiZdGy5EFHHpEYwUUkCNjc5s0wKwo1Mj/JS/ogNPAhq+Eb67I75vNFyG14ZUxNPjSZeyJfViJFABOm4+pJBxA07wlIpQBK4VBQwXGxaKSFACjiblCjSHxkrW9rhoMECJJ+p2bEFfKrMPf1TmTqZCGK3NliCcbyIAkXj6QpsdLOKgx0MwRxiN2ZCMITXN+hnChq7Au2gWLRvKgMFC3eiOEBuh0Q3kl1IBzrhGtDRaqAqYZmwe4FBIVDNeBCJaCvKItLgtM4xYh3LTJ26L5E7omxGAxsX7FlsChwugTDnXBPOTovPaD4R8hs5BVTWNCyrPnEsVpupE6O2E4cELMM4nAL5TdjVHpCTuDYMAfxKN0WEg8Jh3Qgrwyh6y9MOaHL0F/MI3bkcQ/pwt2gCdISTAQAwGVu5c7ZG7w/cFyRRoQgyNgeC2qViFx6TsI9kOCSBIResNK6Cp3c/aK1oEVkoUOnx2e6eTyMMXIFVkEWInYRel6AJnpVyfRPv7off5F5QMw0appEGOTtZYlIgyR0xPY3rFFjfi+m25M7oIi/LL8IFtooAMkC5xHIaEUgdWVUMNi5Jsxm+mlSqDY0umQo4hnZQpgg2jAww5GxWQg0FrBYBhRBOoH4AanQ970ysHXhtAnm0gTBsBdzXwyqIJOJTv5vZYfXTwsbg2mYCR+E5gaQGwqzNTlEYBCuC6qch6LS4JEmkkKC2vCJu6hU4K/DUzKeTTSSvhVyJk0D7qTqG9RkVMQArfjOQ8yda4QpuAKgxfmqYTfkQhwhDkCdPX3E6cDcYLocYueJpDuhFKV5XOew1A0kaovvyUIUSlhkFDo7bVy2bEx55tCEQcJPHJ7emHfTt+0mjDHTIZ81wfv5Uw3mPAosADWAPeAh9b1UUmWoDLG9opEKrqZbM/x2PD7hBoA+MxdARgZ70PGOZShCTUQhLhQWRjQmtO3AbyLKmSj5opxkG1nd0yA9cgNaRyaXESMxh7CE+6Hp0FWagqiEqti5PInGwKo/CQPAzBoqiIXoWlLJGJwRx5QSETsn1mM57ofeYHiVqSbxArK3T0AJH1zs+Wn0BEY1qMpLnGRBMWFYVAIwiOoQX4M5QkykdkktgOocYgnKQ/Gz5tU3JhwdkXpGxVrnbSSf+Aq6vGQHLjRDyDZVZEGksb6BRcLwQm370clA3mVstB7kkDYhI0DlsIgQEnoZlIDUl1SA/lh6B+o1UoOEgQatI9tgPRABqcAUwLwyJ1X7PFUxQKRgNJioA5xnlB7MBmnH5rh8mRPQXKkixABd7AIUGqD20JVRATd1MIcS3txloKJYqgiRozV4YgIbbIdpQSFyHAYn9bBw4DCxgKohuohcP5VC/uKTGRpUwP/Hrj2VsCo6O+MGhUHuL6EWX2/jUToCGOf3TMQklHFaPJ+PvWf5fgQhmonYwSay/hoimV27ShSIBYwXDHCIHXAsDiQWQvWA1UMlrY0ohSzMgUpbcpEIIHMR35nZT43smAjm26sfhDOhwuqrpoLJhqKEU0EuUEyMyS7LcT3mDg9MhHNjqxFbtWRsYHZmRXEDloVcucXs4mRiG2Ha8JgAZuIdidByleXCkYMmZBPvInDxKicCDhiBuWEAw00Oqw2LBtxih0NFI6rGow2RObvqfW4AbAyBrFkssoo/GACCAL9XkXEGcPP8hSsxMQDEHqQ2oZNRD8VftOeL5aoUAfuIQX6EyvrzuuOW699NlsYG6t2judOcKXl4DYuRFvaBH5MaRCqGAsVUJjJdlgbrwsyU6fkNMpcFWeTr2HoVKyCXirXe7mFHUmBdJBmgTSISDS9rkSv8GZp8/uvYgoCnFNpK4+YhYm1duHOKY812t4OcrzGQJth8mKyxYoo6laijygkYPIhB1LsD0zSufAji6aCGMQqpOpjPSiDyeRZcDLpsNJwdQiUkrAYsoEceBFPHd2FiDhGARRsIqKlaM+KCyc6O7N6qn6gUZx4MYpDAnKb2TJ463hU68oEUJhuRhheMwyIya/hOQ0uiOogapxrWkS/DqrC+ZEqfDIqcQvAxuS1muWRV8LkClgXc3z4JbgUYiFecNb9xeHaogTVjXtBSsOck4FDFFx6yaRO7i/5BzRIzBGLPmAG4oE/Eexc9Sh5WlL8sAvKYEAQCEZRiOMQwbmEwpB4xyUxpDrgyAKPzE8Qg+PekByqIe7Ii+H4ABzsGShSVeXjjTA2T4VUclg5QFWxKbl+mh/FgU9EtwEscqp2qeDKAaldNeyKlFM3nOXhpMSW83lVVBEU2BnsUv/FN4yKxue0hoLk2fiyVcixB6RfBjpFppZLDFdEitVYFzwXT6z+qZTx/gicdPAaxCwkje2fAQ9SL3+h+5YQYBZy4AmhDvO7b9BAIHgw0tgTE4jGqnHF4VUpIj8cZKsD6yx1BAagd/+eqfGMfi9EoiQBMj8atOIQRGhh60OuYGlWBgBPFmWqyywO4oOMkndLRYjj0K6GCpUvNV0LmIWWw2WP2Sb7Pg5YgBG4ekK8h/wGqu+9/kFWntg5xT9WqTSjbS+3aeCJ2W364CWwvdAIOzZB5hTh2C2Cc4h50e0FVBDinGlbtMo9465q4wNAuxA1yi/gdZqMy22FUsC6C2RVD4iaRkQN8CxTVzo9YQm5oqtASBzUaAws4ZWIHR6kKdX3FST3lJpRIfSODXLKTlk8noVsRAxJycic3fgogXdVnQEe8CyP5oY0W8Y3NkAC5ALIAhtnc8uQr8SXvOlFfRAti4nZVEDCGr/aUNsaqAKhAsUmMXFkl1rLKlzbmMARHBkEJyC+ElThbWwmNYUEBxInWzTajzRcZhz/xfjwA/+Erq4aera+QupFtMOhFJVUiY0yR11Z1BUyV2hNyMCwJaZIaL5clbuAwZKrTLlwhbYhWuzwsnlZ7acvjT+GmV2DHnCRFe0Cf7A6bYdlLrGuJjuD4UsN0CbcFW1RiTqDlS5NTxQlkG8g0bVCgbTr6tk9V/YPKWXJ1JB0TBaclpBq+n4ibhAgAwT/qnCAIqzXVhIsqGOminXA3p215SoBUUmfOhjLBnK+FFNPWtxtNyY5uWiwH2MKSI8d6wahiRXZHRu2rsjMTssWfsAHycc2Fv13AWk4mseISCpQrkUJTiYmMLcL3otqGkKvhFdCEqgRGeSvoTk5T9Sx0TllCU0vjOiwIigHRLQtTinEbeKzeT021qMrP5KPTI3z7GgqyNmLkBWpSxbUZQiiS/VIJrecFSuJEsG8AKm52a1NJFppwRHfDXGQJIkMl04hMhznwlT1n3AbCCTE6fRUPGIh5NXeeuN5gXnxP4gXpgC+w2k94ocEooVkCJPCw6rohcc5wRSWny9wCcCcMYEoGG+MRuR+xcXKF9njIyARC3B6QXhpUI0/QVFMFZlSyY16A9DrRtEXVWdiqqI62VM1CL4Bkl4gudidAf/Df0ERgYQCMUHzj+QDX0ZyyWymPUOCbcbXvxZWGng6bkZ5azKXf0nA1BbWO8RvQWX0bEv5ZTiyWY3iFdxy/QDaBduXhxdhdMThZlN4ARkBDsYaC8gAZZKVC9qsoMKvE33IGqWFgh89H7QBTVsOrxECws6qoGPyyafPm3HYiAm1h49AFxORpoWKo8Huluq0SOewDHZKUQJT2ZZc2X4mhR2vok7tNTHlV0iw8JsTJz3CCBje8LaDkCnzH8ifQB/jOu6LJAMSUoGD0D9YKAW+gIkGliil4A4uawAxcaOpCUZXdO7XITCQqec5YBm47NJWaVTqSKf05jHmBjscpjanqqHmBv6ro+BSVLcCIV6RA8SAnNMjhBf44WmijbsQO7ABoLLx6iigXQnz4cWt39UZkr8o3npXJEIEMO6MFpwgwRCO4waUko7cMNU4bhbvBNGJswwUvuZgjXPQQGRN0YGj00B9yr1ZYjDSEiJHUiEomTpErWbqGepVWk2PVRsSK8VTH1Q96wt8dyaDw2Y1LKENm85SLKwNZcbfa48jQSl04zoqOGPyNs0WayCJk9yI3yndeHlgzhpACPmF9bk9CIwbaK65oDxkQRBFKqOIq+HO0VYU9VKkekukqUIMLKIiIfQVAldIII/UGZv+HnjA3VZ0mKgZZk/sS+eKKecSDWzA9o537YGRfL/AF4pFEaHF0WFOlVR0lakZaR9JKugUYyZZR31wZYresnSAGBfTjL1W7gG19Q2EbnuVoywbxPpT0QTiajuTtaiqNMTMsjAqeRtJDSeo2qflgS1lNBJtHLwb1V4QmGAZ8Krm/YQG0htSiB/ccQtLzkrdrh6jJm+msehePsa90NFmAhzQ15gh9y5YQ8Q20Q0NK2zVNgsOU4x7B/4mIQyHjZLJKW1octRMwd4G4wi9J9Us53oBWepvAC8GeR5acQEPCNBve6wfuO+0QFAZBvL0orgI7lf3jksUx1VEJprJ0YbXoXwEB63KgXdK9j0Lyk5dJcH2YLWB1XkRpI2mQo0nVcj/BWFNd7Hka1Unwa/NJuYGj7cL5ICC9Rb0ReK018PwJ50JEqzgmZjzyzF7NTypbbCQednE6FYWRGwQ961V5XqE35n417AyhFVsSbiWWfGnjgVz1r6qOWICGMZvatY/BoVAeuwD1KtB538lX3J+2+FASYPaGhRpasA4poPO4zcPc6juoMD2iJ1txwV5rTFCsTm1U2ECLpA8uLzJkowwPJIJj0b6ZNpQKwWjaOUSPG/kf5SDRUuh5VnoQWChMGONtX6gH4o+ahhATsCURIoOqDS48nXtVNUCyHIw1fApqNN+1dwsUqlyfXjHBkAt1Iq6ZirjI+yKXMkh9pizmhqc1f+QesCmmRs+hDVaZ6VWbtoH6S16uqj1GdWdtFadVSJL3ntobGCYW6egkEa0yQBtKRACybeAEke/qNUvoEGQaJHfkoxGHi0AGr4kL+VeptDqOQ4oxOoQDgq909TsgtQvzGt8F1GgAByMFeSIIkHwiUBkGULgRQ1348HJtiTMiFxfi2IGy00SCYQo8Pgx8RcP7IJCc7T0S68ACQ7lMreAZT5kBLdcZIYB2eaYEBuESuHlKaFAuoMps2MJXpNWGlKrqrdKpU40hUOHME4vI25w8cvSlIsFJHHXm4kiRxDkoJV+/zkJ9n/BehVppWGHICJVxFl6Pldyp98LQturwgG2H2khcEg77p9J2xImhXYEpboKngjOmSjdW0ao1KAPGFdeBsKxayeTf0XMm1RlrAMTRPKo6WnmF7XjR5eXVbcBbOJKMw7VtNSIhjk6HJZqDsBiK9ofAFhh5zd7RNg2aAThI29CIVGt49/rZ7pYJIX20k+VVzjiqPRUHN2mDVLuXuZG0IBGmkVUa6gu76iOV9GMmMtqWl+yIvVBfHMlKiGMmUTGoEe01vh7MHrSvzxVe84S2Qeve0us4xyolWMECXoLN4CbwNgNUe8orp55Nrj1kjmpyui34J4pfD4ZWuqmUdQ05fwR18AE8hqRXb0k1bWkww6i/vB3yhZQuU1ucLUZtIuMKsRxbXTANplZj5CGP15m+vJIdk7jz0d4+uUS0l1Grw+KMumaIXXKXvIPD8uvrNi1L566sfLvoIHRjUpsw0jpmufQ7SCpgBLUXGdpmoTeKU7lP1oK/IIC/BWDOA6uivhYicA9cFysZQU/15REjgLUdUTAE7K6q80Q3zhPmU0OJdomxR3gN7oaYwKsBNCDWUqvpUV85MSFDFwHFg/ir+DKnDXWVp7mEGou4Ia7ryK0T4QScsgyHCuEAJT/RJG87luRys6C3bq4KQnB2sr7odjW3HDW77v1OY7TXJGX3dewGFpWRCfKHKcCBl+HstRA2xE7KUZ08BVVBkILgLCjGRZ1fZPnKhktBxzdNFjInIgDUJqEmLhjaCaCPGgG1z4jeJOjBsOO1RZzkBGtUJ9MpCe+LWURjao8PQxxVkbmg8NJuvEMZ4vMhbCSTNIxA4TBQPJqojjRFdDFG3NEGHySXtMfWXhuAdoCe0F3BoTqJ7VEyjKqecHgbFYT4g7HIPIBW3KqOi6IalFfhG3dseSWE7swR8QSsd0esG4wbtnbJJ4b1MIdTFRZk8mLtujgFyvzz3YXqktqeoPmBMryi7jyJh5HjKGC2wfoA2GziYFA0fgg7yjaQA69rD505pzniSdvAMcvab4hvYffxwNfDvswEE1phnIEFHlinWWX4yfarvjN1W6tXAKXvUFmW1AO7AjINZSDJAX5izlLsWSW2Hp46wxQSzHoFIkmlo7jm6G+TGbhy9XhmFYkpskAMVfXcgD0sOmLyiD1htCvVhSeAP+I8qDxkHDQD5ahBwePwncZi57VmipNfU2UtUY16KKYi+R0YNRqDmcf5aYuaYE0m85PlWMhM2+jsrn2ZpBYwuLWyvFuVb9W4FVyQCzgwkOpTp3jQy2oMAVbBAXl+YCxn9ek6adhL6EbmuagFFaUkCwREjvGKjtpZJw+rv2pfTBNamrg7cB4VhhAZ6i++DislTDPtBmmVkNzZmB2V7o/6d+6Jb7uS1IGREZld+3Sk4WsnKhKi8MR1atU56i4W32BhEaXPWXcdgtiB/EayV/SEGprU0dKTmmqRRyoQoVHU2tlmcSxAGs+/wk9zkIZpbjVeqlOkvI2UqaozbNtVG8QzogKZrI3Qy6SKtHW344zoECxYeYE6j+TYDaGo4Rb2OlnVAoRQJFI/aHpSIVzRNkcV/PA2I4ykjf1YSgQOqlm/8Sz93pLscyHb4lXdPlU1VDWZQ7QDcZbUfzjUUl+aGkscyMWgIwkaGsvUUw3qM0N2N5megsrrii0mACJQPZ2w9eod1zZH0yGzCTJPF3SFTjISInKNRLAUKFmH5qraMdFOEoIUb9ZUoMAlYOmUtRWx3GpQGhe8CFSDWFNzVYVp+J9N3DVtjY0bTMiLoW/A9al9qYNWhQhCJ0f1g0ftBmecr0M6LOgi8aiYv1tU6sWbQdFdrH9gTvAETmRG0I0TIXtk4sOScZEIkoY+y110InGCAjoqBqiTLmhjqY8lT0NkqpiGBFsxyHXjbLmvahRNjwTbMhpN9pHMbZJ2SQEOpKo1tiL7eRwZY6Lqvx0CIkj157zycYYtgPADXlxzaA3A8KD+XsMD0htyxSmaWmjGgyJIQGnK0rGOGSsClGMl1QDVU5H0x5K4pI2tlpCaEv26UX0zC4YRoMwpvHLD/OxQp8y15aSk/oTHoKbOBIRzHRARVW7lAZ8PLjzbiEQ5v0YlN5Scxw+DLXAGI0vMLsuekG3gCRl7oX7Eh9O5HfwJETAIcYIb1te2OPy3lk42tRYzRDbtMLMxX0hpqcXWq8gtla9YWhWhVeTKyZd2VDnaqrwXHZmajchW48x5o2aMhP4M3L9GFcbUaRdR9+phLuZq0KkMXq764beWjvtXemwLDFHftJednBofQJ+ZeICTX5kV5xcklRAhyOjPxD+gkdPqHrGuEw/EQVVjz3wtD81JI/t2IYSF4JOZWQC6V8FMx0QP+uU8J1yb9tc24nnN2SuPBNIMFRhmCaE6IBF+WmqsvCDFEgCAheolYU50XkPuX9SYXy8oKwTEFa99DtDaq0kfP6RTh8dUMoD9uUBQO0AEl/kJCz+vtqs2r5hq0AJWdXYPaDPwX01iOgygcp4aKxW72Df+VaMJ6lkEWnjEoqMP0ATODnwGREgErD2DMVtq59vkM+I5vMqKO4oyIhiQ1LkPnvxVPJq6k0nOoyLxOyQCBUP5QGu6yqclG1IUSkvd3/j+2MRTGihWh0A7cYasZCqWPbwdoraN5Ru9ztuWIyBbWge0Jz5bLYn3LueLivqQDnlLsNZ6t5+djHr1dTNSgxtrA4a3YZ3Hq/zjnQuSBZp6l73E0duX0WaSblbvt1upJP+5mdLh3c3/9H5fd3P/vZ1qgu+Gv72dbnb1u5/c69uwdB/3fzGsZ9e/hqV2Pp2f0TkcxDnQHtUv3vfGcXUD1a4OQ6zR1Qc2LXgwFcIDd5eaT7vDtHArUmHJjb6ZIBvKeU4a8Hp37YAzPyOksvYxeS/5R6qqYlRUc8BBVqkFtNKCV9TqCrcBI11naBJjj6VLC5EpGQcFH6vAi4zDgisWLgDg68pnOPGlWvOGj0RKyhOgvCODsmrqajpFUwBAHrDi3jDz1kuFYXfXzgjYI8l973Z/ZSK/hcf94/Bwn/iAYLN8nQreTNc7wMedEXAgIY8LqRuErQbcG3T2L6jlEJ7j36XqxHFk2IbkL5pDl1cVHr8AKTO/tnZXH8O2qq1YoI2h4R9qSDoOthE/QmY5oOkyWuXuyBdhw8QJF32v/joG8bCwjoEqRdkFtZmr2AALmI5LITRe/z8OBqYdagLF8WjHX0fDigqo+bPVE6+2tkFg/Bz3MEPohxAuCicyVxFC3EA9S+HCpyQEkQadKYvvyMxIyKNysHhF20YHCTlV15RhutbUJO55v05hqmGWhc7aqZlFgq1h+zGKOlJUMxCJBAWe9zpraYdf27FoCZ37B3o9+A1XEpIVn41r3VwI1ahuOYbnLzpuysyUm5gWz5VAbqE2l391OGlwVWllOH9XVnR/4ZDivCqZQ7XYWaShWgGIFLTda07V2sK9Dnvr3/EOfuH1R6dCEkoWa4DKKTqOhkDN2ibT+dSVvJTXgjnUZpc3gXVMlQiBuiqXCNKsiiE4gAPZSecuohbM1LNY+A3xhG6TxMN1QCci+AXjQM7BO/Uu69MXjPmuGDgdVZqqlkJNM13Z9ILx2KiJ2JBtWDSy/L5KRNcZt9hVhb6ua8tB7aZq9zk6yltISBhbVtjU/L49GaAdL+3YybuRe528HjquwPSAEJgJp2FIKZP96eT7TtzW13MmD5qtXd0fkdWTWIuIxcapN/Jx3lTxm1Ww4nBDXYT1tZNTZHdkbVh99WSrxQeRZVMnaiTnrjaRMFQlPp2kSelyVW482XW+9uAumh/dZvK0Rcd0rzrWJS7wbqowRTVSEl86uYD3rmDlGDpKCLCd+3kaYn8wl5l1mKdL7BUpKJkTJCTDGE17aYgo5DyoJsZQ7dJ8aJUUWZgYyz8TUhExyDQl9UUS7WDH6xLePQhkeCJ0QkfV+IVuchE6OLJYuE9kZkRNSVaUq64nEmWix6CspEIcaYdcvz4hp3FMi7zVRyuAn82r1VP1VfWGIQr1LNBC0iFlHWvTTikzvZgzlWAQ/wOFVNSrGBX+S4JXfenFSd9FU1F1EpDqUVsM59UGYCkuzn/qqdImBZN9ma7C2sa1L4AB271yZ78OuJxJiKnzMmGXd2wjDxVr1EeWphTujkES2Vhp0gyBU+94DblIIwUheep6xK2ojZccAzMbkDQZrXobMddTzTI4Vi0so7T9hyUb96edojmiTpfOf+vQpfp7MRHqMeTZAQp8mbhQRyHwax/dG3SSoWDrse5bB5rkHZam2EvjetzVjhvfGLRziEZHCpd8VGJb2gdFZ1fT0Q+rQWVUfNxU359a/dSKR87e3jCIzFBAjFpX37pIUD578FKhm0jKZWw0+YT6yzppg9FByMC0RGQVxnuVHjS/IYNjwNwyHeLNqtyiSrVpwcDVVY9mIYHgefy3r7oI9nvpbHF+/dJXnxpwoBIjicvar9NqCDi5aFK3axm7V5dn21vnENRKenUGG1oGwuIVNb2K7RIp5dewmYc23j0OEziIrGpY8VVMsVkq4QmnhKRqGyN2kSdb2/2qB3Ud5cBwNm2Aq5u8MKEF2wu7aiMOWaFeZChbvduqGyJhqsgaIm16SmI5Tx0/ETWo+slafk6fSJgEtVlE9U8x2wx1uPlo7sLgrDoW3TOn/n3CzNk8De4DeFk6tcMyzasTtq+ZfJTK2vItwZGYKoANFo9dsr2pbDZ1SEXeNmljUHvs++1qqAaQdQiGxHutWNiV9Q56AHZwG8pfIkBFRkPnj/SO2AR10lSGVPQRGkNHcDLZz8IQXglPpAYMiUOuRWRA8ub4Vq0YPanL88oATrRq1k4maiVYmGrE5R3IKXV7DJm7OC2rcy/pgJeOLkcuxBryZOAb7KGPGio6BaeC++fo6tB4juG0M8lB3uigcIDNyg2w1CbD0DtD9Wx9NIy675JMVtDRt61CJX4bai/5mpccuZqJ+CIUPZaRJ7xLVZI6uKtXtQZriMKvI2UEdtWmvToZhzq+8sTSnfg+SmJBfdjmV21tqha8w32VKO3oLEyNDiIP2BnKbzpoDrmojZ2gzdK4KnalqOQr+OercvLZEK+q4WETcIgQJmW71D99oVlboxPl2XSCXK0tTWqtJX0ch1rXYBRJWHiFEPU6dgxgYBMtvJ12R1IPncPUqbIT3gG5VLT5tOf7nAYWKnrwGgPPjUTVd+szdnTs0JMdLJtam8wFvQVIQKip75pXY2kQZKp8qPC41Wu1tYNP6BKvOTadg1FlpchtInYH0W4of1IO80L86Rg/+SsOJGYQ9DoMubUUxkMAZRkWxzZMblDImdaDZhwGJDXcBkwuqS92UDucBX28BJRX+tj6GAf8275E9avp2FFHDOymfQTlIspcHSzk2tL+jxrmn9kE43XMfmCKCB8Vw7UboLM4Ux0aOpEO6yMqLjSVVblSdzGBYU7HIxgtKhGZvrY+UQjFUJdU81aRpKIIp7CTUNtXhX5s0itOCEPeeUShjisPRlRRnfYggJxhzCSSV1fUZ6d9kL5ELE/INRRqWeIb26pd+onakhqZcGNj8Pel5oA0GLvkZU7HdNQWSEGTdj2HmhSq6oJqKtWZnKtTAY23g5Dq3Q069Q8FqlNM24bSUxArRqbow5CmFG1Sp4GkqEpbhKP6YlBu2pOEH67D8yydYLj/7nNLutOBkK5mNrEQypT1Yv7P+7gEOWriicdUQ4rOrvKIuPqqc43zbRap11E9hMWlFCVSko4OkuqmbRKvtpjxjmsVr4/20LFOcEEnQBP3Qk/JK9St/pr6mqiW024I3lufFbODjuxf5i4k88BCUQcFjuBi8/HG6TXj+zoQjUF7C3D1wAupFZTlh0DUIs1IVKvSZ9tIoPUN7+aQLajjxuY0nc8kww9QfkOq+ggKFkfHNt5n1cD96kfnddriU1+E17mb+qxKwKRWwRm5qzPPOE/VnHB74mV9Jo7O5jS0aO8OZ41hM6AR2n/bb2qV1+4Jt5QK4ulYcwwWkhm5JPbu8H68V6c/eM3ZUG93gJBA60rN6WgGNkAfOOeb6u1qxtYh+de9H3XOOKpOoKKHet10uLsWVVwnFgIPG7SxTjwHHaOpXQ2PQ+2YXT8CEKsORXwOHnV1tRMLgAtcObW7QpiCqE4f0INiIMWqNtyzPufLvzq+WEa2ThtUQcfhu0oaauxPknVqkgUms+LcqlfLcOr6bBkSC0iSk+xqVmagfaup+arTKiIupPqAClKhd4w7D9u00S/5zAXdeichdOJN1gR0YmHm+6gBqAs1u/tpKlYVHSj1WZ+wokNW2vRhPXQAVmG5Cciq40SvBaL3e5s+QqljQZs2FD0JoK6vpY0DAlyZk7wYbxZ9sMdWWEDehJ9j9nTrE/VpabPruNnUkYioD4lARvZuFWve9ZkX+uyLVFUCOkp+cgvuj2IFteiBBvgGfYJAtMh6qVeGOESNHR3Rmavok2AaNHO8mrgLcFS0N6/zZgjC13mgI1U6mYu6+IBVuluHGlkcbqaz3XZTg2mPjmrrWDxpH9s72BteJ8Ye6t8lCZ22YZ4CbQpl9G5XnaDqOto6JJxUl1pLOy9id/idl2jXc+jg/lZ1fIETTrDideLQeMyCMN78M/TJNIRr2rA/ecJw1juKrs++aPrMhfuOOjLpS40SLJtDB7/j2p2ZfucD9NktWCj1WnJR00eT4FZhdzWzgjKq/hZ9SI1K4Dp8oIOpNzrZA2WqzjzDGfJPRc1QOh+itnFEEvA4tc0fp87qyYeSM+OlJH5hvS2O49QdoXYaiYUFjuksBMPk3hp/QgkiaQQe2ixuLamrVtSIRVKppErvhvf5R0EljKhd2o2QJOY6q8MD64zdwFokMlLlaX2UiaAMwJKWUL3DH/Jayh7R5lZeGeWUl9LKVF5HPLRE0PsYdIwIKfEKi9iaLT/Eozds4FbzCRANIqK3zVwKPmHnYUuDW7hpf21NCNOiHW9V7fRJOOgJ1WJV/ljQqOe9sDbYMEylsitgw67rkxFqGphxAlKfoqKP7an2dgBkRFDWltSYsIMMG0l4Prsx72Srdln1qVXgy+RN8P0jtTYJhDOWzs+C/n/xdGN2P/2FzsotNXUxZ1ufq6Udl6kqlBWcjD40RM0hqGnbuEqdj8Rl6wMc1FM7A3C9dQb3fehS0uFhICGqmnAllQHcurrwgBcCRvrEIXgW36vP0ojkuw7faDeONcqL/IVe1S6HBc2f6/7jof2Dr//PF6pQrj65838BJTugOd7/6McAAAGFaUNDUElDQyBwcm9maWxlAAB4nH2RPUjDQBzFXz+kIlUHO4h0iFKdLIiKOEoVi2ChtBVadTC59AuaNCQpLo6Ca8HBj8Wqg4uzrg6ugiD4AeLq4qToIiX+Lym0iPHguB/v7j3u3gHeRoUphn8CUFRTT8VjQja3KgRe4UcYfRjBsMgMLZFezMB1fN3Dw9e7KM9yP/fn6JXzBgM8AvEc03STeIN4ZtPUOO8Th1hJlInPicd1uiDxI9clh984F2328syQnknNE4eIhWIHSx3MSrpCPE0ckRWV8r1Zh2XOW5yVSo217slfGMyrK2mu0wwjjiUkkIQACTWUUYGJKK0qKQZStB9z8Q/Z/iS5JHKVwcixgCoUiLYf/A9+d2sUpiadpGAM6HqxrI9RILALNOuW9X1sWc0TwPcMXKltf7UBzH6SXm9rkSOgfxu4uG5r0h5wuQMMPmmiLtqSj6a3UADez+ibcsDALdCz5vTW2sfpA5ChrpZvgINDYKxI2esu7+7u7O3fM63+fgCsNnK+FPCZWgAADXZpVFh0WE1MOmNvbS5hZG9iZS54bXAAAAAAADw/eHBhY2tldCBiZWdpbj0i77u/IiBpZD0iVzVNME1wQ2VoaUh6cmVTek5UY3prYzlkIj8+Cjx4OnhtcG1ldGEgeG1sbnM6eD0iYWRvYmU6bnM6bWV0YS8iIHg6eG1wdGs9IlhNUCBDb3JlIDQuNC4wLUV4aXYyIj4KIDxyZGY6UkRGIHhtbG5zOnJkZj0iaHR0cDovL3d3dy53My5vcmcvMTk5OS8wMi8yMi1yZGYtc3ludGF4LW5zIyI+CiAgPHJkZjpEZXNjcmlwdGlvbiByZGY6YWJvdXQ9IiIKICAgIHhtbG5zOnhtcE1NPSJodHRwOi8vbnMuYWRvYmUuY29tL3hhcC8xLjAvbW0vIgogICAgeG1sbnM6c3RFdnQ9Imh0dHA6Ly9ucy5hZG9iZS5jb20veGFwLzEuMC9zVHlwZS9SZXNvdXJjZUV2ZW50IyIKICAgIHhtbG5zOmRjPSJodHRwOi8vcHVybC5vcmcvZGMvZWxlbWVudHMvMS4xLyIKICAgIHhtbG5zOkdJTVA9Imh0dHA6Ly93d3cuZ2ltcC5vcmcveG1wLyIKICAgIHhtbG5zOnRpZmY9Imh0dHA6Ly9ucy5hZG9iZS5jb20vdGlmZi8xLjAvIgogICAgeG1sbnM6eG1wPSJodHRwOi8vbnMuYWRvYmUuY29tL3hhcC8xLjAvIgogICB4bXBNTTpEb2N1bWVudElEPSJnaW1wOmRvY2lkOmdpbXA6MTUxZDI5YTgtNzVjNS00N2E5LWE4MTEtZDgwM2UwNjExNmYxIgogICB4bXBNTTpJbnN0YW5jZUlEPSJ4bXAuaWlkOjc0MzA4NmNmLTljNWMtNDYxYy1iZDJlLThhOGQ4YzdlYWY1ZiIKICAgeG1wTU06T3JpZ2luYWxEb2N1bWVudElEPSJ4bXAuZGlkOjk4YTBjMjg4LWVlM2UtNDIyNC04YzA1LWVhYjYxNjI5NGZiMyIKICAgZGM6Rm9ybWF0PSJpbWFnZS9wbmciCiAgIEdJTVA6QVBJPSIyLjAiCiAgIEdJTVA6UGxhdGZvcm09IldpbmRvd3MiCiAgIEdJTVA6VGltZVN0YW1wPSIxNjgyNjkzMTY5NjM5NDg1IgogICBHSU1QOlZlcnNpb249IjIuMTAuMzIiCiAgIHRpZmY6T3JpZW50YXRpb249IjEiCiAgIHhtcDpDcmVhdG9yVG9vbD0iR0lNUCAyLjEwIgogICB4bXA6TWV0YWRhdGFEYXRlPSIyMDIzOjA0OjI4VDE2OjQ1OjUyKzAyOjAwIgogICB4bXA6TW9kaWZ5RGF0ZT0iMjAyMzowNDoyOFQxNjo0NTo1MiswMjowMCI+CiAgIDx4bXBNTTpIaXN0b3J5PgogICAgPHJkZjpTZXE+CiAgICAgPHJkZjpsaQogICAgICBzdEV2dDphY3Rpb249InNhdmVkIgogICAgICBzdEV2dDpjaGFuZ2VkPSIvIgogICAgICBzdEV2dDppbnN0YW5jZUlEPSJ4bXAuaWlkOmViYjRiMTViLTFkMDEtNDc1Mi04Yjg3LTA0ZWJlZDY0Njk0NyIKICAgICAgc3RFdnQ6c29mdHdhcmVBZ2VudD0iR2ltcCAyLjEwIChXaW5kb3dzKSIKICAgICAgc3RFdnQ6d2hlbj0iMjAyMy0wNC0yOFQxNjo0NjowOSIvPgogICAgPC9yZGY6U2VxPgogICA8L3htcE1NOkhpc3Rvcnk+CiAgPC9yZGY6RGVzY3JpcHRpb24+CiA8L3JkZjpSREY+CjwveDp4bXBtZXRhPgogICAgICAgICAgICAgICAgICAgICAgICAgICAgICAgICAgICAgICAgICAgICAgICAgICAgICAgICAgICAgICAgICAgICAgICAgICAgICAgICAgICAgICAgICAgICAgICAgICAgCiAgICAgICAgICAgICAgICAgICAgICAgICAgICAgICAgICAgICAgICAgICAgICAgICAgICAgICAgICAgICAgICAgICAgICAgICAgICAgICAgICAgICAgICAgICAgICAgICAgICAKICAgICAgICAgICAgICAgICAgICAgICAgICAgICAgICAgICAgICAgICAgICAgICAgICAgICAgICAgICAgICAgICAgICAgICAgICAgICAgICAgICAgICAgICAgICAgICAgICAgIAogICAgICAgICAgICAgICAgICAgICAgICAgICAgICAgICAgICAgICAgICAgICAgICAgICAgICAgICAgICAgICAgICAgICAgICAgICAgICAgICAgICAgICAgICAgICAgICAgICAgCiAgICAgICAgICAgICAgICAgICAgICAgICAgICAgICAgICAgICAgICAgICAgICAgICAgICAgICAgICAgICAgICAgICAgICAgICAgICAgICAgICAgICAgICAgICAgICAgICAgICAKICAgICAgICAgICAgICAgICAgICAgICAgICAgICAgICAgICAgICAgICAgICAgICAgICAgICAgICAgICAgICAgICAgICAgICAgICAgICAgICAgICAgICAgICAgICAgICAgICAgIAogICAgICAgICAgICAgICAgICAgICAgICAgICAgICAgICAgICAgICAgICAgICAgICAgICAgICAgICAgICAgICAgICAgICAgICAgICAgICAgICAgICAgICAgICAgICAgICAgICAgCiAgICAgICAgICAgICAgICAgICAgICAgICAgICAgICAgICAgICAgICAgICAgICAgICAgICAgICAgICAgICAgICAgICAgICAgICAgICAgICAgICAgICAgICAgICAgICAgICAgICAKICAgICAgICAgICAgICAgICAgICAgICAgICAgICAgICAgICAgICAgICAgICAgICAgICAgICAgICAgICAgICAgICAgICAgICAgICAgICAgICAgICAgICAgICAgICAgICAgICAgIAogICAgICAgICAgICAgICAgICAgICAgICAgICAgICAgICAgICAgICAgICAgICAgICAgICAgICAgICAgICAgICAgICAgICAgICAgICAgICAgICAgICAgICAgICAgICAgICAgICAgCiAgICAgICAgICAgICAgICAgICAgICAgICAgICAgICAgICAgICAgICAgICAgICAgICAgICAgICAgICAgICAgICAgICAgICAgICAgICAgICAgICAgICAgICAgICAgICAgICAgICAKICAgICAgICAgICAgICAgICAgICAgICAgICAgICAgICAgICAgICAgICAgICAgICAgICAgICAgICAgICAgICAgICAgICAgICAgICAgICAgICAgICAgICAgICAgICAgICAgICAgIAogICAgICAgICAgICAgICAgICAgICAgICAgICAgICAgICAgICAgICAgICAgICAgICAgICAgICAgICAgICAgICAgICAgICAgICAgICAgICAgICAgICAgICAgICAgICAgICAgICAgCiAgICAgICAgICAgICAgICAgICAgICAgICAgICAgICAgICAgICAgICAgICAgICAgICAgICAgICAgICAgICAgICAgICAgICAgICAgICAgICAgICAgICAgICAgICAgICAgICAgICAKICAgICAgICAgICAgICAgICAgICAgICAgICAgICAgICAgICAgICAgICAgICAgICAgICAgICAgICAgICAgICAgICAgICAgICAgICAgICAgICAgICAgICAgICAgICAgICAgICAgIAogICAgICAgICAgICAgICAgICAgICAgICAgICAgICAgICAgICAgICAgICAgICAgICAgICAgICAgICAgICAgICAgICAgICAgICAgICAgICAgICAgICAgICAgICAgICAgICAgICAgCiAgICAgICAgICAgICAgICAgICAgICAgICAgICAgICAgICAgICAgICAgICAgICAgICAgICAgICAgICAgICAgICAgICAgICAgICAgICAgICAgICAgICAgICAgICAgICAgICAgICAKICAgICAgICAgICAgICAgICAgICAgICAgICAgICAgICAgICAgICAgICAgICAgICAgICAgICAgICAgICAgICAgICAgICAgICAgICAgICAgICAgICAgICAgICAgICAgICAgICAgIAogICAgICAgICAgICAgICAgICAgICAgICAgICAgICAgICAgICAgICAgICAgICAgICAgICAgICAgICAgICAgICAgICAgICAgICAgICAgICAgICAgICAgICAgICAgICAgICAgICAgCiAgICAgICAgICAgICAgICAgICAgICAgICAgICAgICAgICAgICAgICAgICAgICAgICAgICAgICAgICAgICAgICAgICAgICAgICAgICAgICAgICAgICAgICAgICAgICAgICAgICAKICAgICAgICAgICAgICAgICAgICAgICAgICAgCjw/eHBhY2tldCBlbmQ9InciPz5avyzOAAAABmJLR0QA/wD/AP+gvaeTAAAACXBIWXMAABYlAAAWJQFJUiTwAAAAB3RJTUUH5wQcDi4JUJ9T/wAAIABJREFUeNrsfXd8FFX3/pm2NdlkN733hCQkARIwlBAgNAEpLyUUKaKGLkhUEJEmSFVEQKVIVwFBelPpHUIX6R2SJVV5xe8rQp7fH7Dz22EmIUiRJPN8PvejWWZnZ+69595zT3kOkQoVKlSoUKFChQoVKlSoUKFChQoVKlSoUKFChQoVKlSoUKFChQoVKlSoUKFChQoVKlSoUKFChQoVKlSoUKFChQoVKkoVcnNzx506dQql6ZmtVivy8vLSnuY9r1y5gosXL0KdEU8HjNoFxQtdXl7eoOzsbLp16xbdvn2b7t69S3fu3CGGYUiv19Pdu3fpf//7Hzk5OVF+fj7dvn2bdDodubm5UevWrZ+of7OysvD7779TXl4e3bp1i27cuEE5OTn0559/Sq4zGo0UEBBAHh4e5ObmRk5OTuTv71+i375+/To2b95MM2bMIF9fX6pVqxbVrFmT/Pz8Dv3111/xv/32G926dYts//37779Jr9cTALp37x4ZjUbieZ7+/PNPys7OJoPBQNnZ2fTnn3+STqejSpUqUePGjdV5pgrr08f58+dx8OBBysjIoKysLMrKyqKrV69Sbm4u/fe//73faQxDAIhlWeJ5nliWJY7j6M6dO+Tq6ko6nY46depEvXr1Ii8vL6YkQnnt2jW6du0aXbp0iaxWKxUUFNCtW7coJyeHMjMzxb//+usv2fc5jiODwUARERFUt25dio6OJl9fXwoLC6OAgIAif//gwYOYMGECbd++nfLy8oiIyGAwUGRkJKWmplKtWrXIarXShQsX6Pz583T8+HG6dOkS5eTkEMuydPfuXdLpdCQIAgGgv/76iwoLC+nevXvk4OBAzs7O1L59e+rQoQPFxcWpc00V1qeD1atXY+PGjXTr1i3iOI4YhqHc3Fw6ffo0Xb16lQBQYWEhERHdu3dPFFpZhzIMsSxLbm5u5O/vT6+88gr16tWrh4uLy8yHd+158+YN2rlzJ12/fp1+//13un37Nv33v/+lP//8kwBl7dH+c57nSavVUnh4OGVnZ9Nff/1FderUoR49epCTkxMFBgYecnd3T1C6z/Hjx5GWlkYHDx4U38seTZs2pdmzZ5OnpydTUFAQfObMmQu//fYb3blzh4YMGUJnzpyhu3fvis+j1Bccx5HJZCI3NzeqXLkypaWlUb169dQ5p+LpIi8vL23RokWoWLEiAgICUKNGDSQlJSEwMBBE9MjGMAw4joNWq4XRaMTHH38MIqLs7OyMkSNHolGjRmjYsCGqVasGs9lcons+3HQ6HSwWCzw8PGAwGODg4IDGjRtjwIABmDZtGlatWoWtW7fCarVKJH/Xrl1wdnaGRqMp8t7169dHdnZ2hn1/HDlyBO+99x6io6PB8/xjPSvP8zAYDEhNTcXly5fVc6y6sz497N27F+7u7uTg4FBw+/Zt886dO+m7776j06dP07179+jPP/+kP/74Q1EtVYKDgwM1b96cOnToQDExMeTo6NjDxcVl5i+//IIjR47Q3r176dtvv6XffvtN8ftarZYYhiGtVks+Pj7k7+9Pbm5u9L///Y8sFgvl5eVRVlYWWSwW8vPzI39/f0pKSqLIyMgGFovlZ9t9Nm7ciIEDB9Kvv/6qPCEYhkJCQqhXr16Unp4uzo+dO3di2bJldOTIEbp79y4REf3111+Ul5dHmZmZdOfOnRL3bcWKFWnw4MH06quvqvNPFdanL7hWq5VYlqXCwkJiWZZWrVpFS5cupT/++EO8jmVZMhgM9H//939ERFRYWCiqiSzLEsMwVLlyZfryyy+patWqYt9fu3YNBQUF1K5dOzp9+rREjdTr9RQXF0dRUVGioEZFRdGdO3coODiY9Ho9eXl5hZjN5ouPeo+DBw/ivffeo127dtHff/8tEVCbim0ymSgsLIwGDx5Mbdu2LXZ+ZGdnZwwZMiR+/vz59Pfff4tHACKi4OBgAkDXrl2ju3fvikcHW1+YzWZavHgxNWjQQJ2DJQSvdoHypM7Pzxf/vnXrFhkMBvHv//3vf5SVlSXbTcxmM7388ssUFxdH27Zto0OHDtHNmzfF8y7DMHTo0CFau3at5Ht+fn7MZ599hitXrkg+FwSBatasSWPGjCE/P78CDw8Pyz99p6tXr6Jfv360Z88eiaDahIdlWbp37x65ublRo0aNKCwsrCTGuPidO3dKzq1ms5kSEhKoSZMmFBsbSxcvXqQtW7bQd999JwpsYWEh5eXl0eTJk+nXX39FVFSUKrAqHh/Hjx9HUlISLBZLkc3Z2RmCIEjOpwEBAejTpw+OHz8OmwFp+/btqFy5sux85+7ujtzc3HH2O5Sfnx84jpNc17VrV+zdu/epnO86dOhQ5DlTEATwPA+GYWA2m5Geno6srKxH/m6fPn0k516WZWGxWJCWlib77uDBg2W/r9Pp0Lx5c8nZWIWKEuODDz6A0WgEwzAQBEGxPTzZbZO0f//+skm6b98+6HQ6mXD06dNHvHby5MnQaDRgGEZyXd26dTF58mQMGzYMzZo1Q9WqVdG5c2fMmDHjsYINhg8fLjMm2f8Wy7LgOA4sy8LDwwNfffXVI++9detWREdHS+7DcRy8vb2xbNkyxe97e3tLnoHjOLi6uuLLL79UDU6qGvx42LFjB3r16kW3b9+moKAgat26tcQlAYCOHDlC27dvp3v37om+VpZlycfHh1q1akVTpkyR3DMxMZFxd3fH//73P/EznU5HFy9epIULFyIjI4OmTp1Kf//9t8xds3XrVtq6dauoEoeGhhLP85SZmUlHjhyhjIwMGAwGcnJyIh8fH0VVcsGCBejbt6+ostvex9nZmfR6PWVnZ4u+UaPRSB07dqSePXsWq5ZmZWXh/fffp/Pnz0tUaZPJRE2bNqU2bdooft/+fE903wWWl5dH33//vaoOq3g89O7dGxqNBhqNBrNmzZKt9nl5eWkNGzYEy7LijsLzPDw9PfHhhx9KVFsbMjMzZbtaQEAAIiIi4OzsDI7jZOqvUmNZFjzPQ6PRwN/fH/369cOyZcuwYcOGIl0h27ZtQ6VKlSTPqtPpUL16dYwdOxb16tWTvIuTkxNGjBih+B72+O677+Dq6gqWZcVd2sPDA02bNsXmzZsVn2XDhg0yNdj27kajEePHj1d3V3VnLRl++uknpKamUmFhITVu3JjatGkT8uabb0qumTt37oxdu3ZJggg8PT2pTp061LhxY3J1dR2sMEklllAiovz8fOJ5nv744w/ZvxUFjuPIx8eH/Pz8KCgoiBITE8nLy4s8PDwoMDCQUTIo2YIXbDuqg4MDJScn06pVq5i9e/eSj48P7N/FwcGBtFot3blzZ9CxY8cG3bhxg3Jzc+nWrVt0584dslgsBIDGjBlDBQUFkn4oLCyk4OBgio6OVnz+yZMnywInKlWqRCdPnqTbt2/TzJkz6cyZM4iIiFB3VxXFIyEhAUQEi8WCn376SbbKX7x4EQ4ODuIuyDAMWJaFo6MjOnbsWOSukJKSIjvnGgwGCIIArVaraPRhWRaCIMDd3R3NmjXDf/7zH/j6+kKr1SI5ORkLFy585C40c+ZMyVmZYRi4u7tj5MiR4ncffi6WZWE2m+Hp6QmNRgOdTofu3btj7ty5uHTpEv766y+MHj0aJpNJ7AeWZWEwGBAUFISVK1cqPtf06dMl78nzPJydndGuXTukp6dDo9GA53l0795d3V1VFI9PP/0UHMdBEAT06NFD0Tr5wQcfQBAEUWVkWRZ6vR6+vr5Yv3694iSbNGkSLBaLRMBdXFxgNpsxduxY+Pj4SFRJnufh4uKC5ORkTJs2DZ988gk+++wz/PDDD9i6dSuuX79eosm8fv16uLi4SNRrlmXh4+ODOnXqoHr16pLnsr/G0dERQUFBMJlMCAkJQWpqKt5++22sWrUK06ZNg6+vr2g5thnLHB0d0bdvX9mz3bx5M3/ixInw9PSUGdjeeOMNdOnSBb/++iteeeUVaDQaaLVabNq0SRVYFco4cuQIQkNDwfM8IiMjsXXrVtlk2bVrF+Lj42XnLbPZjDfffBNKBpjRo0cjICBAYi11cHBAq1atMHDgQEyZMkUy6W2/P2HCBFy4cOEfT9i9e/eWOCSyuObk5AQfHx+kpqZi9uzZuHz5MtLT0+Hm5ia5zmw2Izo6GocPH5Y88+bNm5GWlgYnJydFV1GdOnXExWfRokXw8vICESEpKQmZmZmqwKqQo0+fPtDr9TAYDBg0aJDiJBk6dCjc3d0lMb+Ojo4ICwvDkSNHJN/Zt28fXn/9dVgsFnHXpAc+xdq1a6N79+44fPgwKlSoIKrStl117Nix/2iibt++HRMmTED37t0RGxsrcwGRQtzyw3/bVO+oqCj07NkTkyZNwpo1a3D27FnY4oKTk5NFlZ5hGBgMBkRERGDcuHGwGeC2bt2KgQMHIjIyUrIYPbzQ+fv748aNG7Z46XHt27cXd2nV2KRC0UIZEhICjuMQFham6Ls8c+YM/vOf/8BgMIiqoslkQuXKlfHhhx+K158/fx7p6enw8fGBXq+XqZgmkwnx8fH49ttvkZ6eDq1WK056QRBQo0YNRUE9e/YsvvvuO4wdOxZvv/02Ro4cieXLl8NqteLgwYOoW7cuvL29YTKZJGp6cVZl+0XE9gxarRYLFizAtWvXUNQZ2MfHRzx72pIU3NzcsGbNGkycOBF169aFu7s7dDpdsRZu28LQu3dv8bd27NgBDw8P8DyPqlWr4sCBA6rAqtbg/6+qvvfee3ThwgXSarX0/vvvU3BwsMwSefr0aTp06JAYsF9YWEi3bt2iixcvUv369almzZpYunQpJSQk0O+//y7zlQqCQDZfaMuWLclgMNC8efPEkD+WZcnV1ZVat25Nf//9N61atQr79++nkydP0u7du6lChQpUWFhIGo2GKlSoQAkJCeTs7EyrVq0ijuNIq9WS1WolAASANBoNGQwG+u2334jnedLr9eTq6komk4mio6OpZs2adPHiRZo6dSrdvXtXDKP09PSk8PBw8vPzU7TG6nQ6MYfV1g+2/2/Xrh3dvXtXkjJnb8V+YGEWE9YLCwupsLCQ5s+fT9u3b0dycjJTu3Ztpm/fvpgxYwadOHGCVq5cqUqnivtYunQpXFxcwDAMGjduXOQqvnDhQoSHh8uMNSaTCR4eHtBqtRAEQeKvtKmVPM/Dz88PTZs2FS24gwYNEndV2/nNz88PYWFhCAoKEne+hxvHcdDpdAgKCkJUVBQSExPRtGlTREVFwd/fHzzPiz5LX19f6PV6NGrUCBMnTpRZab/88ksYDAbwPC8+f1JSEvLz8+vbX5efn1//6NGjmDt3LhITE2UhljajnC36ydY0Gg2cnJyg0Wjg4eGB9u3bo0aNGop+1pYtW+LmzZtLie77pKOiokRNZ+fOneruWt6Rl5eXVrt2bQiCAB8fnyInxdatW9GyZUuJkcR2vnxYlXzYgOLs7IykpCSMHj0au3btEuOF27VrJ3F76PV6ODg4PDIv1rYQaLVaGAwGGI1GREREoF27dqhUqRIEQRBdKizLomnTpjh69GiRVurg4GAYjUb4+PhAo9Fg6NChkmv379+P0aNHo1atWjJrLhWRr+rs7IwKFSogNjYWYWFhaNasGSZPnowTJ07g8OHDohHJvrm6umL27Nniby9atEgM9+zatasqrOUd48ePF+N8Bw8eLE4Iq9WKLVu2iJPUZiUuzkBjiyry9PREQkICXnrpJURFRaF9+/bYsmULcnJyltruv3r1agQHB0t2YJtwPbxb2YLreZ6HyWRCbGwsmjRpgqSkJPTr1w9ff/01du7cidGjR0On04k7vUajgdFoxI4dO4qc6AsWLEBSUhK8vLwQFRUFo9EoRh4dOHAAc+bMQb9+/VCvXj04OjpCq9VCp9OJz2l7Nttz6nQ6xMfHIz4+Hi1atMCiRYuwZs0amVV75MiRMqMTy7Jo1KgRzpw5IxqbUlNTwfM8nJycsGbNGlVgyyvOnTsHo9EIIkKlSpVEQ8bq1asRFBQErVYrMf48akfx9vZGdHQ0EhISULNmTTRv3hwrVqxQnGADBw5UDNi335HDw8ORmJiIwYMH47XXXkPPnj0xceJEHDhwAAUFBcEPn7ttAurj4wM3Nze4urpi48aNxU7wjRs3wsHBAV5eXnBzc0NYWBhOnz4tfmfz5s0YOHAgQkND4eHhAUdHRxgMBlEj0Ov1iImJQdWqVeHs7IyKFSti+PDhWLZsGa5cuVLkb1+4cAEvvfSSRCthGAY6nQ5Tp06F/fP5+PhAEASEhISowlpe0alTJ/A8D6PRiD59+mD+/PkIDw8vEU0Jz/NwdHSEl5cXTCYT3N3dkZqaitdffx1z5syRnfkexpw5c+Dv7y8JKNDpdHB0dERcXBwaNmyIbt264YsvvsDOnTvx66+/FjtRR40aBS8vL1SsWBH169eHt7c35s6d+8jJXVBQENy4cWPExcUhICAAsbGxOHDgAM6ePYvvv/8eqampqFKlCrRaLfR6vbiT6nQ6+Pn5wcPDAykpKRgyZAhGjRqFY8eOlVigvvrqK5hMJlnfRkZG4uzZs+J97NPvRowYoQoslTOmiKVLl+Ktt96inJwcqly5MnXs2JF2795Nu3fvpry8PFlS9sPQaDQUEhJCFStWpNu3b1ODBg2oRYsWZDabS8TUQEQ0Y8YMzJ49m86ePUsBAQEUHh5OUVFRFB4eTqGhoZSYmFiiMcnLy0v74osvZuj1ehIEgTZt2kT16tWj7t27S2hcisKKFSuwYsUKys7Opry8PKpevTrdvHmTzp8/T7/99hvpdDpycHCgwMBA4nmezpw5Q8HBwZSamkq3bt2ipKQkCg0Nfez5c+HCBQwYMIA2btwo6W+O46hXr140bdo0hug+jUxaWhqdOXOGQkJCaOHChSXuG1VYSzkuX76MAQMG0Jo1a4hhGBo2bBgR3Q+0P3nyJP3f//3fI4W1RYsW1Lp1a4qOjia9Xk//NKUrIyMD165dI3d3d/L19S2WLrQ45ObmjmMY5uLWrVtnaDQaat68eYnvc+XKFXz//fe0f/9+cnd3pyZNmpBOpxP5fvV6PRkMBvL09KQLFy5QZmYmJSYm/uNntceSJUvw9ttvU2ZmpviZLcVuyZIl1KhRI4aIaNiwYRg/fjyxLEvdunWj0aNHy1giVZRBzJo1C2azGTzPQ6/XIyQkBGazGXq9XuJ2IbuIIx8fH4SFhYnGo6fNWP80NYZ/8r1Lly5h3LhxmDdvXrHfv3nzZv7TfuZ27dqBYRhJvzMMgxo1asDud5eGhoaCYRj4+/tj7dq1qjpc1jF37lwEBQWB53lYLBYsXLgQEyZMwNy5c9GkSRPFaJuQkBBMmTIF6enpcHV1xQ8//FAmJ8rmzZsV46GfNU6ePAlHR0eZC8zR0RFTpkwRn2flypWiL7dTp04qBUxZx+jRo0VjzvDhw8WJsGnTJlSoUEEWCufs7Iy5c+fi+++/x5IlS9C1a1dcvXq1TArrwYMHZfHNzwsfffSRJEDE1v8vvfSSyGVFRGSLGzaZTFi8eLG6u5ZVHDt2DF5eXuA4DtWrVxctjlardenrr78uY3FgWVZM3Tp16hRWr15dpn19D7uDnidu3ryZn5SUJIv+cnBwkCyqu3fvFn3e8fHx6u5aVtGsWTMQEZydnSVEYKtXr4arq6ui+rtt2zYQ3fdjzpgx44lS1lQ8+rxtsVhkgRKRkZHYt2+f2O9Dhw6FTqeDIAhFZkepKMVYuHAhdDodeJ5Hs2bNJA775ORk2XlJo9FgyJAh4jVXrlzBd999p06MZ4js7OyMzp07KwaK2FOaHjlyBImJiWIQhZqVU4Zw6dIl1KxZU6THtD/rfPXVV7KwN4ZhZKlZJ0+eVBOhnwPWrFmDwMBAmcAaDAZJ2OTYsWPh4OAAlmXRrl27RwahqCglGD9+vBiA36lTJ4kA+vv7y1ZxvV6PsWPHSgTTPqJGxbNDfn5+/d69e0Ov18uycl566SVYrdYMovu+8uTkZHEBXrRokTo+pR0ZGRmoWrWqyGlkb+3s3r07lIjCXnrpJXUX/Rdx9OhRBAcHKzJY2C+iK1euhEajAcdxaNasGc6dO6eOWWmGLWeU53lMnDhRHMwffvgBSmUqNBrNI4PfVTx7fPrpp4ox2ZGRkRKOpweaEgwGA2bMmKGOW2leoW1J5VWrVrVPf1vaunVrmdVREAQ1b/IFQpUqVWSLqU6nk7AnXrt2TczKiY2NVeu9lla0atUKHMfBxcUFS5YsEQdxzpw5cHd3lwlrWFjYI7NbVDw/bNy4Ea6urrJxCg8Pl1C+TpgwQUzbs89JVlFKMHfuXJGm5NVXX4XVal1KdD/To3bt2jL1ymAwiMx8Kl4MFBQUBPfs2VOW98txHLp06YLc3Nz6RESnTp1CcnIyiAguLi7FJtureMFw4cIFREdHQxAEhIWFSaKOxo4dq2hprFevnrqrFoNdu3Zh/vz5ik2pasHTws6dO1GxYkWZa83R0RHLly8Xf3fWrFlwd3cHz/No0KCBOo6lBenp6dDr9dBqtRLi7czMzHyz2SwLgLBYLJg+fbo6wMUgLS2tyLKXTZo0eayyk4+L999/XxYKSkSIjY0VfzM7O3tc06ZNRc6rL774Qh3PFx1bt25FZGQkiAjBwcES5oJ27dopcig1adIEVqtVHdxi8MYbbxTJmtGoUaNiKVyeFMeOHcNLL72kyIg4atQoiSvH3d0dHMehVq1aIpeTihcQubm54/r06SO6aux9csuWLRPJuR9Wp1avXq0O6oPjQ1H/1qtXL+h0Ouh0OjHv93kJKxHRlClTZIWobQW27CPNunfvLhLLjRkzRh3XFxVr164ViyUlJycjOzs7jeg+Q37Dhg0VV2al+jTlEWPGjEHz5s2LzGfdv38/li5diiVLluDLL7+UBC08D2HNyclZWqdOHUVG/1dffVX87XPnzon1fSpWrIiMjAx1fF9ENGrUSNwtbdkyRESffPIJTCaTLN7Uz88Pz4L5oLRh6NChcHJyAsdxqFKlyiNzWq9evSopzvU8hJXofr6tjUfYfhx9fHwk8d4zZswQy2j2799fFdYXDfPnzxfZ8Hv16iUO0PHjx1G9enXZAPM8L0mTK6/48MMPodfrRQMOz/OIiooqNnTv2rVr/4qwEhH1799fUUNq1aqV+AzZ2dnjGjRoIPIm/1sJ9SoUcO7cOfj5+YkTzcZ6T0Q0YsQI6HQ6mWO9cePG5Tr+Nzs7O2P06NFiRbyHW0xMTJHVCX755RfExcWJ19apUwf79u3DtWvXZC0zMxNPM6n95MmTiI6OVixLac/mv2zZMvHdkpOTX1jOrHKHPn36gOM4mEwmfPDBB+KAHThwAAEBARJjCMuyapYGEU2ePBleXl5iXRyNRgNnZ2dJjdhq1arhp59+QnZ2dsb+/fsxffp0DBw4EKmpqXBxcRH71N3dHQ0aNECLFi0krWXLlmjbti26d++O4cOHY/369ZKqBP8UkyZNgqOjo+zsmpiYKO6umZmZ6Nq1K3Q6HTQaDT7//HN1d/23sWHDBgQEBIDneSQkJEj4elq1aqWYVN6pU6dy76qZO3euyI6h1WrRrl07zJ07F1FRURLi8cjISNSqVQuRkZFwdnYutnxjcU2v1yMoKAh169Z94iT+s2fPIiUlRaYtabVayWK9adMmhIWFQRAExMXFqerwv63K2WgsdTqdZPVcvHixYsEof39//Pzzz+qgEdHEiRPh4uKCB3Q3RHTfV+nr6/vE1dKLazqdDk2aNHkiipxZs2bB1dVVMdD/5MmT4n179+4tVhB4++231XH/t/DNN9/Aw8MDLMuiWrVq4kDcuHFDdq6x8dLaG59UED28y61btw5RUVHPVFhtJTBr1aqFPXv2FHkuPnLkCI4ePaoYHVVQUBD88ssvKxqb7BefCxcuiGUwo6KixKJbKp4jLl26hMaNG0MQBLi6umL79u0So9LDpRN5nkdoaKiaoFwErl+/juHDh8Pb2/uZCurDC2jt2rXxyy+/yMbEJmCCIKBFixaKVdi3bdsGs9ksu6+Dg4Okzs/MmTOh1+vB8zzefPPNp3JuVvGYBhLbANirNzt27EDFihVlKrBWq8WCBQtUQVWA1WpFly5dFH3Rz1JQ9Xo92rRpAyXKHB8fH/G6Zs2aFcnV/O6770pq1tp27pSUFEk1vKZNm4Lnebi5uakRa88TWVlZ4g5QsWJFiVGpf//+MqoWIkLz5s3VAVLAzZs38xs0aCAL5XvWTRAEdOnSpchzq01YiahYYc3KylJcnE0mEyZNmiRZxD08PCAIgqQsh4pnjM6dO4ulGidPnix2/JYtW+Dl5SVbZT09PdWzigLy8/Prd+7cudjK7c+iaTQaJCUl4caNG4pjcvHiRdHIZdsli7PkLliwQHGxqVSpkqTi+4ABA8Qz7ieffKLOh2eNdevWiepv/fr1cerUKbHTW7duLaMV1Wg06Nu3r3pOUYDNGvw8BZUeBDDYh4PacPLkSQwdOhSBgYGidsQwDHieR2BgIIYPH44TJ07Ivnf58mU0b95cZhnmOE7C/WyfG+vu7q54VlbxlHDt2jU0bdoUDMPAbDZj1qxZYmcvXLhQllTOsiyio6MlxicV92GfSvi8mz0drL0g1a9fH1qttthzc+3atSWULjYsXrwYAQEBMq3K29sbu3fvFq8fNmwYTCYTNBoN3nzzTfybJUPKNKZOnQoXFxfwPI+mTZvC3pL58EDZrIJDhw5VBVUB3bp1K1GFd3rIos6yrKTxPK/YlFRrm/vMPhyU6L57JSoqSrHcptIz1KhRQ8bCX1BQEGw7Hj3MKvEgW0f8rUqVKoFhGPj5+ZXZioD/Kn799VckJyeD53lotVrs379f7OS+ffsqDnRoaGiR56LyjD179sjipUvSDAYDkpOTMWrUKOzZs6dIFvzJkycrRjqxLGuLmpItHCURVHv1Nj11tdWAAAAgAElEQVQ9XXafffv2Kar1giBIkjbmzJkjPk9qaiqysrLUOfI0MX78eGi1Wmi1WgwcOBD26pwtf9F+MI1GI+bPn68OggJat25d4uAFV1dX1KpVCx9//HGJz/2ff/65ouCxLCuhYiEiOnHiBMLCwh7b7RMaGqrImfXee+/JvAE8zyMmJkbiY69Xrx54nofZbFbZ/J8mjh8/jtDQUHAch0qVKiEzMzOf6D6nUteuXRXrerZs2VIdAAWcPn1aFjCipKoKgoDk5GTMnDnzsXN+ixPWB6l1IhYtWlRk5k9xz8hxnGL188zMTFSqVEmWvOHg4CBL8vDx8RGJCpSCLlT8A3Tu3BlEBKPRKEmDWrx4MTw9PWWD6evrK1GTVfx/jB07tlhXjS15f8iQIYqWVxvOnDmD/fv3Y9euXZK2Y8cOpKenK6rBHMchKioKW7duFa/v378/TCbTPzJUFUVy98MPP4hFq+zfKyYmRmKF/uCDD6DVaqHT6fDxxx+r8+VJsXz5chiNRjHB2Ma4brMM208K246gGpWKRq1atRQFyeYicXZ2xsyZM1HUrvzhhx+icuXKCAgIgLe3N7y8vCTN09NTLAJGRQRDeHp6itebTKbH9vPa6t4U9ZxE98tqPHxfnufRq1cv5OTkpNlU8MTERHAcB2dnZ5Vg7UmQm5s7LjY2VrFU47x582SWP1tA/6FDh9ROV8D169fh6elZpKXWwcFBcYc5f/483nzzTQiCIOa/Pq+wxKKEVRCEIvmiiIg2b96smD1kMpkku+vkyZNFqpgHZ3kV/wRjxowRAyC6dOkiduTVq1dRoUIFxYGwDzFTIUVRge9kx55hH/5XUFAQPG/ePERERPzjPFZ6Rlk71apVK5ZKJi8vL23AgAEwGo2y3bVx48bi986ePYtGjRpBo9HAYrGUmoLZ/Iv0MAcOHEDPnj3pzp075OnpSa+//jotWLDAdu6ic+fOSa7nOI6qVKlC//nPf+idd94pNwK4ZcsWbNq06ZHXAaCpU6fSn3/+qfjver2e6tatSyEhIYztsyVLllz46KOPKDMz88WZpDxPDg4O1K5dOwoICGCKus7FxWXmvn37ZmzevJlOnDghfl5YWEg///wzTZ8+HX369GHCw8OZhQsX4uDBg3Tr1i2aN28enTt3DmFhYYy6vJcABQUFwe+99x6MRiMEQZCEjG3YsAEWi0W20hsMhlKzKj5NPFBbn7h5eXlhw4YNsD+CBAUFvTC7KdkxTnTs2BGXLl0q0Vh/9NFHilpBYGCgxPVjc2eZTCZMmTJF1c5Kil27dolZNQ/4aUU0bNhQsVRjkyZNymUHPy1h9fPzw969e8U+PHz48HMP8H+U6qvVatG8efPHciUVFBQEh4SEyKK1NBoNXn/9dfF9z5w5A0dHR3Ach2rVqr3wccMvjBr81VdfUXZ2Nun1epowYQK1adOGiO4nEX/wwQcE/P9+ZBiGXFxc6LPPPqP169eXO2HVarVkNpuf+D7Ozs7E87ykX52dnSV9/W+A4zhycHCgoKAg6ty5M3Xv3p1ZvXp1ib9vNpsvrl27ltq3b09//PGH+Pm9e/do8+bNtHbtWjRr1oyJiIhgPvroI4wePZoOHTpEK1asUM+sj8KKFSvQpUsXYlmWWrVqRW3atGGI7ocb9u7dm3JycmRnmLfeeovCw8PL5RkjOTmZLBbLE9/HYDCQr6+v+Le3t3fBxIkTzSzL/mvvBoAcHBwoNDSUqlSpwmzduvUf3adZs2ZM586d8e2331JhYSEBoHv37tH169dpyZIlZLVaMzw9PRNee+01WrduHe3bt49mzpxJhw4dQnx8vHp2VcKNGzcQFRUFnucRFhaGjRs3isv6+PHjJZY9WxRLUlKSStWi4pE4cOAAIiIiZEH+7u7uMpegxWIBz/N45ZVX1HlVFAYNGiQG6tuXPbhw4QKCg4NlESkWiwVff/212qEqSoRRo0bJ4oYZhrHVRRpn2zDatm0LQRCg0+kwb948dX49jD179sDPz0+karFPgUpLS1M0OLRq1UrNqlFRYhw6dAg1atSQCawgCJLQxRUrVsDf3x+CIKBixYq4fv26OsdsyMvLS3vzzTeh1WohCAKGDx8uds7PP/8sC9RnGAZeXl5YtmyZ2okqHguTJ0+WBYawLAsfHx8JwVrXrl2h0WhgMpkkNWDLPZYvX47AwEBoNBrEx8eL5FjXr19HUlKSzE/G8zxee+01tQNVPDauX7+OlJQURfeQfenIQ4cOie7DuLg4WcJ8uURmZiZsZS50Op3EMT9hwgQYDAZZHKqrq6uEe6m8YMSIEahXr94jW0pKCl555RUx6UGFFOvXr4dGo5H5kd3c3PD9999L5h/HcSKbf7mngFmyZIl4hrCP/z169CiqVaumGDBeXosMtWnTpsRBBCaTSVJGQoUUr732mixQwhY3bG8HSUhIAM/zcHFxwb59+8pvf2ZnZ2fExMRAEAQEBQVJ6CaHDh0Kg8Eg68yaNWuW2w5ThfXpqsM2g6Z9M5vN+PLLL8V+W7NmDZydnUFE5duVM3DgQPA8DwcHB4wYMUJCyBweHi7L9nd3dy/XRiVVWJ++sUmv18vCV5OTk8Vj1s2bN5fadmGNRoOFCxeWvz7dunUr3NzcwHEcatasKSFjfu2112RJ5RqNBt26dSvXBZBVYX26uHDhAh6ONWcYBgaDAWPGjBH7buPGjYiMjATP8wgPD5dYjcs8CgoKgps3bw6e52GxWCRZDps2bZLx/zIMg/DwcGzatKlcTz4lYbVFctnYAW0sCs7OzoqEYkVhxYoVkjIk5QWzZ8+Gp6en5PzKMAw8PT0lub1vv/02dDodeJ7HW2+9VX76ad68eXB3dwfLsqhevbrkxSMiIhSpQNRSjcrC6ubmhlGjRmHz5s3YsmWL2B6H2HzatGngeR4pKSnlzsp+8+bN/FatWkGj0cj4ouyZI44fPw7b3AwLC8OWLVvKfj+dPXsWTZo0Ac/zcHR0xMqVK8WXHj16tGIJhPDw8HK56pdEWH18fP4xUXV+fn79Tz/9VLKrNG3atNz19fr16+Hl5aV4nLC3kUycOBEajUZMr7NarWW7nyZPngyTySQLbNi/fz/CwsJkvi9BEPDZZ5+pZ6+nLKz5+fn1x40bZyPdlhhYGjZs+FgqdFlAjx49xOOEfX/UrFkT58+fBxFRTk5Omo1wzsfHp2wbO3Nzc8fZuJOCg4MlZ4LevXvLVBEiQkpKSpHM76qw/nNhnTBhQrF8vdWrV8exY8fKjcBeuXIFQUFBMt+ryWSSGJt2794tJqm//PLLZXduLl68GBzHQRAESWDDunXrEBQUJDOhOzg4SNgLVGF9OsI6bdo0xYXxYcNVfHx8sdzBZQ3z589XrO1bpUoVCQ/1W2+9BY7jwHGcpDja8wT7HFYvYhiGnJycKCgoSPz8+vXrVFBQILvez8+PXF1dVSl9gMLCQtlnAB6LzeGTTz5B//796c6dO8VeB4AOHz5MAwcOpPKyw1aoUIEMBoPkM4Zh6ObNm2S1WsXPKlasSAzDEAA6dOjQv/Ksz5wponnz5vTJJ59QdnY2TZ06Vfy8QYMGtHr1atqwYYM48QoLC+nUqVP0xRdflKkJkZeXl3blypUZFy5coOzsbLp9+zbduXNHURAfFtTly5fLPv/zzz9p06ZNNG/ePHh6elJQUBC5urr2cHFxmfnwEWTWrFmDPvzwQ7p3716JnhUA/fTTTzR48GA6evQoKlWqVKZZE0aOHEm3b9+WfKbX66lJkyaUmJj4PdH9Qs/NmzcnIqLw8HDq378/ffXVV2WzQ/r16ycmmNuHdS1atAgeHh6yA77ZbC4TZvJDhw5hyJAhaNu2LapWrQqz2SzzjxbXiiPWtiVBBAQEoHbt2mjTpg0GDBiAtWvXwmq1Ijc3d9yYMWNkxiSys7j7+fnB2dlZ8Td4nsfLL79cpnfXGTNmyEjjiQghISGSjJvevXuDZVno9XpMnDixbGscu3btQkxMDHieh7u7u8TI1Lp1a8V0uFq1apXaTjl8+DA6dOiAoKAgGAyG50KWzTAMtFotvLy8UKFCBVSrVq1Icm8iQkREBI4dO4axY8fC0dFRMRqqLDMmnD9/vshKdvY0uD/99JPYP3Xr1i0fPukPP/xQTCh/4403xBf+5ZdfFCucGY1GTJs2rVR1jNVqtcU7v7CN4zjExMRI6pMOGTJELBTFMAxcXFwktU3LIgYMGCAjOOB53lZ+Q0RycjIEQYCbm1uxdXbKFE6cOIGqVauCYRj4+vpi3bp1sDs3KFavrlmzZqnx/W3cuBHVq1d/7Mriz1tQExMTJZlONgwaNAhGoxHu7u745JNPyvSk/PnnnxEZGSnTeBwcHLB8+XLx3adPnw4XFxfwPI8WLVo8dhnMUo1p06bBYDBAo9Ggffv2Yn3M7OzstBo1asgC+Z2dnUsFvcasWbMQFRX1QhFkKzWtVosWLVooCivR/dKQn376aZkW1Nzc3HE9evSQuGtssdXt27cX3/3kyZOoU6cOBEGAk5NT+YtRz8vLS0tJSQHHcXB3d5dUKV+yZAlMJpNsd42MjMTBgwefaUd98cUXqF+/vqQ1aNCgRGe2zz77DD4+Pi+8oNqfa+Pi4rB06dJy6ctet24d3NzcZP794OBgSaW50aNHw2AwQBAE9OnTp3z6/Y8fPy7urnXr1hVZ5G7cuIEOHToo1tfs27fvM+2st99+W2YRZFkWw4YNw6N2VEdHx0cGG7yIzdHREQMGDCh3kzAlJUVxjr377ruwP7I9KOEiO8OWO7zzzjviBLePalq7dq1iVJPBYJDQlL4Iwmq1WlG/fn0x5rm0CSs9qP3StWvXcsPbNGfOHNlYCYKAhIQECX1Lz549wfM8DAZD+TEqFYVTp04hLi4ODMMgMDBQYg7v0aMHtFqtKDy280TNmjWRm5s77kXaWfPy8tLefffdUqMGF6UWp6amlnmXxKlTp+Dn56doVBo9erT47lu2bIHBYADP82jWrJnKUU10PxPHyckJPM9LDvaHDx9GQECAou/1WTmk/6mw2lsNQ0ND/9XK4E/SBEFA8+bNy/TEfOAulLVq1aqJR7GcnJy0atWqieqvfYmNco3z58+jYcOGopprTwc5fvx4mbAyDIMKFSrg8OHDeBbCqrQ42BOPPwpTp06Fh4dHqVWJOY5DnTp1ymRGyapVq2xnT8lirNFosGbNGsm802q10Gg06Ny5M3JycpaqkvoAX3/9NSwWCxiGQVJSErKzs9Ns/xYdHa24A/Tr1++pCmtOTs7Srl27KibA9+3b97FU7549e5ZKY5P9AmVPDVsWYLVa0aZNG0UK0o4dO0o0utjYWAiCgMDAQGzevFndVe2Rn59f/5VXXoEgCHBxcZHwMq1Zswaurq4y32tkZKSEFPyfYt++fRgxYgQCAwOLVF8ZhkFERATGjBlToh09MzMTMTExpVZYiQgWi6VM+VptdEIPv2dAQICkePK7774LvV4PlmXLF9/S42DPnj1wdnYWjUj2qVlvvvmm4orYrVu3fxxNkp2dnTFy5EhER0crsgSQQsA8y7KoXLlyiSJ7Vq1aBY1GU2rPrwzDICoqqkwkUly+fBlKrhqdTidJLt+6dSsiIiJEOiG1qkExeP/998VOtOcStnWi0uq/YsWKx+7QixcvomPHjpKar4/TnJyc0Ldv30fy8ChNkNIkrDzPo3nz5qX+zDZp0iRZKRZbuUd7ytbXXnsNWq0Wer1eNSqVBLasHE9PT5w9e1bssPfee0+RpjQ+Pv6xOjUzMxOdOnV6YgOQTqfD4MGDi/3tuXPnllphJTsf7IwZM0rtxM3Ozs54OD1QiQb3559/FulGH7ByqHgU5s+fL7pyUlNTxU47cuQIqlSpIguU4DgO48aNK3HnfvzxxzAajU+snjIMAzc3N3z77bdF/vYvv/wCNze3x7qvg4MDnJyc4OzsXGRzcnKC0WiEVqtVzMN82tZhT0/PUkuw3rFjR0ULf8OGDSUuqsqVK4ubxONQuf4b4F+UB6lbty41aNCAVq1aRcuXL6eVK1eiZcuWTOXKlZlJkybh5MmT9Pfff1NhYaHIsDB58mQ6duwY4uLiimUz2Lt3Lzp16iRjBPgnAEA5OTk0bdo0unHjBnx8fGS/7ejoSBUqVKCcnJwS37d///4UHBxMDFP0q9y7d48KCgrot99+o9u3b9PNmzfp1KlTdPnyZbp9+zbdvXv3qY3HvXv3yGq10sSJE0udoK5cuRJt27aVsWMYjUbq27cv2cZs5MiRGD58OGm1Wmrfvj3FxsaGqNtmCbF8+XIEBASAZVnEx8fjypUrNmd1/aJqtpbE1dCvX7+nrpYKglBkoP/NmzfzO3To8Fj327179z9a1ffv349vvvkGI0aMQHx8PPR6PXieF9konvQ9/f39SxWn8KVLl9CoUSOZJsayrIQG98CBAwgKChLze3fu3KmqwI+LLl26gOM4aLVaSVDC/v37Fauhe3t7P5LL1ebLfZrCyrIsatSoofi7+fn59R9UE3jmwvqwAW3z5s2oXbs2DAbDU1mgDAYDPvjgg1IzkadMmSJWgLNX6X19fSUqfbdu3aDRaGA0Gh8r+EWFHfbt2wdvb2/wPI+4uDhJgLWNZ9h+EjIMg3bt2omV05V262dpiLFnXLChoKAg+IGv7rkK68Oqf61atUS+2ydZrGrVqoWLFy++8BP66NGjSExMVNSCpk+fLj7/ihUrxNKP4eHh5Sup/Glj6NCh0Gg00Gq1SE9PFzv51KlTsiRvhmFgsVgwZ84cxcn0zjvvPFNhXb9+/QsprDZ8/vnniIuLeyKB9fb2LhX5r6NHj5ZZ+1mWRUpKiriY37hxA6mpqWBZFlqttlhDoYoSwGq12lwzCAgIkIR+jR8/XpGzKTExUXF3fWBZfmZtypQpyMnJWZqfn1/f1i5fvowePXo81n02bNggu499y8vLS8vLy0v7J/158OBBpKWlwWQy/SPVmOf5F14VPnToEEJCQmQLube3t6S+6rx580SWSfsiVCqeAKtXr4bRaIQgCBJXzqlTp1C3bl2ZsUkQBIwcOVLW+S1btnymwhoeHo46depIWlJSkixw/FGtcuXKsvsotXr16qFJkyZIT0/Hrl27Shx4n5eXlzZu3Di4ubkpMtDTI9xVzZo1K/Ko8SKgXbt2MqMax3FITU2F1WrNsF1XuXJlcBwHf39/HDp0SBXWp4GCgoLgbt26QRAEGAwGSbmIr776SsaHy3EcjEajJKCCiCgtLa1UBydQMXmoTk5OcHV1Rc+ePUt8ppwwYUKRXMLF/V5oaGiR3E3/NpYtWwadTid7bi8vL0kc+QcffACO46DRaBQXdhVPgM2bN8Pf3x8syyIgIABWq1UMf2vQoIHixGrVqpVkEB5E4ZT5ptfrkZaWJqnPUhQGDBgAnU5XYj5jWwiiPSPli4KsrCxUrFhRdlbVarUSyttjx46JLq3q1auXq3o+z213TU9PFzP333vvPUlGv4ODg8xo4uzsjEWLFonXXbx4EQaDocwLq43B32w2Y8SIEcX6RnNzc8c1bNjwsUIvWZZ9ISlKR44cKXFT2ZhFgoKCRC0rLy8v2KYmm83mMk+1+q/h4MGDIpv/wwx0AwYMUDy7NmzYEOfOnROva9q0aamP1aXH9AHXrVu32GSHEydOPLY63LNnzxdqku/bt0+kB7J/d61Wi6+//lp81vnz58PLyws8z6N+/fpqVs2zxNixY6HT6aDVatGtWzfk5uYGExFdv34dUVFRkjhZhmHg4OAgyclct26d4pmmLDeO4xAUFCSpMv8wevbs+ViRTk2aNHlmPFj/ROsaOHCgzFjGcRyaNWsmvvOZM2fQqFEj0aZhz0ii4hkhLCxMrD5tz5o+Z84cMWnYfnVNSEgQ06CsViu6du1arnZXWz/4+Pjg9OnTihN027Ztj2UZZlkWgiCUqKhWcc3b2/uJKy1s374dnp6eimmM9q6+6dOni5FvDzwDKp41NmzYIBYIatGihUhydfXqVbRo0ULRWDJ06FBxcDIyMmArN1+eBLa4SXru3DmEhIQ890R5b2/vJ2ZTtAU20EPpi71790Z2dvY4ovvZT/Hx8WINm/Pnz6vC+rzw2muvieqM/Znk22+/VaQD9fb2loQr/vjjj6hUqZIY2F1a2Rwet2m1WsVE8qtXr6J69eqlTliXLl0KnU4nSyqPjo7G1q1bJQW3bMRoZb5U44uGAwcOiGfUBzGd4x5YN4M7duwoC/S3hZo9bLB65ZVXZDHGZV0dVtpVrl27htq1a5cqYc3KykJISIjigvSAcUScKzbupeTkZEmZURXP0dhkOzc9yGwhIqIdO3bAw8NDcaLOnj1bNlALFiyAr68vOI4TuZjK6m7LsqwsWKS0Cus777wjczlpNBoEBwdLIqxq1qwpurIWLFhQJgSVL20P3LRpU1q3bh3t3r2b5s+fT9u2bUOdOnWY2rVrMwMGDMCUKVMI+P9jU1hYSFOmTKGrV6/C399fzOzu0qULQ0Q0c+ZMfP/995Sbm0u3bt2iu3fvSr5fFsCyLPG8fKh5nicPDw/y9/d/ru/s4eFBgiA89vd27NiBLl26yJ6VZVkaNmwY2cZ31qxZ6NevH3EcR/Xr16eUlBRShfVfQGxsLDNlyhT8+uuv9N///pcmT55MWVlZGV5eXgnvvvsu/fjjj3TmzBkJS8CVK1do1qxZivdLS0tjHt5typo2AoDsFyobvLy8GKvVijt37hTLUPG0wTAM+fr6PtYP5ubmjnv33Xfpxo0bMgaIunXrUrdu3Rii+66azp07071798jDw4M6depESmweKp4TMjMz0aBBA/A8Dw8PD4mau2TJElnEEsuyiImJwY4dO9RzSynFsmXL4OfnJzMqeXt7S0Ishw8fLiaAPIgLV/Fvw56Vzj5iKScnp367du0U2fpU8ubSiRs3bqBFixairYLsUvfsjUp79uyBrZKD2WxWI5VeJLz55puicWjatGmSuGEfHx9ZGJrZbMbevXvVASxlWLx4sSL/VkJCAjIyMsTxfOutt8DzPDQaDb788kt1nF80dTg4OBgsyyI6OloSqfPWW29JfHG2QPfGjRurg1iKcP36dVSoUEHmZnN0dJRQ0e7cuRMuLi7geR516tRRx/hFxNSpU8Xq4/bl5Pfs2YOoqChZOB3P80VSwKh48fBgTGUZRrVr15b4TuvVqwcigqenZ7Hx0Cr+RVy8eBEvv/wyOI6Do6MjNm3aJDE2KLH5BwQE4MyZM+qAvuD48ccfYTabZYutXq/H/PnzYb9gazQaCIKA119/XSVAe5Exf/58kQH/4bIagYGBikECvXv3VoX1BUZBQUHwyy+/LNOMNBqN5Chz9uxZBAYGguM4VKhQAT/++KM6ri8ycnJylrZt2xZarRaOjo6S9LiVK1cqcuiGhIQoMhOqeDEwe/ZsxXxbi8Uiicbq168fBEF4JrV7VTxDlcnLywscx+Gll16SlI7s2LGjLERNEAR06dJFVZleQJw9e1bGqs8wDARBkFQZ/Omnn0TjU0REhKQynIoXHA9WVhgMBnz44YcSY5NS8LeHh8cj2fxVPH9MmjQJjo6OMtdbzZo1xV01MzMT3bt3h1arhUajwVdffaWOY2lCbm7uOD8/P/A8j9DQUBw4cEAcwA8//BBarVZGVdmoUaNSX4e0LOHy5csIDQ2VCaqTkxNmzpwpjueaNWtgNpvB8zwekOepKG349ttvodFowPO8hDPo0KFDstxNG/PBF198oQ72C4JevXrJ7Au24s72WTXJyckQBAFGoxGHDx9Wx680IicnZ2nz5s1FvuFdu3aJAzlhwgRFRkRvb+9SUculrGPnzp2KTB7e3t4S7qQHiysEQcDbb7+tjltpxurVq0W+4YSEBOTk5NQnup9RU6dOHdnKzXEcunXrpg76v4isrCzUq1dPsVRjx44dxbE5ceKEyAoSExODPXv2qONWmlFQUBDcs2dP0QI8ZswYyVlHo9HI/K4uLi5q5Mu/iE8++UTk2LJfRC0WC3755RdxXLp27Qqe5+Hk5IRRo0ap41UWsH37dlSoUAEcxyE8PFwS8N2pUydZVTVbPRer1fqvTYAzZ85g7NixuHTpUrmahEePHkW1atVkxxOO4zBp0iSxL3744Qd4enqCYRjEx8erBGhlCQMHDhRN+/YRS5mZmfkeHh4yddjNzQ0Pym08d5w6dQpOTk6icSw+Ph5LliyRFAAuqxg2bJgsUolhGFSrVk18d6vVmtGyZUswDKO6asoiLl26hMjISDFiyb5Wy8SJExWJv2vXrv3c44azsrKQkpIiC9zQ6/V44403XujqbU+KXbt2ITIyUqbluLm5SYxKs2fPhqenJwRBQP369VVBLYtYsmSJuFt17twZ2dnZaTaVs27duooFjcaPH1/iyfA0aGA+/fRTMZHeNlkZhkFMTAx69+5dpi3VaWlpMg2HZVl06dJFLNV48eJFJCUlgeM4uLq6qq6asozU1FRwHAcnJydJ6cgZM2aIdJX2E8Xb2xtXrlx55ITYv3+/SDb+T5GTk7PUVm/WpgraWBbj4+Ml4XVlDT/++CNMJpNMuwkODsbatWslBbT1ej04jnvhizqreAoGDIvFAoZhULFiRXGwc3Nzg5s2bapIxfmAGqZIZGdnZzwNd09OTs7SlJQUODk5oXHjxqIWEBYWBh8fH0kUVllDeHi4bFfVarV4/fXXYdc/aSaTCRzHoVKlSuXO+FbuUFBQEDxo0CDodDpZId01a9bAxcVFJrA8zxfpysnOzs7o06cPPv/886cycTIzM5GTk7O0f//+qFevHjw9PeHh4YG+ffuW2Yk5btw4sV6qveofEhIiUXPbt28PjuPg7Owsoe5RUYZx8OBBJCQkQBAEuLu7SxjxbGU5HlaHk5KSFFfyadOmITIyEmvWrHnqkycvLy9t0KBBaNSoUZmdmEeOHEF4eLjMTaPVaoE12aQAABPhSURBVCVlLpYuXQq9Xg+tVotmzZqprpryhI8//lgM/raPirl06RJ8fX0ljPwMw8DR0VFmbDp58iQSExPRqFEjrFu3TpHp/klx4sQJSSDAv4UnPY8Xhb59+8pKnfA8j+TkZPH3Lly4gLp164JlWXh6euKbb75RBbU8wWq1Ii4uDjzPw8fHB4sXLxYnwNdffy2jurSVtLftwpmZmbBVYjebzRgwYMC/GkTxrGFPnfK0sG7dOgQEBCjWqrHXdiZOnAij0QgiQvPmzVVBLY9YsmSJyMvUokUL0eprq6j2uCUhtVotEhIS8M033+D06dPIz8+vX9JnycrKwurVq9GlSxcMHDgQw4YNw8aNG7Fjxw4MGzYMcXFxcHV1hclkkuxENot127ZtMX36dBw7dgy//PIL7N1Iubm546xWK44fP46xY8ciMTERrq6ucHNzQ40aNWA0GhEXF4cWLVrg1VdfRVhYGCpVqgSTyQR3d3c0a9YMDRo0QF5eXtqTqPSXLl3CsWPH8P333+Prr7+WxWYzDAOdTodXX31VPHIcPnwYiYmJYlihffRZeUa5LCvwyiuvYP369WQymejtt9+moKAgOnHiBK1atYouXLhA9+7dK3HtF47jxP/neZ66du1KjRs3plq1ah1yd3dPKOp7165dwzvvvEPLly+/PxAMQwzDUHR0NLm6utKRI0fo1q1bZLFYKDc3V/JMDMMQy7LEMAwBIEdHR/rrr78oJiaG2rdvT3/++SdVrVqVfHx86OzZs5Sbm0u7du2iW7du0bVr1+jXX3+lO3fuKNaMIbpfboNlWfLz86P+/fuTt7c3Va1alQIDAx85XzIzM7Fv3z6yWq20bds22rlzJ+Xl5VFhYSEBIIZhZO8SERFBvXr1ooCAAKpSpQrNmjWLxo4dSyzL0tChQ2nYsGFq+YvyimPHjiEoKAgajQYuLi4YMWIEpk6dik8//VQxkuhxm4uLC4YNG4asrKwiJb5t27YytVuv16Nnz5749NNPERYWBqPRCD8/v8euTu7i4oJ+/frh8OHD+Pvvv/H777/j5MmTWLhwIbp06QIXF5fHeh9HR0c0adIEw4cPR3Z2dkZR77R69Wq0b98eLi4uJdZQjEYjhgwZIvbT/v374efnByJCYmJimT5mqHgMY5Ot3OPQoUNx5coVTJw4EaNHj4avr+8jJxnDMGBZVow91mg0EuOUs7Mz0tPTFdXIbdu2yQRQEAR4enpizpw5yMjIwI8//ohNmzZh5MiRcHNze6yyjAzDQKvVokqVKli3bh1u3bqFS5cuoWvXrrBYLNDr9WL62cMLRnH31Ol0iI2Nxc6dO2UCNH36dLGEptL9WJYV+9vWBEFATEyMhC+refPm4HkeRqNREm6oohzj9OnTqF69uigo9lbdPn36PLLQskajgdFohL+/PypWrAhHR0fJjmyr0G5vNLGhWbNmst2b53m0adNGdu2wYcPg7u6uGJJnKx1S1DNyHIfIyEisX78eubm54y5fvozDhw/j7NmzOHjwID777DPUqVPnsTUJs9mMjz/+WHzWzZs3S8Ili+ovnU4Ho9EIR0dHWCwWxMXFIS0tDbt37wYR0XfffQee5yEIAjp06FAukhhUlBDTp0+H2WyGIAgSi+P58+cREhKiqMqxLAs3NzfMnTsX9hbOyMhImeHEaDRKkgeIiL755htZ3qZNAGbNmiWbnHPmzJHsfjqdDqGhofjss89w4MABTJo0CU2bNkVMTAyMRqPirlZUrPPBgwdhH0UkCAJ0Oh3CwsKQkpKC2rVrIzIyEnq9XnbfiIgIbN68GURE6enpsFgssoXDxtYRGxuL4cOHKy5cdmfdjOjoaAiCgMDAQElYqAoVdOXKFTRt2hSCIMDJyUlSOnLu3LkyVdXmuO/WrRsyMzNFq+/evXvRqFEjUbg5jgPP86hVq5akkpnVakWbNm0ki4CtBk+tWrVk2T7Z2dkZVapUkQiKk5MTevfuLVEdbQuPm5ub6Cu2qblubm746KOPFCe+rbCX7f62CuLvv/++mOmzf/9+9O3bF+7u7pLncHR0FAMYunfvjpCQEGg0GonA2opENWjQAJMnT8ahQ4eKFMChQ4fCYDBAr9ejR48ej2VVV1FOsHz5cjFQIiUlRaION2zYUOamiYyMxLfffiteM3LkSFSqVElyZrVYLGjbtq3Ej0t0P7QxKChItgBERUUhPT1dNpE///xz2YLRvn17WeRUz549ERMTA51OJzkPenh4IDk5WdH1sWPHDlgsFtn7VapUCRs2bJBcn5ubO65Hjx4Shg2O41ClShWcO3cOu3btQp06dYo1hjk4OOCll17CJ598InuWnTt3Ijo6GgzDwMfHB0ePHlV3VRXK6NChg8iUN2HCBHGixMTEyCZzamoqjh8/jg4dOsDX11ekN7XtIi4uLqhbty62bNkimXD5+fn1+/Xrp8j/VKNGDZmAEBE5OTmJCwDLsuB5HpUqVUJmZuY4q9VaPy0tDd7e3uB5Xtz1DQaD6J+tXbs2Fi1apDjxk5OTZWdMo9GoeG4mIpoyZYpEfWcYBuHh4Thx4gRsRrPXX38dFStWFJMRHj4WMAwDvV6PevXqKVb802g0krOwChUyXL9+Hc7OzuJuceTIEYwaNUp2ZrUJxMOT0XY+jYiIwNSpU7F69WrZhNuzZ48scodhGISFhSnuqsuXL5eonRqNBp06dUJ6ejqGDx8uGrRsaqwgCHB1dUVERATc3NzQq1evIilWJ0yYAJ1OJz6/zSocGRlZ5LlyyJAhEuFmWRaxsbGSeN2rV68iPT0d7du3F11jNiF92Jjm4eGBvXv3YsOGDfD29oYgCJKMKBUqioQtAVyj0WDAgAGIj48vsa+QZVmEhITglVdeKTK/9eHJbjMWNW7cWHb+vHnzZv6DAltic3V1VTRM2dRuZ2dnxMfHIyUlBR988IHiTk1ElJGRgdjYWNmOGhoaimnTpimeFS9evIgmTZpIhE4QBCQmJipWF79+/TrWrFmDuLg4mM1mODg4FBn9VbVqVfEdVq1apQqrikfj5s2b+baACAcHhyL9hVSED1Kj0aBixYro2rUrpkyZIpl0VqsVoaGh4k5o+46Liwt69+6Nh9kmpk6dKivKZHPVPLxDcRyHkJAQJCcnY8KECaJaWhTee+89ifDYfMWenp5FJtwvWLAAD6vkYWFh6N+/f5GBHzk5OUvnzp2LNm3awMvLS6YWkx3VKMdxkhxWFSoeie+++05WD/SfNDc3N/Tu3Vu0qM6ePVs0/BgMBjAMA4PBgKFDh0rObtnZ2RnDhg0T1cJH/U5sbCwGDRqEnj17Yu7cubhx40axE37Hjh2IjIyUGIps9U6HDh2q+N3NmzfLjGJeXl5o06ZNic6XFy5cwNdff40KFSoo+mEZhkGFChVkZ3wVKorEwYMHERsbq7ib2gIcDAYDjEYjHBwcRJVZo9EoqssMwyA9PR05OTlLfXx8xAAGm6vGYrFgyZIl9owISx/UbClx0+l06NSpU4kn+bvvvivZsW2RTqmpqYrq+4Nkb0k/cBwHHx8fDB48uMTEcrZE86KOEEpndhUqZDh+/DjWrl2Ll19+GQkJCTCbzTKmvcDAQBw/flw2oY4ePYoBAwbA399fMRSxcePG+PTTT8X6oTbDlCAISPl/7d1ZTFNbFwfwP23PaUubDtS2Kg4MghUFRRBSh8gVDaCI0RpAJb6gNZCoCWqMiSY8GANxSvTBOEQxJhpHIKDGIWqIcSSCQ4AoVAUrEUpBVKiUsu7D/Xo+uBRE/R5Mvv1LGl7Kabt7Vvc+e6+zdmKiEKz19fVUVlYmpDl6J2X6r5n6mqiRyWQDlpGGU11dTdOmTRswDJfL5RQaGkpFRUUDjnH//n1KT08ftGs8x3GkVCrp8OHDPhM4/q2lpaVy7969Q7aPWCymsLAwtk8uMzSHw1EA/JMUUVRURNevX6empiaqqKgQCoP3n+UdrkiX3W4v+M9O3AOGlhqNhpKTk4VbvWQymTC0lclkdPLkSbLZbPTkyRM6ePAgbdu2jTIyMgb0YFOnThUmYbKzs2nChAk+g7b/7mpD2bNnj7DthPc96nQ6Wrt2LdXW1lJ9fT0dOHCA8vLyKDg42Gcao7+/PwUGBtKuXbt+eOtcaWkp5ebmDlrL9b52SEgIpaWlUV5eHgtU5uft37+fIiMjhWwdkUhE06dPH3I/lStXrlBOTo5wk3T/HmjSpElksVhIr9cTx3EUExNDHMeRWCymxYsXC4kN7969E3JgrVarMLTmeZ7i4uLIZDIJe8jevXuXEhMThfRD7yM8PPyHJWasVispFAohCL3LUDNmzCCLxUIJCQnEcdygXtw7EtBoNGQ2m+n8+fPk/bHzpby8nDIyMoS9hnxV2TcYDLRs2TJatGgRPX36lAUr8/MyMzMpJSWFgoKChN5w69atg06m27dvU2pqKhkMBp8J7JGRkXTkyBHKysoilUpFU6ZMoXHjxpFSqSS1Wk2bN2/2eYLq9XrS6/Wk0+lo/vz5NHv2bNq9e/eA59psNlqxYoWQ0ugNutTU1CFLzHz8+JEWL148IMfYm+Xk7fGHuqbkeZ4mT55MVqt12E2gjh07RiaTyWfxuX9fI6tUKjKbzXT58mUWqMyvOXPmDFksFjIajcRxHIWEhNC1a9fIZrNRdXU1efNXMczyjdFopMrKSrpz5w4lJiaSVColpVJJCoWCdDodhYeH05kzZ3zeXSOTyUir1QrVDS0WC1VVVQ167suXL2np0qVkMBiE2WuJRDIgYd/hcBQ0NjZScXExaTSaHy49icVi4nmetFotqdVqUigUZDQaafXq1YNuRmhra7M2NDTQ2bNnKTY2Vqhk4Wuizfuj513aysvLE24AYH6OhDXBf/E8j4yMDNTW1qK1tRU8z+PcuXO4du0aOjs7hWoH/XkrPEilUsyaNQsbN25ER0cH2tvbUVdXhzFjxsBut0MsFqOrqwsrV65EampqaP9j1NTUkNlsFo63Zs0aSKVSREREIDo6elCVhMjISL+HDx/S+vXr0dzcDI7jQES4dOkSysrKSK1WY8eOHaitrcWzZ8/gcrkgkUjQ29srvF8vIgLP8xg1ahQ6OjqwYMECGAwGcByH4OBgLF26FJMmTfJra2uzVlZWHnU6ndiyZQuKi4vhcrmg0WhgMBjQ2NgoHLf/31GjRkGv10OtViM3NxezZs1CWFgYq/zAgvX3g7Wmpgbd3d3o6+tDXV0d6urqhv0fmUyG2NhYxMXFIS0tDcHBwVCpVCgoKMCXL1+watUqnD59GjqdDvHx8cjOzoZWq7X1P8aFCxfw/ft3JCUlweVyITMzEwEBAQgNDR3ypDabzX47d+6kQ4cOQaFQQKFQoLq6GgcOHMCWLVvQ29uLd+/eoa+vDxKJBDzP4+vXrxCJRJBKpdBqtVAoFLDZbFAoFIiKioJYLEZycjJiY2MxduzYdpfLpa2ursb169epqKgIR44cwfv37yESiaBQKDBlyhT09PSA53l4PB709fUB+Kc8jEQigUajgdlshsViwbRp0zBjxgwWpL/h/7rx7HY7nTt3DiUlJXC5XHA6nejo6EB3dzfcbrfQQ3hPRLFYLNQ/8ng8CA4ORnd3N+Lj45Gfn4+oqCg/AHjz5g1lZWUhKCgIJpMJ3759g8FgQEZGBiZOnDigzRsbGykrKwtGoxHR0dFISUnx2Zv68unTJ2dhYaFWJpOB53k0NDTg5s2bWL58OTweD65evYrOzk50d3dDJBIJNZDEYjGUSiWio6PhdDqRl5eHmTNnQqlUYvz48QNeu6SkhPbt2weNRgO1Wo3Jkyfj5MmTaG1thb+/P1QqlTCS8PPzA8dx4HkeqampSEhIQFhYGP766y8WpMyvaWhooOjoaGHts/+EiHfzo71799K8efOEGVLvLK9Go6Hly5fTxo0bqby83GcywZ07dyg/P58cDgfduHFj2OuzixcvktlspufPn/9W0fDnz5/TpUuXaPr06cLn8j68E0hGo5GCgoIoKiqKHj16RCP9QThx4gTNnTuX5HI5yWQymjlzJmVmZtLo0aOFChBSqZRMJhNbM2U96++prKykt2/f4tixY6ioqIDH4wHHcdDpdOjs7ERvby96enrAcRzcbrdwvSWVSiGRSODxeJCWloYNGzbg+PHjmDhxIjZt2jRk9cLt27fTunXr0N7ejgkTJmD06NFDtnNhYSHFxMRALpdjzpw5I/4+HA5HQU1NzfYHDx7AbrejqqpK6DldLhfsdjuSkpKwfv163Lp1C69fv4bVakVCQsKIXqO+vp5KS0tx+/ZtzJs3DwsXLkRVVRUqKipgs9kgEomECojp6ekwm83tRqMxgIUUC9Zf0tbWZnU4HEetViu+fv0KmUyG169fw+l0QqVSISIiAg0NDejt7cXnz5+F6zu5XI6IiAjodDqEh4cjICAA48ePR2JiIgIDA4dts6amJnrx4gWWLFniN5KA+PDhw4gDaKQ+fvxIp06dwsKFCxEWFoZ79+5hxYoVbCjKJpj+XK2trUcfP36Mvr4+dHV1we12o6enBwDgdrvx7NkzSKVSqNVqREZGorm5GcnJyYiPj4fJZALP8zAYDBf1en36iBtUIhlRoAKATqcLDQgICPlff+6xY8f6tbS0VL5//z7G5XKxQGU965/lxYsX9OrVK7S0tKCkpEQo1u1yudDV1QWPxwORSASTyYS2tjbExsYiJycHSqUSQUFBkMvli9xu9wU2lGMYhmEYhmEYhmEYhmEYhmEYhmEYhmEYhmEYhmEYhmEYhmEYhmEYhmEYhmEYhmEY5o/1N671XydmOwYwAAAAAElFTkSuQmCC;" parent="1" vertex="1">
          <mxGeometry x="101.23" y="96" width="101.2" height="90" as="geometry" />
        </mxCell>
        <mxCell id="BtyooU0QE-EjIrQg6kgT-17" value="" style="shape=image;verticalLabelPosition=bottom;labelBackgroundColor=default;verticalAlign=top;aspect=fixed;imageAspect=0;image=data:image/png,iVBORw0KGgoAAAANSUhEUgAAA8IAAAA1CAYAAACKlFKRAAASqUlEQVR4nO3de1SV9Z7H8fdmA8qBjYZyU7BISiyUwRKpkN3N6xIt89jpuM40laU5NbNm+UdnVs2qptay1e2UlUVrXN7maJlmXjLNS0cQwmzCKyqDSQ15QMVUQEQue/7YbkTdd/azwfy81mKxfZ7f7/l+f8/2ny+/5/n9TDabzYaXGhsbiYiI8LZ5u5aWFgBCQ0N97utvTICamhri4+ODFlPjNC4maJxGxdQ4jYsJGqdRMTVO42KCxmlUTI3TuJigcRoVU+M0LiZonEbFbGtrw2azYTabXbYJ8fmqIiIiIiIiIlcxFcIiIiIiIiJyTVEhLCIiIiIiIr8Zra2teHoDWIWwiIiIiIiI/GaYTCZMJpPbNr6/JS0iIiIiIiLSTYWEeJ7vNb/00ksv+XLRtrY2t6tvueKYmvZUmQcyJsD58+cJDw8PWkyN07iYoHEaFVPjNC4maJxGxdQ4jYsJGqdRMTVO42KCxmlUTI3TuJigcRoR05sxhtbU1AAQGRnJmjVrWLZsmd8Xc9evM339/ZLAu78GBCKmxmlcTNA4jYqpcRoXEzROo2JqnMbFBI3TqJgap3ExQeM0KqbGaVxM0DiNiulpnJGRkVx33XWYHPsI19fXM2TIEAYOHEhjY6NPwURERERERES6s7q6OiIiIhg2bNjFd4SjoqIA6N27N5s3b+6y5ERERERERESMkJKSQlhY2JWrRvfr168r8hEREREREREJCm2fJCIiIiIiItcUFcIiIiIiIiJyTVEhLCIiIiIiIteUUM9NREREREREpLNOnz5NRUUFP/74IydPnqStrY3o6GhuuOEGBg0aRN++fYOaz7lz56isrKS8vJyamhrOnz9PZGQkSUlJ3HrrrSQmJgY1H5sNfqmHslr777Mt0MMM8b+DtBi46brAxVIhLCIiIiIiYpCamhqefPJJAIqLi6mtrXXaLioqimHDhrFw4UJSUlIMy+fs2bMUFRXx+OOPA1BVVeW0XWhoKGlpaSxdupQhQ4YYlg/A7uPwh3X2zwdPum53dzK8eMfFz52hQlhERERERCTA1q9fz3PPPUd0dDSNjY0ALFmyBIC0tDRiY2MJCQnh5MmTVFRU8Morr7Bz504yMjK45ZZbWLZsWUAL4vLycqZPnw7AkSNHSE1N5emnnwYgPT2dfv360aNHD+rr66msrOSNN96goKCAUaNGkZKSwrx588jMzAxYPgDfV8P9K+wzvrfF24/993j77wEWiAqDc61wtB72noDnt8MTG+HnOrAmwfwxcH20f7FNNpvN5vhHSkoKeXl5zJ07t7NjEhERERERuSbt2LGD6dOnY7FYmDNnDgBWq9Wrvrt37+bVV1+loKCA1NRUCgoKMJvNncrn008/ZenSpdTU1AD2Ij0mJsarvkeOHGHMmDEA9OzZk5UrV3LTTTd1Kp+9x+HRDfDjaRgcA59MsB/3pqg90QjjPrd/viEa/jQYJqZ6H9tR82qxLBERERERkQB59tlnyc7Oxmw2s2XLFqxWq9dFMEBGRgYvvPACaWlphIaGMn36dFpbW/3OJz8/n1mzZtHa2srnn39OSUmJ10Uw2AvH8vJyli9fTm1tLY8++ii7du3yO59vj9qL4NNNsP0P8O0f7QWwtzO7fSNg5zRYmQe/noPpX8OSMt/zUCEsIiIiIiISAM8//zzvv/8+hYWF7Nq1i4iICL+uk5GRwbZt25g3bx4LFy5kwoQJfl3ns88+Y+bMmYwfP55169bRr18/v64DkJiYyIIFC6itrSUvL4+jR4/6fI2KUzDxC2izwTcPQ3on1gZLssB/jYbcJPjHr+DLI771v6QQ7vCUtIiIiIiIiHipqKiITZs2UVRURE5OTkCuaTabWbFiBRs2bOChhx7yqe/hw4eZOnUq48aNa383uTPi4+PJyspizZo1NDQ0MHLkSJ9mqhtbIPcTMJtgxUT7O8CdEWKCG3rB8jz7+8ITPof/q/O+f6jjxe3Q0MCsm7V27VrWrVvnsV1+fn5A4l0LHPe0u9+z7p5nd89PRERERK5OVVVV5OTkMHz4cO68886AXTctLY0zZ86wY8cO7rvvPkpLS71asMpmszFixAj69+/Pxx9/HLB8evfuTV1dHdu2bWPo0KFMnDiRL7/80qu+LxVDdQOsmgSpvQOWEm022Px76J8PI/4KR2d60aetjZCIiIj2KXuTydTpRLwpggFmzJjBjBkzOh0vWNauXdtl+Xp7T7tad8+zu+cnIiIiIlend955h5iYmIAWnQ5ZWVlkZWWRlJREbm6uV7Owo0aNAqCkpISkpKSA5pOcnMypU6coKCjg8OHDVFZWeuzzv7/ChiP294En+bCwlTdCQ+yrSH/7xwvvHf/iZT/Hh7CwsIAm5GnW7WoqgqFriyjNYAaG7qOIiIiIBFpFRQWrVq1i69atZGRkGBKjurqab775hvT0dIqKisjNzXXZtqmpCbAvchXoIthh5MiRABw/fpyxY8dy8OBBt+0/2AWR4TAi0ZB0uLGX/XfqdTBmBdT/C7ib4w0JCem6xbIcRcnVVhCLiIiIiIg4TJ48mVOnThkaIyEhgYSEBOLj45k8ebLbtjt27GDbtm2sX7/e0JwAli9fzqFDh6itrXXZ5u8NsOYw/OVuY3P5pQ7WPwjJFig95rm9Vo0WERERERHxg+Mx5dzcXMNmgx0OHDjAsmXLqK2tpaqqymW7xYsXk5OTQ2xsrKH5NDQ0tH8uLi522e7PBVB52tBUAOh/YfGtjDj4pw2e2wdmhSwDuJopdvd4q699vGl/+eJfHft4mtV2FvfyBZsu7+tNH3/GcTUIxHd++X119l26O+bN9yEiIiIiAvaVmffu3cvq1asNj5WamsqBAwcA+wrVDz/88BVtWltbmT9/PgsWLDA8n8jISLKzs5kyZQovv/wyeXl5TtuV/N3+yPKwOMNTai+GD/3quW23nBF297i0s3OeFrJyds5Te8d5T+8G+xrXcT1XObvrczl/xt1d+TMOV/fPVXtn99Gf70NEREREBOC7774jOjo6KLHCwsIYPHgwVquVxYsXO23jz96+nREZGQlAeXm523Y5/SHMHIyMYOZQON8KJxrdt+uyGWFnM3Ydj7s7N2PGjEvOOYoZZ7N3zvq4i+HqvLN8/cnVXc6e+nhzDX+v1ZX8uY+u+vhbuAbi+xARERGRa8v27dsBGDBgQFDihYWFkZCQQF2d8w1zHQVpenp6UPIBuPfee1mxYgWtra2YzZdWu40tUP4r/Ed20NJp9+Mp6Bvh+rxhM8KOmTlXPwATJkxw2d9Z4eGsSFm7dq3L9u6Ou4ufn5/v06rX3ubqKTdfCrrOjLs76ex9dHcPfRXIa4mIiIjIb19zczNxcXFXFIBGCg8P59gx56tBOY4nJCQELR+HxsYrp2BPNQU9DRLsk9Qc8zAj3KWPRl/+qKqrWeKOLi9e8/Ly/C5YArElkrvY/pzzdiydGXd35Mu98vT/xJ/78lu6lyIiIiISHFFRUYSHhwc1Zl1dHc3NzU7POY4HM6fw8HDMZrPTnJovbHkcHry/E7THavaw3bJhj0Z7O6Pq7LHTQLyX6e4a+fn5l8S//NzVTO+0ioiIiIgEz5EjR4Ia76effiIqKsrpOcfxM2fOEBcXhNWpsBfmcXFxRERc+hxySxtEXajH684HJRUAzlyIFRXmvl2XvSPc8d3bQLyD6WsB2LEYdnWdq6EoDmThe/kK2Q5Xw30QEREREQm2cePGMXfuXOrq6rBYLEGLm5ycfMWxkydPkpSUBEBlZSWpqalByWXVqlUA9OzZ85LjoSEQHQ539oNVFfDEkKCkQ+VpiOkJSR6+jm65fZKvhZend0e9eUfXVVHcnYtAf8ftSiAeFRcRERERuRbU1NS0f96/fz/Z2cavCFVbW0tpaSnvvvvuFediYmJITU0lJyeH119/nfvvv9/wfByGDh3q9HjohRdxv68OWiq88b399+A+7tt1y0LYF968V+wNIx7PNlKgxt1Rdy76RURERES6k/j4eDIzM5k0aRJPPfUUe/bsMTxmcXExN998s8vzMTExgH1bp2Coqqpiz549FBYWumzzlhX+7W9w7CzE/S4oaZGV6LlNSEtLCy0tLbS1tRmfkZc8FaHu9or15lqe9t/1hb/7+HraGzfYj4p3NV/ulbNtsLy9loiIiIhIoMTHxwP2gtDVlkaBtHXrVuLi4hg5cqTT8xUVFSxYsACLxUJZWZnh+TzwwAM0NbleGrrpwoJVISZ44AvD02HXMftPvofJcJvNdnHV6GAXwh2LWUdh481jvd7sP+zpGo5HgDtTSHnzWLWztu7i+FPA+TLu7qiz9zEQ91BERERExB+nT59m0aJFpKenM3r0aENjlZaWsnTpUubPn++yTWpqKqmpqdhsNsaMGWNoPsePH6e+vp6RI0e63Le4hxmy+9k/f1dt/HZKfz0AGbEwINp9O5vNRmhoqP3p6EAXwv4WJO5WdO7Yxtv2EyZMuOLdV29iXB7H4fLCzJdcneXgzd647vq7iu1s3MHi6x8S/LmP7vp05dhFRERE5NrRq1cvwF5YlZSU8PPPPzNgwICAx2lsbMRqtXLzzTe7fTQa4ODBg2zevJnBgwdTUlJi2LvLb731FlVVVSxevNhtu/rzsPEhiPkAcj+BPY8akg4FVbCkDIoe8dzWZDJdnBEOCQn+lsL5+flOiz5f9991V2x23G/38iLWXT9nhZe3+XhzztV5Xx6J9mfc3VWg9lx2jF1EREREJFgKCwtJTExk+PDhNDQ0BPz699xzDw0NDcyZM8dj27S0NNLS0sjMzOSOO+7g22+/DXg+hYWFfPHFF2zfvp2srCy3baPC4cBJe4G69wSUHA14Omz9GayfwvXRMLC35/YmkwmTzWazOQ6kpKSQl5fH3LlzA5+dAMYsciVX0n0WERERkWCpqqoC4PrrrycrK4vVq1cHZB/f1tZWnnjiCRYtWsS8efN4+umnve4HcNttt1FRUcG6deu4++67O50PwNtvv83s2bMZMWIEJSUlPvW9bQn8cAw+uA9m/UNA0mHDEXhgNWTGwaYpF/cudsVR8wZ/GlikkwK52JmIiIiISGclJSXR0NDA119/zb59+5g6dSobN27s1DXLysp46qmnWLRoEe+9957XRTCA2Wymrq6OLVu2cMsttzBlyhTKy8s7lQ9AQUEBs2fPZubMmT4XwQD/8yd49Fb45y1Q/Eun06GsFqasgawEWPOA5yK4IxXCctVxt9iZs0XYRERERESMNmjQIFJSUli+fDlNTU3MmjWLnTt3+nWtQ4cO8cwzz7Bp0yZWr17NM8884/M1evfuTXh4OCtXrmT8+PGMGTOGu+66i+bmZp+vVVNTw6BBg7BarWRnZ/Phhx/6fA2HhWPh9gT417/ZZ4hPNPp+jXMt9kehMxZBsgU2ToFYH7dmuur3EZZrj7eLnYmIiIiIBNONN95IbGwsH330EdOmTeOxxx6jV69evPbaawDcfvvtREREOO1rs9nYv38/kyZN4syZMyQnJ1NcXExSUpLf+VgsFiwWCx988AHjx48H7AWy1WplyZIlAPTp08dl/8rKSh588EHOnj2LxWJh9+7dDB061O98HHZOg9Jj8O8FMOBjGBwDqybZz7lb8fn4WXjkS9j+C9zaBzb9Hu5O9i8HFcJyVepYDDs7JyIiIiLSFSwWCxkZGezbt4/y8nLGjRtHbm4uAMnJyQwfPpy77roLsC9Y/P3337fPHLe0tJCYmMiKFSvIzMwMaE6FhYXU1NQwduxYvvrqK/r27UtcXBzTpk0jMTERgPDwcMrKyigtLQWgubmZqKgo3nzzTaxWK44dhwJhcAy8eCe8XAwFv0DaAggLgUfSLp4H+17EX/984XMLnG22F8Ebp0Bf539T8IoWyxIRERERETHQ8ePHKSoqYs6cOVRUVHDq1Kn27WuHDBnSXvS++uqrJCf7OcXpg4aGBn744QdefPFFDh48yIkTJ9ofmR44cGD7rO+cOXMYNGiQ4fkAHKiFPxfCvhNwtB7OtdoLYwDrhUnx/7T//YA7+vkfx1HzqhAWEREREREJMsfKzmazuYszsWttbcVms2E2mzGZTF2dDm02+4/JBOYApuOoefVotIiIiIiISJB1lwLYobvlE2Ky//ijw1zvJToW+Fo1WkRERERERH4zXBXCHWlGWERERERERH4zTCaTx8e7L5kRjoyMNDQhERERERERESO5K4Kjo+37M4U2Ntp3MHYshd2jRw8aGhqMz05EREREREQkSBwFcltbG6GODZ2bm5uxWCykp6dTXV1NdXV1V+YoIiIiIiIiEjCxsbGMHj2apqami+8Ih4WFUV9fz6FDh5g0aRJ9+vTpyhxFREREREREAubYsWMUFBQwYsQI/h/26isiV5q0YgAAAABJRU5ErkJggg==;" parent="1" vertex="1">
          <mxGeometry x="82" y="37" width="663" height="36.53" as="geometry" />
        </mxCell>
        <mxCell id="BtyooU0QE-EjIrQg6kgT-41" value="&amp;nbsp; &amp;nbsp; &amp;nbsp; &amp;nbsp; &amp;nbsp; &amp;nbsp; &amp;nbsp; &amp;nbsp; &amp;nbsp; &amp;nbsp; &amp;nbsp; &amp;nbsp; &amp;nbsp; &amp;nbsp; &amp;nbsp; &amp;nbsp; &amp;nbsp; &amp;nbsp; &amp;nbsp; &amp;nbsp; &amp;nbsp; Placeholder" style="rounded=1;whiteSpace=wrap;html=1;fontFamily=Happy Monkey;fontSource=https%3A%2F%2Ffonts.googleapis.com%2Fcss%3Ffamily%3DHappy%2BMonkey;fontSize=17;fontColor=#000000;fillColor=#CEEDC7;gradientColor=#DBF0EB;fontStyle=2;labelPosition=center;verticalLabelPosition=middle;align=center;verticalAlign=middle;textDirection=rtl;shadow=1;strokeColor=#82B366;arcSize=40;" parent="1" vertex="1">
          <mxGeometry x="271.25" y="186" width="281" height="30" as="geometry" />
        </mxCell>
        <mxCell id="BtyooU0QE-EjIrQg6kgT-43" value="&amp;nbsp; &amp;nbsp; &amp;nbsp; &amp;nbsp; &amp;nbsp; &amp;nbsp; &amp;nbsp; &amp;nbsp; &amp;nbsp; &amp;nbsp; &amp;nbsp; &amp;nbsp; &amp;nbsp; &amp;nbsp; &amp;nbsp; &amp;nbsp; &amp;nbsp; &amp;nbsp; &amp;nbsp; &amp;nbsp; &amp;nbsp; &amp;nbsp; &amp;nbsp; &amp;nbsp; &amp;nbsp; &amp;nbsp; &amp;nbsp; ********" style="rounded=1;whiteSpace=wrap;html=1;fontFamily=Happy Monkey;fontSource=https%3A%2F%2Ffonts.googleapis.com%2Fcss%3Ffamily%3DHappy%2BMonkey;fontSize=17;fontColor=#000000;fillColor=#CEEDC7;gradientColor=#DBF0EB;fontStyle=2;labelPosition=center;verticalLabelPosition=middle;align=center;verticalAlign=middle;textDirection=rtl;shadow=1;strokeColor=#82B366;arcSize=40;" parent="1" vertex="1">
          <mxGeometry x="271" y="256" width="281" height="30" as="geometry" />
        </mxCell>
        <mxCell id="BtyooU0QE-EjIrQg6kgT-45" value="" style="shape=image;verticalLabelPosition=bottom;labelBackgroundColor=default;verticalAlign=top;aspect=fixed;imageAspect=0;image=data:image/png,iVBORw0KGgoAAAANSUhEUgAAAawAAACGCAYAAACBiL5IAAAgAElEQVR4XuxdB3gUVdfekh6aNMEGiopYQPxsqKioIGL9xP4J9gIIWBBFFBGlg0gvotJ7SWihQ+i9l9BDLwEC6cm2/76TfZebYWZ3NiRA/GeeZ7LZ3dmZe88997yn3XOtFvMwKWBSwKSASQGTAkWAAtYi0EaziSYFTAqYFDApYFLAYgKWyQQmBUwKmBQwKVAkKGACVpEYJrORJgVMCpgUMClgApbJAyYFTAqYFDApUCQoYAJWkRgms5EmBUwKmBQwKWAClskDJgVMCpgUMClQJChgAlaRGCazkSYFTAqYFDApYAKWyQMmBUwKmBQwKVAkKGACVpEYJrORJgVMCpgUMClgApbJAyYFTAqYFDApUCQoYAJWkRgms5EmBUwKmBQwKWAClskDJgVMCpgUMClQJChgAlaRGCazkSYFTAqYFDApYAKWyQMmBUwKmBQwKVAkKGACVpEYJrORJgVMCpgUMClgApbJAyYFTAqYFDApUCQoYAJWkRgms5EmBUwKmBQwKWAClskDJgVMCpgUMClQJChgAlaRGCazkSYFTAqYFDApYAKWyQMmBUwKmBQwKVAkKGACVpEYJrORJgVMCpgUMClgApbJAyYFTAqYFDApUCQoYAJWkRgms5EmBUwKmBQwKWAClskDJgVMCpgUMClQJChgAlaRGCazkSYFTAqYFDApYAKWyQMmBUwKmBQwKVAkKGACVpEYJrORJgVMCpgUMClgApbJAyYFTAqYFDApUCQoYAJWkRgms5EmBUwKmBQwKWAClskDJgVMCpgUMClQJChgAlaRGCazkSYFTAqYFDApYAKWyQMmBUwKmBQwKVAkKFCogDX34LqWOdmWMkYpERLqOVv/5gd6+7neY/Rel+u6ydtXD3CkukuHFredlZ8ZHmo/zffol9NhLY33AfpY6P3bkbr37iNnzz2tpo/b7bmIF9BmtPe6ksUWVC9dbZsOTYNqc2Jmws1nnMk1c7IskbhfWIQl0+YOyXK53Bc932NzRuAawUPKta7QrOJ2R0RqeGhI8v2lH5pVEO0paD5B/1xuh8Lz2e7ILB8PuDIy+H+WOzQ63J4V4bJ5lH7hyHA4ikeFhqY6HZHJOrQOis5yvzDmeB8V4kwPiyiRiv8rWlzpxy326LTzp0ugPVp0iAwNOXFb8dt8fOy9Jt/tCJbWoGWGMyRabjfugTbLtMT/hdHWY55jZVOzkqrh/iFuWyaf6XQ6FV6Vxw/vdcYuIL0wPpmWpNtxD8yFqLAwZYyUZzhdVvIGP7O7rZnF013br7vufl+bLvfY4Hkbz69tUDIyo6x6XN2quZycHZZWwhp1qGrJmus0eCAgfeTfFBpgQZCfOn62njs8vIpRRo3y2JZUuD4y5rkqD/URv2FH1B0KqoNGn52f63Zlbq69YtvRzu6wiEeN/t6anbmiXIlyC1+848H2On0s1P5hXLJC05oYbS+uKxbm6Ply5fqtVb+R22m4zTN2r+uQEZr8E+5lteWP/WwOx+Boe9kEodyAT3jkqz3B0CHQtSuTVv4vzZ1ya47FgrHN1yEQrHXZsGvWVL/mwaUaQsgwnflw8OixtFMPueyO7sE2yOawty4eXmz/A6UenapqS9DtCPbZEOJnXYcfs9rSBhr5bTFbWGurQ5Nu+W7r/pz4xsnOc8ONPB/XhLgjWjtySu0QylRcMGOH56S7zxp+jnJvV9gvWY5SWzXGBt/mu89G+7o1Y14rqy3ltnC741Mjv8nKKf5LdnbZtRJt1O001Ob8SQwDLRy3auW4M47MNw1cmueS60tHdnrlrlodvERHJ2TgUr8P9vYFej00jA2JqTODvWlxT/iQN+59tIXURw4e+6cH1sE+6qLrJ+6aOzLHan83mBvZnDlj377zuQ8CtNcQw007NKd7lsvWSn5+foDL7szu9WqV5783wB+G2hUMPfSunXdyzs+XAla8b0lnxMuPXf+EWujlizfAo2dcSUHzKNvizrR8H2WJ3ultj782FCidAbSnHYeWBDMuzpQS7z1xwxNjJbDQkheG2unxHI7clpnQLMeSERTQRzujPryjRN1RKsDyO3brU1e+Wjzs1MPZHve3gfvrEpfYlctc2SG/Zp0uMfLhKk8kGpgHgW9t8AoAbIbn+HPhNstbBn9iSc+I/jX1WOSo2tWe0WurIZl31QFWheKhXRveW/tXSTi6vf/zVT34RmlW4NdhUi3bfSaoSYVGRNqzxr1zd4OPpT6iT1r9xOWGJpjRzuUHsKw52XrtDXpMtACLbQ8GuNyZmUNLh0asqFul7jgNXsmXcDdKQ63rwAuHUk48JQOWcLNabMKK5KvR+0ekWl99+tZ6s1X8wT6B5uSLgLwBYZjsSJ5s9Nla13kyLS3WjVgyqk2bLnBryryqFjIB22O0HfvSt95/wpW41uj1uC4jKeJDwQ8yYGnxp6E2ArA2ZG5Q3Lguj8tit+aCRKDDlWH74cGyL/7hZ+w0BfPmtDnf2kIyuunfH0AlH2iPy5KZFo7n9dJ4HvtOXgnUdEPfY1wy7bs/MWpZ8aZpZ6I/rVnhxTGqdqKN6jHiTzTH6aoDrJJ2xx/vPvJsV29HMEo8ndJn8qQxROjCuGhH6obHV+4/Fx/svUPTXSMaP1IX1gH6hgHDK/on95d9LFCGG7VtXqw1zPZSMG12paVObnzfK194mU09JuyDzHx6t7dO3hs30GUP+Uz3Aq+b0COEPQFM/l/+nSPl/IB37mn4swavsE0ycBkSVMHQRb522blFnydnZudxX+UHrHDP9H1n//fGI2/PVdGbfKLVN91mrz23vOF59/lJ8gXZDrslPFQtAP33PO1Qzuev3PvKBIlH2Z6glRYjNM4PYJ3c62jy6n2vTvTyg9w+mUcNKbzHjq2LOl7qaLoMVkaAK+Vk1i91bn6zv8ST8rjpjZ11++m1D9iLHX3dYfHk8T5coJX2eGWdz+6fuN0z9fWn3t2gMzYFCly7s2O7WW2ZBizBCy1PPu0cMLLP6v59O/c9oxobWZbg/4Ayr7AAyzp25YpxZ51ZbxhhTvma8JzUgR8//TI0FHTA4RXkQnH1/U/BLk+UYB9TENdbtySveXztobTFwd7MczZj3Md1Xmjv7Rv6yf6hv+yzmrmDfYzW9daRW+fG2sLtLwZzs6yzZ6d99PDrmEigOeiPE+1Eu/meCoXshpEfo/CaUcAy0r70k6eGvv/gOx0lXiHt8CorA3ptMvIYQ9fMOR7XPsdiBXj6DhmwgrGyjq8/+NHHDT5d6KU3+0Saa/G/LhivO7v6+XOWMzPQqPwAFTtz+uDZjumJKcs/+m9TCEa5TUGDgRGC7jq/8YHT1iNrjFzLa/atT/6qcZ3GiLdRAVTTTG4rfqZHN+ue1D1lU+w7ThGk8IojkKV1Yv+5Ls/f/d4Q77ygDNOjF5uOuWFNSJnX2BGW9nfePgdWLI4eyOxUv1qjAd5nys/inCwQWQn3cmjEvkbBuAJPnU6beTrRteTlWp9hXEBvghRlnRZtdOdrYQCWQvyJW1YMOHU+S1eT1mNET8qZ2C+ef72Hd1JkY56JE9kwyLjie3nS+mO8YPg9mGsVum1MWvnEhmOZi4L5Ia7NPKL0saf4l0DF/qGPOGUgkLWOYB8lX6+MiwCsGEuI9UWb3WYR2TzK9/jf33Hu6LF5zeo0+sXLbBgDtA9txsn3BAnOMLUwUJ4/afesge7QUM1ALSwqWFM8AllYpw8cmXp6+/64n5p1gGBDO2QekWlI6+9S6Kf7W1jah9NOCndgXsDiDwBcwRybZ6z95oePfoSrGXyOfsh9k5U3uV9awtcqAKsBASuYNmhdm7j50G8f1/l8pNQmtIuCxygYGGmGogym2k8uNnIxr1k3Z3+7lq+3RPYolSnKCy0e9afEWDef2FzOWSLxpAxYAKtAFtfudYf6vf148xGqNpAvMXY4ZWUUzQeD2CYsmFD+hurWVsWLW7/MjVMFBiv8+MSRM1N2b8tc1uyVLxGrZJ/5LCqUlwxa+bGudm9LGvt8zebwPJBX5bGR5yvaTUVD1woObiYF5h7ezyYAqz8By+1wW2yh/oUib51x/PD8b994708v4eFDThdnmvfEewhJCiOakYXq7tHotiJ81x9Z9uCmMzkr8b3H6bZYQ4z18ewupY9Dxc8IUOwf+oqTfcTgGnG1BR6Z3ElhHbdz9kiHxf4OAYtgBfDSA65Tew8s+6rBx8jIk4EKqbdoN8cEDMfJoSUMlEkpAGuAHmAZ6oRK+B/dsmXMly9+/Y+3HaAdeYbAjzbTLVMYfGJdeHJOq3S3x0/8QXRcancgayuu99Qf+3UatFm0G+OP/rBP5A0K4EBWuHXliaUvpIelTgNtaWHl19JKWLtveMqR81sEmML6Y7sodGSF5VItWpsArNrBAta8Met/b/95+wVe2QEakR/YVgJsQLqtP7yiiqVM0h5aVnq8qba4ti3fNf69uq1He9tApU6eJ/hMnie4NeYGECpk+b6J79mKZdUqVjIyqMSoHeuODn/zsZaDpXGRZaXsccjX2OzNXPRelu1k/WCsq927ji9PWJu06ZsPOiHjlZYVlS+0D3ThGIGPqPzoyrzCAKxcbWHT8v5JqdmfBgNWGLnUA4c3f9/4vWHiXwwsOpQiznPek0KSnZPdUHo8VRifK8I/fs+KGnszsjYEAiv198c27lr10/tN4GvnYJ339g99xf/oNwUBhS36cSkCF2hqHbF5ToyIYb2AmxkBK1x3aMuOjW1eU7RGMBvHQB4TfIbxIsOprUKFXnjkxF0zBnjCwj9xuwVA2owBvNYA0vras3rj3N7Nu40/eTIJ/nHQjzSUhTst8nxN1gAMZBXuQJEdqG1dyb81ammN/XlY71GDxu6Q6C33C7xBQajWSOXHKTRfcWpxw4yQjAlaIMXPXGIs7AbHYm3chkGxg2fMW7Vk1RGJF+ghoAvOUJzID11tAmifd0edU4DW6DG5/6Jhv7f5fbmXPhCI5AXwJ3mUoKUnFHOV0cMrbvEHWLS25Lbhs1VxG2c1a9ge7QZNwIN4LuY0TirftJJp9WAihIgzVJyR83cPb3PtTdEtjfYb1yVsTlx4bHfK1paNOsR6n8k+UynOt1cKCSh7cjb8Emzsak7MztlfvP7LPNBTnARpKuVoH2QIxogKO61CdTKGjxSFBVj2McuXjjmTnf0aLCuClvpVa0DO7Nyzp92nn033Di46lCxOCKMk76DjMzCjzHiFIYj88YsifOdsWXjvYYdbWQxH6yoQeOHaw1s27G7fqBVcF2Qq9A8LNLH4GCeYmxoShRJ+eqmAZRuzbdZIlz3Ul44qW1q0stTW1t41G3f9/G4ruBswCQlUaC9OvgcjUvNXux8IWPbxCdMHWMMjkCEpsucKBrTi/4kZ3699P2j94BWZhtRs6SeXA9D+xtfwd0hqOHYutZYt3PKN0R8FAq6R7f6eMm7w+O1eeqNP7Bf4BPTmpPfXL4VH44/Ofy0rPAuZlL4D4KQGqWBAa+GIZQM6fdkJ/IB2gVfBx2iTnsvLKGlwndLuZccXNrRGp4/HBy6PU8SOQnyvejcb3mn69CFdhmwU31MAgl7gB9KQYE+3HD008i0VXl26c/6tUZXSdwWysNRtWTRh1YrvPui22NsGKqJoB04Cl6yMYk4TsMLE/9FDZw/87403W5++rlLZV4Ih3Mb4hHnDey+YsWDWol1Sn6kU0wMStFcKGYxR4ck+D4JTxPNCAmRNxi9I2NTqrd+XnjuXgjkHmtK1TeWLch2v4GnwEOmiawEXFmCFCMAaTcAC0Y1aWkk7955s/+mniAuhA2A2CMWT4jzhHXQMvOw2KyiXWTC8oVgrM1ZOuf1EWAlowr4DwAXQwiGDmPx+39pVRzp9/ANciRgoMDH6h/OUOAHM6DfNZWomuMWlABZcDrbhG+NibBEhDdSd1XIHMsaVsGLt4Y4f/QDNFSBKIYDxwEmgBSPKEzGXCLltJmCFjNsxbYAlPPwjfEELK7/ARStrw+wlGzp/1iHG2xbQECeBH3RUa27q7uf3vSF3oNbNmZCRS4e803DIN/2XxI6atld8BT4HfcET7BcFH+YH4wG6Fu28ffMauUtm+wL5arACUOEwamHh2viJy6YfTzi2dWivYcu8dCYfU5un+ydYRZKEsAugbRhSPDMP0Mp0JIjJnw1sO375qL6jEsRntKxAM8wr0hCfg6Zop2x1y7dRAHPBjiU1SlVOXh8IsNSW1qxhi7e1b9ZnvbcNEMaUX2gHlSnZQsYAQJ7AugJgFRdnsYkr+7a6o2bFD7R4R/7MLbphU4yz3GP2hI2x3zbuiGxO8AyejT7LHhA5ESPQ7S2Iz7rDdjcJxhW4YknCvh0bTp3v+u2A/eIBHFPyBhUI8jReCVq4BrS5rIAF4ttHL1sy5mxOTkNQhPErI5bW8a0Jyb81bQqrBYQGwcF0x7wnBToGAMJTK4AZcBAK4AIFsGKWTKh6Oro0NGHfIQMWPuR7Ob61e8WypK5N2m2VBgr9O+49Ccw0lalFBzv51d3MN2BtW7wS7UVMBcKfE+Go+B8nxgTjRKuQwVM1YCl8oQYsh8NmCQ3lpcGPDEBrVez8hKE/DVh4/nwK6Aj6gZbyRKDfvECVG6Q+b7UmtTbiDlT3jCClFc/q90WvLXETZyd66U1lhvzBfoE/ZItWJqLPBasGLLSDoCX/LwOZEWtr3siFk7u27AElAe2hEkPLL7+Bfp8lLgDrVQKWGpzk9/L/vVuN3DZhyAQISfAiBCNpRhpSk6f7Gu3EISuCPu9J2VtT1wUCLPW4xgyad6DTNwN3is/xLNCF8os8CXpR4WaMGs+UAav4Vz998dhjL93y+u333PQMnqEGJvVz+f3a+O0bVs4/tPbP7n9B6Ue/aV0SqNXxLL+TDokWLmuaL41dy7JSW1yzpm5MbPlG1z3ixgDg3OZf8ApQeaARQuUS9KJr+bIDVsiw+PhpqS5HPZkasntQj0pHNm5L79yixW7vgFNDOiTeHxYnhBE6Sk2JZm6Bu3r8jmKuRmSbtiau5il7qKHUWxmw9qxek9bl0+/3iXtQ40I8ACcAAEIX/ebkkuNCl2ph2YdtmBVjjwx9Tqt/aiuLFtam+UtTejbvgPYCsDj5OSaYiGgvJgbdmOq4myIExBkydnvsAGtExIewrmBZ4ZD/z8MvBuMq+M2Ydv0Wx4yMRco16AdaytYfJgLapusbDzDeml/DHXgiMzXPGqf83EcGL/y+d5PuB+fHLEA/wOegL/4Hb2AOgP50DcpALCs0PsCas2dOY8s1jr9wX6crVFl/RUCidYXvtNyEFo9gPSvkqDjk/8XbhROWLDt//Nzu/r8MwnoxWjHU5hmjUWfDBSKPD7AE0L4bVS7rb9kdyB/DPah1DGr91+GRg2JAJ8wr0Ijzigqv7G7XUwSVBAjh7q+RH8Ca0GfWqR5thh70tgHghPFjOyik6T0heOCZ6BQtLFhZ1w6Y2vGjR5+r4ku+gCUFYOLB97KFhe/mTlwf/02jzrBOCZKM72IOwIoJlHSiPIIVLexWly+EAMAiQGm5BhfO2XxiRdzutOH9JwMgwTyYc2g0jAzwB2lAviY/Q37IFrpmVmNhuAQV81YAVqwasEAEPWuLg3B4w9bMLi1bJor3ENjsHIQjTmpMDGCS+Fq+aN/AFsI/CmBNXTH9vjPhkauN3p+gtWvl6sxun7eB8KFvGwyN/pGxCVgYYNntU6iApdePDXPjM3q1/A3tA9PRFYhJic8gDOjukONucnr7RYCl9yyCl/xqhL7LJkzb1ee7vshGomAn8EOjo+bvL0nByGPyXCOyA79ldqDTJfz6djGZva/B3Ey9XqvXp11PLpy+CLyO8ZfBCjyD9+AbeYLrxgzjEuIa28q6kJGqeWhZVhdZWCqwUsBLHPNGL52/PGZF/LKFK1AYGTzAmDNdw8Emu/hcxwKw/hdeVr0mKW8XZOACsPX/YUzS+P4TQTfGhEEvnFQGCfT0zqB9as+FMrcXbY97OLpyJus5Gh7Ocb1mJP/+498ETVpXnNuUX3KSAecJky6KiYehGHH5+i/Xvadxq6ffveuByo8FaoAMWptWbt+TsPbUpo6t+yPOyFCDlnWpu2SGiRaydeWvDQSySUOXH/+p6QDQGYWrQUvQGIoVeYM0kL1mdAkyJV9X0SlIwPL5n0XjYGFpAhY7rZfmfmjd5pyuX32FAUcH6d6BcMTJTjLwTH/n5QYsxb02aWnMfeeiiq3yN5BaLsKEFauyuzf5gVopBpeAzAmGfjODhvGXS3EJKlojTmFhTdWzsOR+yOu0NsxZnNXry45oEzV+/J/oPTFWeA/tla4OxjBwS8aw8lhYgSagj08MWllLJ8UdHtZhyJrU1DQCKdpF6w8CgjGfAskshTtwi+fUdw6brZ0WWHm8C02tfoLTuIbfyzGtfs17Js+ZNA/CDooZ+kGFhnOAcUP6/HUBa9aBac3sxW0o3WPoYCxLF7QIXl7Qmj18cWyPr3vBNQhao13gZ6aRB1qbp26TD7A2J81sfD4sB8tbDB99vxt1fuKgyaAbk7TIC5xXdF2DH/Q8F5cEWGN6Tkv9o90wtgGvGD9ZuYMMY6Yt3eeYI5ifsEiivCeqoJfrPb79B0++fIfhAgwErqXTN6xp12TQxNOnz0K2MMzADGRZpmh6p7Znxv1ss59trya+loUFSwvH4rgtp5fNTMgZPSQW9/ea5r51tFQiqIBRlsMKVcu6y5LWHjRgaWUNHly32dHtq68osAlYiaJTONlJIDIzfuQAr2HmvsQLDQPWRTNSJGUkrFiZ071JW2bZ4ZWAxVf2Hwx2RQBLbvf6uEU5f3zdCQCLiUZTnmNCYCBgQVjpAVbomK0xA2xRkQGDyWq6aaXA221Zwr2l7ECiHHEDR277p9uIFV560hoh0JKWjBtcigJgWX5y+bunHOdGwqrCAdDC+msZoAKBFr632y+4t1wup/L7vl/0SJk7eT6zYml1U2kDvQkMsgtF7RJUBK8RwFLHtC6aG2rXoHTB/PErVpw+kLRtaPe/sf6JiSGyQCZoGaG3D7A2npj+XmqkExUjNA85axDWFY4+rUemTRo8hTE1vJJmdF9TOAYCLPv8zTMeLnFrzhK95+t9PrpHbHrvn4fTcwLeg8zCXKGygfFjdrAMWEqMV5zYcgZMjS1qSlesWP6mjkObffifp6vWCbYt00esn/fjp92xfAZtYDKXnN6v6RpEXUyHbWdT2RVo5NkTBi9L+rn5QMx/uDbRH9yf663IG1TAIEfU8Xq6knUtvytmYYEAWlaWF7AYWCZgHfAOugxYJHyRAiz0O2H1akePpgpgUevAhKIWRo2IKcNXHLDWxS109P66MxiOFhaYjWPCeBGzNwsFsBR+8VpbelmF8WOmHujfdoAMWGgb2srAs7zg1ogA1ZunSnbgeYfTl+rLYiFGAEsGMlpZdnu2xeUKV57Xp1n3tHlTFsiABfAFXySKExOeQpmApdZI6YLNA1iIYYXYc915gY48WYNea0r5DWJaKitr3phl82KHTJ+dsDUBgXbMWaZvy4v8NWMSqnYYBiyt9vf5dmT6pCFTOKcIWKCZDFhUdv1ZWPkGrFHdYzL7tB9BwIKSh/HCXJEBi7E+xuCZ2g4hDybAWVKcpcR5bcf+3zS8/vZS1WvWvu3+QOMmf79q/o5ts0ZtWBg7bgbCFmgLAZueEHWZL+Xn6kQLvWfS2sL3C2duTv6767y09as2wrIC8KJPkF3M2KQsJ2DRVcnxgNzwV3ggl/2CIUCAa4OysOR7yckYB9ducnb7+msSVtZQMOg0J9FJ5u3rpacWYNcuulW+LCy6B72ARaamhaUGLAaIrxbAwpioAQtjQgur0AELoyBbWh63yM+zMRHJYlkyfubx4R2HrhVuwURxKd1AaB9pLcdW8p2oI+rMlduftrdZhsv9MzlDrm5F0CIwKRPN6xpUf6ZlhfX4sFN6fNwSrnED6KIvsoXFzCrZJSj3RxOwgp0QCmh5wcrlsYu1UAy3XHynOSPjp3b/8vcp3jnKZCKtzDT8WC8WGxRgqa2s3t+OyJg8ZCrHGjQCzcALasCiexigpRXDss/ZEFvrmqqueDRWK4Vej5bj+87M6vn9X3qAxaQqrl2Tk8Y4ZmBoCH0kXmCjSrgGK/wzq8Nn9z11+1PBjuHcCZuWftu4y1jxOyhuTHDgujm5soRCB61ECyPPHDtwSXKHloMx3nR5QC5DYeEaQhobcnYxl2jIaf5+wztXDLAIUiCGbGlpABYIDaajcESHZZdgkQEsDrwKsDBosutCbWHRKrgki0A846IYllu4sWxel5Y/pvRaWFcNYMlAhbR2tzPbB1yTOw/dMn7IeGRu0iqhRYL2c2LIJa+MzMc819AdqPXDAGUZ8/wEIKYFahJgQbAxaYDCV21hoU+GLCw83OWG61LUxPO+Buq8D6Q0LCuftSVusnDiymWHNx9cN3LgWLjRmLpMwWh00SoBK1RkN/4vsnyGkt1o9NABLFkRpOfGMGD5W7SslV4/sltMVt9fRjBLEQABhQPyC+2gsNYDLPQfPmKcSLzAWVqc5b/u1OL56g+UeyhYK2vl3O07Nqw8tmlI579QcYIxXTyfyyJ8y1BQ8Dc7dMtvbmvGp6FWGHvCRHLbLWE2fUUF18C6+vmzv9NPnzrNTEf8AMoUXK8MfchZ0HLiEK5hsoWcXaw57FcMsNgadaq7F7CoXcoxLDVg0SV4xQALWthBZ0S8EaEvU98LWFwUzaQLeWLRjcW4CwY0v4AlW74XJV0YAa2rDbBASz234OIxUxIHtB0ItyAmCGiKV6bic9U/6wvmy8pCdqDsDpTHFoCFmsJGgEsNWLgPPlMBlmxhJXqFnuwS9AdYdhHDahpM0oWmlBAf+rOu+JsFY5fP6fxFt/HiPeatvDQD7h45jVxv4Z0PsER247vRFbN0sxu12hkEYHExedAWlhaAycA1ru/M7N/9W7AwHD8AACAASURBVFgALS3AYpcUxVKciGXhhFsQ8axrB07v0OSRurc/rTdGep8vn75lTdPXO43x8g4zeqH057FsErJiuuZYU33bmwC0HB63heCldf8V8TvOL5y4NXP0kGkYO7Yd8gpjjmQKLk2i4sUsY8g/gCZ5g2Phd1FmYQEW0tpjtNLa/REb4KUCLBCX8ZKrDrCQJXg2PFLJEgwGtBJWrXL2aPYj3QZaFlahA5YRoOJYFTRgWcLDPgiGXno8o+UeXBm74GTc0KmbErbtQjwFgMX1e5go6uysoLNLj3mOld1ybFPzTI+nnbpdMlgZBS2tvvX8qCtdghBsBQJYasvKqIUlty8QaK2MW7U+6UB6Qp+f+iCdmgF1CC1q0bKigFurXYMFCVgA9UQvDzCZiRaWYcDSWrRMmqjT6vFew8KSY1j+LCzeVkmWESdjWXALArTKvfPxG4/Ue+ueBjUfu+0Bf3JU/d2m5Qn7Du9L3y8SMFABQ16bxdqGTlFz8sXixY839NicbxKoPJ5QxbryB1qxY9Ykf/9+bwAP0vE5pgAhVipiGru8ZIfxWTlxTmuJwUXdLDTA+mfx4tg0t7OuUcLS0jq8aQtiWEw/VSddoNMwJ4HOV9zCkgEL/aQQlsFACxg0AItJF7SyChWwRPFbZeEw2msEuAoasLSyBI20AwBFd6D6VeazBf+M3zW4w9DlXmHFbEHwjewKyVe2oD93INpA0EL2INx9RoEL2YLIEsRR0IBlifb0ghvwUo9AgIX7L5q0esmGOZvj46bMRLUaZqaB7qxiQLePlseAcZyQ9cemvZce7UL1ccOH18Ki50KddIE5FgiwfLE/xrC0Fi6zQYyhKePuXcx8CYBF8AZYoR2IYyGeBbcgQAuuwQoDpvzy0aMNqj5vmCjeC5GAETd6w4KYsTPgLqcF7FvovT1tSgdbWObXACccBC3+z+fJ4LVi8Y6UiX+uzZo9cS5+hNgV1zkCiGDBgd6M29ElyGQzvWxFv127agCLrSyKgEXBr6a0nhXhB7AIXFzXVCguQQCWDFYEC/Ur+1PQgJVfC8sqkoiQZKEGK7gH8R0OfI81WX2/Vap208KiZivXLOMWNcG4WpXK7HKyhTzmBCtFgEmuQaOgxXsVJmDJlpU/K0tej8V2GQEsXOtdm4UN+5iZps4Ek11xspVVmIAFxUWOYckp1GyDJmAZAYcCBCxf4ol4LmJCWJcF0IKVVf7umnff+m2Pt96/99FbH1S3y+3JsdisF5KQ1N/Pm7hpSatGXcaJz5lSrizmXXZk8qfFr8m6xxrifl2rr3ouwdjRa859/0FvWFMAV5wscMuyVMyS5PyD0siMXRYwV1vdVx6wPE6xQDIksIancglCWBcpC4uU1gIDfEdA0AEsObUdDCVnCRZoDIsWltxeLS5hewsDsPA8tUVqxMrytdmPtbUyZv6pcT1HrD9+5DgKyNJ3jldmr3GyBLWIePe5LbfsPHesqTvEZbgyO9prJJ4l098PYDFwz4WpgbIE7TP3xTSzFrf+zvsz4UJ+rzX2Ze0VlY+TPSeVUk5KP/xkCcr3WD179doDm05sFGuzFnrnsFyElZVbmCiCn6oBQ9PCcrqdlhCbdlkm3ETHwtJLusg3YMmWlZp2Y7rPUCddGHUJyjRQyO094RoEaCFrUFlM/Gvfr16tcm+ZB+564NY7caEMVPxfC7xWzdu+fcOK45sGdx6KclpMfDiz9uTo1uGl3M20+ICfqeNZC2ZsOtez9YS0A3sPon10Y7IEGuYZeBRyjK5AynJ6OfK1RVShWlipOdmKS9AIWJEwRdHC8jfQ+E7tervaAEvdRjVwFCRgjdoyY7gtwpZn5X4w8SxYUh6heMrWFukvW18zB4zYObz7SCZfMK2ZGUtMtw5Ku1tydkGTMxlZAwKNN79nqSZF+uQmXRk6CtDCChGA1VQGLLkBem7Cv38e7pk3foElMz3D+uzb9TxNun3qkxNGQUu1Nou1JiGs5C0k1Ftd+Cys2Qenfx5VyvkH2hsIqNinywVY6kGUAWxivzn5TbrQsjTBNTCZAAqwsq4RJxIwKo5c1LF59VpVHg7EUFarQ7imYfwgocdhWTZtJxIwRom3SumymOWDHqlwe9gjUSVCX9K6l+wa5PdrlySc37HmuLNn27+hSMMVSC8FF0RjnsmxK4C2elF5vjbhvSyAxY4CuAJZW/9WwAINrlYLS2ZU2b1JIClswOLztYDLLnjmlhLXWE7knLakwjOOiecFLf6vNdHix844OOBHX7Ygg+6YNHAL5avav3AHttdzB6rbEBYaYqkQVtZyLCtJqYKBwyhoFSRgTd879Vt7CduveoJNneION+HwX0Z5RE0+5Sc3Vr7B8sjztSwf/vKeIisIWG5RXcKmU4SWz5LWZjEBA5o3yzapK7rnDqe3SHJ+AGvEr+Mzh/YYp144XOAWlh4t8XkBARZuJceygDjIGGQCRoUPWjSq/eybdzSo9p8qd6utKvm9XbV1zcZl+/Yd2Z+xt+0n3Sa+/cn/wj/8qvZD11aJbuyvT/hOBq5ZY9ch0QKzEWCFtjEDlPt/wRXINbNcvK9XtiuoTN3LClgkij+L698IWOw3BfLVaGHJDKuOyW2NX4esRq1KF0EvHKaFpRX30wKsOX9P8oz7faTl1mpVrI/89ynLU+/UV5oKKytXwl2oXi33YdW0JafiJ8zftmHleuyPBKGFk+ntWsWTc2+rc9Ad6LQ6FHeg1v5h/CmAqcu7vx7ZtGpz+Msfv1TijdaNc0tYiEMPtGzWLOHayV1zWdiAFcgtOKrLOM/IHqNIC0/91+tbb6lxneXlz19V7ESrWDYjg5UeeGFtVtL+09v+7DZ0vvgZ+AdCi1o4F63KVlYewAorkfUHXIA5TpslLETUKRcuQRx6bsGCBKwFO2fVKX5T1hyWfdLjC/XnBQhYjGXBNQhmBw8hEw+uwfI4+05o99HjL935rD83IL7L5bsLon7LygO7ctLcx6OKRabdWeu6F4z2DdetjU9ImT9hS/bYodMBNGgX2ifvdQWFAQqKvO4K7xm70lq8rzvv1G277IAVyD34bwYsEB9C+WoHLDWTFAZg+ZskMnABsP7pmFsDtVGrdy0vNHnbMM8unTBrb782/ZeJn1LLhtbHySNnmWrti5SnibI7UL0js7ovcUNjTo7qNiorIyOz+Nst3iwmACtPJDyQpVXYgCW3V8vCGtd9kntE95G4jDXdPG81f8P2wc+NQ2SwIlDhlYfa6vKuzYK5BrpDYaAWrleZG6AYMmN/TKuoaxy/yW0FUKndg/L7fyFgoftKVR1xgodgZcE1iFhWmTur31m1dc+3G3ExMcFJa24RsFzuXGxQW178jZYLEN/x81lj1iHRghUtMBdxQ65vhPeCFeqZ0S1nJMp7uKndwVrNvugzw5PfwN14L6XqMNLaGcPCb+kOlO+jBV7/dsBC/3evXateh0WXlZzWftmSLgKN7VUAWJgU1mdfe9byYdcWhnl22ZQFyBZcKX5LujLFlvsDYaIZ2SBTyQ5My3EqpZhYyV7PyhrfZfiJcf0mYEJGv938zeg3vmucG0SQDo8oeRRiz/3Y6brwP94XJGD5i2HJ7ZGtLi9gEayUNPSqd99hqfX8Q/Z3vn1JsRad7hBLmDePSg1cMmhhbdapfWm7+/7cd7r4mewa5KJVuZ6dL0NODVgyWOlZWv8ywFLEpvdUQFycoD1AC7EsnNf1n9T+w2vK2ytXe6BSNYU3RZagbHHhMxms8D9AS35V86be+yUzt5wb3XdJ1spFq9EeMK/eXlesF8hyUNzih0WHg0p2kttjePIb6JRfwMrzUG8sSxkRVfZgUQIsVroIRBt11qAJWHmTLrToRyvLa2EpaWqly5b2vPHlu7Y6bz9rKIUBbsGtC9fsmT990SbxcygF8loQplozW0zXl77r/MYHtiWd+MgS6vxMEQrCROLmlmrQWjB63rGVUxe716/aBAET+V7rxlGvtHjzIsCClUWg4ivdgn2/+D1dFL/lWsRLWTjsN+lCj28FYLmEhcWi0ow1OV//vGHYJ7+9g6KsykFgUltYahch1matm71x6ZypcVybBU2ci1bl4LsiEsSpaWHJ7SWA8TO8v9yA5Rbr7Gyq7WMK0CXIrtFNCvWACRiIZeG8VpwVhi/4rVn1R266KM2dN9ACKS3Q4md6fDG8x6Iz3kQLZgZC2YOlzOUi8GAApJjGzi2U5M1dg90jLU9zCg2whi5aMC/D4XxUfpqWlaVwqARax3budHVu1pwroa/qtHajgKVmABOwAgMWabZkwmz3oB/7+Cp9f/TTZ7Z677+kn9usIrYoiLu//w8D4sXHLIaLVxaP9bfNvE9goDJ7claOrzK7DFiK4JZ8fLP/ij0++OchmMjQhMPf+65xxCvN38zjEoR1ZRW1+bRAC/e7SgCLMSYWX3ZERUU63vnmnWveaNkAi1iVA6Cl5xqUgUvaN0t2DYL+cnozb5sHsNTWlRqs+KOh7SdnjuldsEkXDjfk8cUHgQqglUuHXHOzkADLF9sTj4Dyw00ey4n/y7fo0KzBw3UqPlbt/puUNPdAh5Z1pQYr9fu4sevP/tJ0cKZwc7M4L+YkSzAx+5ZARU8G173BDSy7gJlVaDh2xT5dVsDyPVRlYcmZg0UJsNSVLgIxCr//FwFWougTs4AMVWvXSmv3RzcvYHGhqavuf5+23lX7oZBaLz+qv0JSuuHSyfOP9mvda6m3nSyIS81PXYFBy8qyzj46q32603VRKSY+Rgas4T/8eSRmRAzmlTKx3//+vYiXv3iDFax9LSNo4QMZuPD+igNWj0nOEd1GAkgAVnTdKWu+nn21bsl7nri9RL3/PVVBa9y0MgcBXGvmrF93LOHMtgG/Dp4jfqe1gJSVR3BbANY36hhWoPk1puNkZglyA0fw5yVlCfoDLNnCInBN7j+fae1w6QOcIbzRDpwU6ABqKktG3GM+VyloI07WGUSKO84Kf01v/+l9z9zyhI8nNVyD/E7PRahH36WztiZvXXPMPajzKLQVz0d78D+sZMSCWS+Q/ePCZHWSDZeRBLNYP0+zrghgaRGG1tfxPbuLjIVFwHKLhdE2Awuj2e9/CWBhAjJLkIsQGXzV3cAxn4DFitKK1v9F16+ja7/2NILPAY+V05Yk7Vu7fd/0MTM2iIu5HotVq2VXhea+anAHbj15/GNruOtTfw8DaC0YNe/4+F6j05NOJkEDxsS2fdDm/YiXmr2OhZ++QwYrxrLkOFZhApZblH+ySZtGavVpfI/JjuHdRiD9nBW3EXugC8/92c+fVG7YvP4dgYivdhkumbI+fvG4xfOWLVyxWfxWq0QPFxOHiLT2z5AlGOgZsrWlAVjMDiVoaVVr19yWBd6TErdnxxOI9NqhtrS8gCVXa9dbOBwMYOHxsmsQChDccqh+oeyZ9d4X7z7x3NvV6le978a7A9FM/l4NXvzOJbbusXu37pk0aBm2DgE/4LloB60r9AFVLQhQdLkDqOUyWFB6tJYxBNNU5dorBlh67sGiCFggpAxagQCsiAKWv+1FCg+wJs52DWrbhwwP4Mr6/LcvStR5+zkEnQ0dUrYgLSxmC0IThzCWN4/DPX2uClRml92B/h4495/pJwa3HwLBjtRj5T4ftv0g8sUmryHeIBZw5m6eCHegGqguF2AZIdj4npNzhncdQbqwMgE3ZXTdVaNaZN1G9W5v8P7jdxm5n3xN/MS1szo2UfZn4kJSVi4HONLasAvA+lQGLBmY9FyCfgBLXofHvfTUe0FRHipVG4wClrr/hQxYBC1Y7zjz7JnVb+LP7z/6QpXcdR9BHnQTIgeJQIVbxE/fnDKm35LslYvXYE4w0QK0w5xh5RiuueIrdxOgB4MKZ74yA+WuXDHAUtOzKFtY7EsgoOJ1VxqwhO6vFL+1enfwlcfCg7p8qs+9WYL+AAsaliz8C8zCWjpxjnNgWyWNlu6p9Hr/fSbs3nq1S/6n3v1I7w14LJs8/0jf1r2QLUjBRR87SwYxW1C93YQ1NnF2d669CvSgET8NPRo7Ihb3gEWlFAL97Ncvij/7/jPQgpXDH1ih5iCOAS0KJ+mC1pXeK9s4oeeU7GFdh0N7ZhFTCia8KlmVH3zzwT03VCtzfe1XainZaUaPtXM3rEncdHKDWJu1QPxGrpkJAcgEDLtwCX5VAC5BWlayhcXC2UUNsBT28Z4ADvWeWeWeqFf7nqbtn2t0e80b7gk0HhcAilfmAtWFZAwMRahl1ui1aW0/7guFken1oBuUC/AH9z2T11xRFuhV6Q86biX35bIAlschagmGBq4liIYVNQvrtD1sFd2BRq2sqwWwlBkggRPBCq/yd34AK1FcJ8ewqJUXNGAxOE+feXqrvj/c/ECDR28INDHxPbIF96zZljhj7Mz14q2cLQgtnxaEXONOSaPfkbqh9s6TJ99hdqC/Zy0auwDuwEzhDmT6sVIItGmnFiWfafQUguMXHQAvHLS8FJqLzwoasDxRrt/pBjTiEvQCFgQO6C5XjgC9uKFoxNc9v3yi/nu1axsZA/maReNWY98srM2CcIPQI4jw3jYBWC3zCVhytXa5Pif+Z7KNvIHjJbkE1X0vRAuLj4LM5mJiuOgQz0LmJmJZ5aes69b25rsq/AcXO0Xl9RDvRoxGxigXxHJdgVyvFR+7KevLt36Xa5nSTQz+4EJ8uV4glBB8x2oyVAy4TMJIU3SvuSyAFUwLixJgwW1wICsUGWhKDIuAFcjSupoASxGSXtCSgcpmd4jUbeG6EuC1bekGrBtTW1iJ4qeIYV0OwMIEgJZHn3lqy24tKj30Sv1qdrsxhc2bLbjE215mDGLCwUUkZzH5BJg6O9AfH88dNh3ZgZjMACycSiHQL7p+Wfqpd568LtAcwJosuAVxDGzZV53WDhrDSgDN8b/RDRyVtHYAFp8P4JItLIV3VZ9N6j0ta1iX4aQLnoUTgggnkzDCnn+tftWHX675wEPP3X9foP7J36+evW596umcg92+7DlJfM4KGBhjxs2soqRUi+gyTt2SUlrP87oE/z8AlnrPLLgGS/3Up22Dh+uWebN8pdLV8wNUsKgIWrneP7FdTMzGnD9+mOQ8dOAwrV8ojZgvUGTUe12RVzBPWa/zktLY1eNcaIAlLxwuAAsLE5UBfrhzror9sGTA8gkEb/KFP2vragMstF1tacmf6VhY8pgwhmXIwvKEet6wi4ofRo6lk+Y4Bv7QG8ITE4DbFpyv/2q96If/W7dKtUfuvI33cXtL99g0KnojW3BK3/Hrjh0+tk9cz1gW3Re4P8vLMPAPd2A3I+7AFbErjm1euMYxP2YBXTZ4BS1SW/T4pvwTrz9ZyRpgm3GZFgEAi4VEITACVWvPA1hqYNJKvgCYeQELc0zeMRZjjJPb3ivp1V/3aFmv/vuPB1XeB31dN2/j6iUTN8ybPWUWkmG4Cy61ckvs7slfFC/n7mCER3jN/xPAUqamOLl4F+MAF3SJOVsHtCtdJepd0gOgRStL39qCksRlgvw/95Vuw/F9Fzu6tP4b8w+WFsCI1djlNHYoUnQdc2NGgBy8LUHVC/Q35pcFsNAAo6DltbDgJsBkoVYHsJIBCwIGhGMwPuidY4OZCBrXKv5cLQtLfa1W9uDBbdtdHT9UNqnkrsOXtdIFY1haNABw0dLi9wEsLLl6hCHAUldr9zcWXsBifIybwimB83bDOj5yxyM1q8PKksEK/2uB1tTuIzeMGzQOG9jJyRe0VqDdg5+UCbYleU3t3Umn3wmUHYi2wx3Y7/s/oHUiO5CApyQpfNWr9XWPvVr71qsVsLTiWV7AAs3p9mF6NoQSkyQgMKPKli1d9tPfPnvlydfuD941OH717M7NumEXXGaV8d6umF2TmpQo7/klmHn6/wywlAXW3jNi9NJhr91YJatRZKmIx2SaEbTwmb7VlReocn+fa+3jWDh1q3Nkr4Vpm9ZugUKBuQfZxXqB9LBwqQLGkNv3cKmC323vgxnjQgWslPSM3O1FvPErI6ClAixoXtCCAVaJ4mRw76oArHnbZjy1L8U2Wya42jWI79SgdTUDlhbzFDRgwcLCc2hluUQ1cz2La+mkuTkDf/gDEwRgCCHKvaDOfdenVfUa9Z96BtsmKHT2WlYyYMnbKyyfuvBgn1Y9uYiYsSyuyYIGiVPJVJt/fPY353McXXFff+3D9153IH4LTZelnpTU5lZ9v69U66VHq10NgKUeW7WFBfDCIQEW5hmVRi4JYFUDXIrU6hJNfvyk7vXVyt354LP/uV+Lf/Q+k9ZmYQ7RyoLAc0zdOfGTkhUs7fFbp8hGCfFTgDHEliNKRYVZChKwUPw26sa0OUhrx35g2NBS/arVr8sQw8JjKbeZCBG+KmlUf3u0s5E/+ssWl/Z1MnDlvWLmyI2ZP37ajzFHVmOna508wh2M5cXg+V5zpdXGQgcsgJUaqPwBlwHAApJDGFxVFlagiaqAlkeMozXCYgJWLmDhkIFKCxgkwIJ2B+Dy7WL7VIOnI595/+Unb65ZqYYe/WVLa/WMZcfH9RgOtyA2diRgcU0Wq4grPvep++O6uu3Or9EmrbbyM8kdCC0SApzVqJUMqtYD2t768IsPVA/EH/L3heUS1KWRd12WH8ACjZhpB6UB8w+EYdWF8m36t25Y582HDKRUs1BubrESrM0a3Hbw5KSkMxgPJmBkTdwy9oMyN4b8FAzdChKw5LR2bmCp8KtGZq3cxssEWHgk3YK2Naent7KEJD0lNmZ9JhC9aGXBRYjjgtV1waLSusfqhbuzl8YmnB09JBYudZZfkpU+zEsolTjhOpQXRBsLNAdqvLfTBi4zdImM+krxW9nCAkgpVA6QLVjUAYsWlkyxq83Cctvcz9kCTDy5/YVlYfEZAC09K8YLWNzDisF/BurP/zKy08u3P3yXb4U/7wmg0oppzR48fts/3UYsF9fRYuCaLChAina/7Gh83RPp6c+7Q3J8i4X1rEGvOxC/RcYWpDD3e8IEPtVmSLtqDzx3n5K1ZfS4ygCLgXUuwsUYAFgQn1DcguIsW//VBjUef/2+uvfXrflQ3n6yOILWNjAhwnJyW+KGrYzp/tXvMeJ30NRx74yx60e+e+0tET/gXrSwLrzmFgtWFw0uDMByeBNhtMZOC7zG9YjDjsOwQgHs3CIeHiLQjzEfZqaqBbtRFvGx+frDK24JLZPYMduSk2dTVKM3ygUs/2DFey2flXD+i4bdUQ8Sc4aJQEwCwpxk4QDcsEBjV2xDoVtYasLJFpeWpVXUASsQowC8rrSFBcCS2xkIvAobsOS2qMFLAiyAAoQlJgutrHPf9/6tTo0G9zT0zWAVUKlBa/mUBYf6fPs73ILUDumDp6srZ+ah6d+JUkw/qsdSy205Y+Cko/90GQ6rCtYG5hMtNcVN8uPfv9S4r26NgDvDys+63ICl7ueYLhNRkw9WFGgCwALNmaXIBb9MdQZQYxF32dZ/fNPw+krRt1WrXUOsAyJQqe9+MXCtnbN57Y6l+1eOHjQOioSiqQ9f/tcLFasWa49fy+5Af+7BywVYdA9qzfWYgQtRmqkwKl1oPc6akBXTLdV9rlUguaP+Xm1ZOT12YW1d8CZo3W/bxoPpR7adS2rzaZ/F4nvGgQlYLGiMODABq0DdgWjTZQcsEkLP0vo3Apba6jqckICkCyZc4JXrReh2gZAotO1FZMACWLm96670gOtyA5Y8WVSAxb126MY7+/gzj5V5odkbz954d6Un5d/JFhY+p2tw9YylJ2YNnbopYesubOxIHzyzHEHz7Ml7ZrR32Z1fqiet2sqCO3D1tMXZy+avpHsGfhYkKkCDVgR9+xEdH6he566gEhKGthqSMWv8LBaA5hoXAkZQWYLYcdga7Q4uPVwbsBJFf3By7Q0TVGBVYh2Qst3FT0PbvlP7lfvqXCzwtDfa5HULxq6b17V5d+6bdf7PBQPrVapRuq18HwCX2spC/CrLYVUsrssFWHKb1LGtywlYYp3g41m2bW1cVrcBV2yu+4+uQPYhEEipx3HLqoOnm7/ca1ZKSip4gUof09mZuPTvBSy1lfVvACytxAtFaHrXahkELJ/GL34qF428WBb4/0R21dqHbZg1VQ1Y+Lk/0LqcgKXuyoqpC5B0QeENwILAZu0ygL2r65Reb950zy3Pa5GBwCW/zh40a8c/3ZWNHQEGmHS4p+Lqilk/+bGsyNC6tgj3R1r3k60syR2IxZvQJiGVGeNRytT8OqbLo3fVvuOpYAbtKgcs0B6gxeog8CkhOxLlpyp80vrjpyvfe+19D9SrrrvdhRYtdizZvu3YofTdYm3WVPF9cr+Zfzxx+0MVv+W1WmClvk9BAhaSLiJuOD9Hjl8ZGcPLCVjbsiYPznSnfuoSiSF21TYnem1dv2hn9vY1xz1pKVmhd/2ngu3phjUU+WDEwuI9V8zet7vZfztBuSBgYV5qWVgFls7OZ18xC8vXAFUGYVECLBS/RaULI4zMpAssxvUDWExvp4UFbZ3bO+R38P0CFtpOy0oPtK4EYIVgS3SxNboOYHFNECaJ87d/eter8ljlD/2Ng2xxrYyJh1uQFdzlwPGpidvHN/VEhvt1sdBtGTdkKt2BqOsGsIKbjNqmku7faUL3OnfUuq2eER7hNYUJWDlOu9hu3r/rR8clmCjah1gMlQUG19FsxLFQjFjZur3twO/ffuL1mg20+wyDTNvaWjdv6+oDG09sXDV/9aZPOn786B0PVMiT9ZYLWhdvfMnP/j8B1t7MRe+luA+/ZdS64ljEDFyW0fGboRiAiIaN6tufeu1u2yP1qgWFA9vXHTk+ceDaJbFjZqwQ9+F2PUy6kEtskdGKVtJFoMkquweLEmD1+qfX9ZFVq2ISB3XoAJZcRkbPJZif9Qx5AGvoyunxtkirKjCet/lq1+CVACy2SAVYDGJz7Rfe59z/yP3hb33//sfXV7vxaSMD/1zwrwAAIABJREFUsWbmypPje4xYd+zIMQbDMelO1Kx517mv/2rXJLxU+GeB7rNq+qoTc4bNSNu+cRskMNKLAVZwk6FNXLd0tOvk3+vf9uAtmsLb7RZV/m0XL6AuTMAK1C98rwNYXFoiJ6kgdsfsSFiZytbt5cqVqfxZx89ee/zVGkoyTI5D7E6srE317xbEFTaRRRsZarNku7IU95/2ATmYS7eIUKeS0q60O3d7kQKpdHGVW1hWYV0NCta6Wjlza9rofktcq+PXcjNIW49RLeywsmhhGbW0tq06sqdRnZ//EmRX5o73RPyWikyhuAWDQtYAzK6bJaj3OyZg4HuCVlECrM8/b3TNva++vVA4RAJWrWapI/RVAiwGZ2WwQqyiUABr4ea4KvsznMMDAZYiOKTY1o7lm/yVZgp64TDXYQXgJ+XrdXErHL2/7syafwADrsXDK94rFSp6xPZpfv2dlV4yck9YW1O6jtgyfsh4ZDz5sgUHxA6oWebuSp24rsvfvRaOijs6qN1gTFAIavA+NEtMVmbVKRlhol0v3XLfTUq79ABK/flVDFi0sNBHeVkJ4Agp/dy6vWLTnz579ro7ytz94LM18qzNygWvwMClRXu6BfN+51LiVzj+vwDW5rQ53zrsR19yuj3KImG4A+kWVLsH8Z7XjOkZf77XT/9AC+AmjJYPvnrD/tiLVWz31brVLxYIf4dyH5uSCGux7E04fmrtrEOrurUdEufleSgyrOgPxY07eRdIDUGO+WUHLBmk1EyJ784cOuD+5ePP4VbhKnv1wuGrZh2WaGPEnyumzXe5rQ+Kgmxacyx3kL2xK17gBSyCFZMu5MSLQgGsFXsXPJiQlolMrKCOqxCwAFbQ7EAnpWZfhyEdXrqtTg3D2VJLJ8xOHNB2INy5BKyjQxYPeq7UTRU+MUKcmD/GHRnTZxysKkx+CAGAFyYsU5eVGFbvOUPevf6OMg20LKmr1cJSLRxmliCrzRCQ0VfGscD8QA3EsXAqW7eLtVlv1nnzP4YSAvzR/GKgumBh5WZP5x7T+85GSrlcrDffxW+DsbDcog02r8U3e8SKnE7N+zOhqsDT2o95jpU9m7Okb5oz/S32WwuwZADDdYvGbznf8/vR2adPnebyC4yZksXXc3TLsKderS4WGIgKMV5AUo8HAQuf85ptq4/sbvSkYmWR55lZyjqCcqWLAnELXnbACiQMzh4/9O8BLOHyUYDM+0or60oB1oxdy1ueykzuEWgM1N9vXrgcVg634qDAShTXqTdwNFSa6RItLAAVAQugoFSoqFTphtJfDmzbosJt1z1rpH/LJy86viJmacKGVeu3435317z7/Oc9vnqu/M1lAlppq2esPjai09DUpBNJACtMfExMCHAkyjCrT4mz9Zs/9MMKt13zojLRvUoNgUrvtSDT2uUsQZcoWWXXqLOoppcArExR/FZOa4dA4njTJQiFktu+IPECdJC3bi/3aJ1a9zz/6dMN7q97j18XtJHxwjUXgEs7BlcYgOVwO3xgpNfOywlYW9Nntk+3nPg5EM0IYrhu27J9qWsXHXQO7jIaZhIsYYwXZL+yq0K9hs/Y327xUGT1B28SzthcC0oGLxmsFD4W1+Cz44nJZw/vSN3dpGHHkV6+h4zgLsMsz1SgC4hNwAo08trfsyRKxKC5s1ZaolwXXIJ+LC3eCoA1udefKQlbd0IDu2wW1oRNy/unWZJ9i2GNdn35lOk5f3UYjHbCDXTJgOWyOd+wGSx+q+ESZCo6tGcWY4V1E9U7bmDL8rde95qRfsEtGDdwxq5hPQbC4jzy46A2VarXe+h/Rn67ZMJi1A4EOOcGT3LjV4ydsH0KnQYs+ufz8reUeMXIfXnN4K8G6FVrh7uY614gGAIWvyVgGQErXINjat9ZACyMt7wOK1G8h4ICmqNvBCz0HQeEINyjSMAo7T0rYG3WdTdF337n43fdfSnuwNxH0LKSXy9QtrAASx47WlL4DECV2/Fc7wrezx2xutAsrF2Zm2s7bDubytaV3Da9/2FdtfmwN3cMBiLRTcetP5yd/mpxzbPv3KVsPCqDVt6+5wKVfOzZdOpQ0+d7/nX27DnwhrJYXpzcC4trsvCjAlmTVWiANWpp/KgzKemvKgMpgqfYQtzIUUQsLGqU4cIluEBxCSojfcGaCtTXVVNmZQzr0Q9CVw1YFMRa67AuKelixOY5Ux3O7BesBseCfZjVf1zWpD9HsX6jGrC48NbwBo4ELLcoexQIuFSAxYKbXLQIzZ9VAyK6juj6Uli5Mo9XuLWcoXVPK6YuPjL8tz9XpqSkHeowust9d9S6o45L8Ko9AH1ieo87LBbWYrJj8kNqQRgAQDBZ6WJEW08Oih/evGzlYso8MHqoAAt9ZH8Txf/y9iLc6oMFd+l24bqwEC0Li+ClBrF8ABYD7Mr+YeKE9o4T67KUrdvFWfHHP9u+8/h/qz9J912OI1zEsYBz+m70C64+XJPXopK3YpFpejkAS5nmEkCpx7QwAQtp7Gmuc0EpnLCuRvddkbVoxmI0lYvbuV09+Eep+1el6i3WH/q+fdO9tW+CSzfPQYtKj39Xzzi4punrnUaJ7ykbWDqPFd4LrAhuoQJWUnKqMlGNghWuLUKABdCKGLF40ciMkLSLNegAlta+zRtzujdpux9dFqde0gXT2llVIL+AZZ29bva1R13OyZYQdy3Q2ShobV++yTVj4KjMXdsSYMXIFpZckBiMGhRgkfkDAZYqS1AGLJa6AY1wwtqJ+GP24HbXVqmQp5KH3kSDlRXTY9T68Mjwc1Xuv7N41YdvfxCAhQOgpQVeK6etOjmqy19nhTsQlgQOTEYIbi6o5eJvpSLEkKXDmpS+qXhjvTZofS4BFujtb+EwBY66DE4ewHJH5igLh+EO1LO0ZBALwsJCvyHwqD1DIOKUt26/9n+fv/XYnbVvqfXAszUeyO1vroWUa3ERuLTjUnnpkxe81MA1ocu0As0SDL0ueQ6tKKPjV1iAtT8nvvFZ175PmGhhtD0T/1h+pmfbvwFQGBcQEAzOepdy7b/sr377uPLjL1W+7qbbyhVze8JFxiaNZ/9PO7D7zIl+38+ftDhu4SZxJRQseVNOPgvPxSBfUiyr0AALtQTPpaQp1doBWLCy+L+/7usAVqL4jXo/rCtZ/BZghTM8ZlPMuyfS7IO8ncvtGmJW8kHwYkxLfHdi52Hn0mnjTyyIXUiNnIIOr0wsKTDAmrhlxYAUx2lfunYwgNWz2Y+sZE7AQvvkMck3YOXyhL6mrZHWTpcb3WOw/HDC2gnrM2dQm3K3VHzd/xS78C1AC1mBLhdd+vpghV8tGDkLGzWCDgAsDDQmJKw8gCnowHFUFiIPXT6iRakbot832h5c5wUsKAC4b4EBFu5N0JL/Z1wrnxYWU9sxwZnijzVZOJE1iN2WrxVrs97KuzaLc0Q99v7XiPmj478ZsPJjXa2N25nS87uJ6Yn7DjLWCrCAgsWMVjmrD8qP9e85P9Wu8fgNNwXDr7h25+qTu959st0QL7+qN+VUbwOVb9C6LICFDtHKCuQe1AAsCAL19iJXulq7D7Bef/2FUnU+/nyeLdpTTXeQNQAL1x7buyezQ+OW0Ero8oGwY1o79yOCmnNJFtbmE5vLrT90ZKrH7npE3UYZuDxCqVAD2aYFy1x9vukCwII2pgasRC+DErBY/FIJ5nqfRXcRaBY6asuM4XAJsh0AK3+uQT8xLNAJdGNyAO4f8uvgXxoUr3TDC9dWKfu4/0knC8YLmjstK/yWrkHZ0hrTftiRmBExGA+4vpC6iz4DMJWsQHFy8bdS8eLvVaO+LlEx0u+iZnU7CxOw1M+Sra5LACxqzpwXiGUhGw2uQcSzyt1x9x23v/fjaw3/88w9Ul1F9Rigdf9KwMI8oYIlu7ENFb/dmjGvVbb18MvBWFd7Nx9KW7/gkFOksUOhwFiwEgves9AzM5U5b61ftvug+jPvVL2vYqVryvifP3m/PX4w+czUvxIW/tV92HzxDeQBQIsb7TKbFGB5SWnulw2w0D0joFXUAAuCa/DSqXM91hD/FbkZ3+I4i/endh3N3r15zYlRf/yJTQUp6GQLC4KQgMU4RTB8hGutI7fOjc3JyVIy1dQHAEoNVPL7RcNnic3bBgQCLCgVENBBA9YFcmhbWRoWFsspQQjgf5ZCUlhMnCVFKvkv5W+5VrVYVxug9IipFceCO3DwD71TMzIyYUng5OSHC4Trw2gxK5bf8HVjv40uF2YoVZ5tKSyXIO8vW1la/c+HS5AuSboiodHjRNYgQAsLiiu0+LXFC1Xuueaeao/d6d1uRQ1Ossvv4thVIMa/Ci0slhLjAnXyiOFq7Vpp7KCDQ9T/DPWz4wKsq+av9YAlBVcgY63gVypY3DWYOyHgcyUOOTSu/Ws1n6you2WP3jjsWH0Cae5DxfdMzMG8YF/lij35rdpTuMVv6RKUOxgonhUEYHE7bWX/InHm28wMNBE0vmdaqBJk/nv+vBE5EVnBbRPutbpO7N+XNq3/8FUbVq5DejVjWRhwDLZ66/agM21m7F7XIen8qafcNuejRvopW1jbl210T+w5JOfQgcNgdFhYYD6WRUoU/+OExgjAwgQA07MoqiELKy9v5AUtWF4b5q7WWjgMOuHZsLC45oWWXPH+c/t9VfrmG9/nvXM3dMyfbiYD1+Lxi04NaNMbfeT4QyBwG3m6KunCU4rgDls3/rdi5UJ82YdusQ+RTdnSQf8IkHQhF781lHSBGFYgkJK/lwALfYC2zLR2jjezBBnDImChUyA0Y1lwmwK0mIBRvuvEnz+q8eStjzmdUZaQkAxBizCL25OjvF6KdYUHj+8yLeuvHuMKbB3WJcawMB+01mGBP2Dh4IQyyoQETfnFNPZAACVzExItFkzcmjV26HQqEHgFYIBfMYeVvdq87cPcZYUKJczx0GMPVP7m91ferHJP2Zsd7hDhRs66aH2W1pqt0yeSz+/fkLrTm+YOOcFNOcFHygJ/7yATsIKW2fmbxdpzjfdSFhHKMSz15f5iWhJggbDosL+FwxiAKwlYmGXhI+P/fjM5vcyPYSVsN2iTRudTr9WVdOTI2dVTpsXPmBCHhay0sMBQYHq91OWAj5q8ffWAlIwz1Y2CFW6oBqyeX/zEoCkXxsqAxTRnMD3AlYDFACtumcclKIrvTrGG5WgmRcixLIAVjlXTFsvFb1npgoDFLEtMQE6C6Pa929YpXe3WN8vdXPpJ3EMGLLfb463cbsz1RMBaN2fz6V0rN2THjoil0oDnQehgjNB/WlbUopXdV0dsmNQ5orSnkTxYQQKWHMPKV1o7ky4CMoz3AgFYWRpp7XTLc/yZugz+4FobWQZADsAVBfcgMs9gZZVr1PSdxx+sX/XJ22rdUtMmKjQwYxA7+14AL+EmVt5rW93q70Ls2aKMU7geYMkJTbKbiindsrZPAW/DwmEZsNRr5vRo6U26CGZ7EV3AQhp7hmVLmzRnljJf/FlUcntmDV2T3KHlYCgzUBjIr5CVmMMEUsZcIV+5JY6SSCbOkn/Gtnv/+mrRd1x7YynEIPOsy/LHR4l7zhxvWP2HfuIaZg9TjuH5kA8MF+TLyroigJVn8qpSiE8k7nN1btacpiQBK1H8Rivp4koBFujGNF6AVsl+s2LnhZSw3W5UKCjXSW7Cs8ePn0w7cS6hU/PW/4hvWD0c2iI3BORAB7SydqTuvXvDwQMdHZmOMgQrl9NjsYcYH24Al9cdSJckBDCEFFe1Y0xwguExTgAstFWtRaGnFASh/gArlyTeNS3GAYuLFSk0ISBL9Z33Z4eylctLVq8xgNIbP1E78Ezvr7uhjxACeBYEDeiB50OIE7Ao0GF9pI/cOLlr+DXui7IE/YGWn3VYoLdsYRlah3UZAYvk47IPRaETJ6wsJGAgnlWx7SBRHPe16s8TePKC1QWLC5aXwhNe4MJ1vgdogFlhWViBFnrLPKMDWBg3jp06hqULWCvOTR7ssp/1pbETsGRri//zFdZV/3YzMzau3kz5xBR2gBL4FQDC9HO+4ju6BAFYSrWSSes7f3PznaVvhTXlckdoWlrq+ZJ0/GzK2SPOo+88/tNA73O4dx1BEf2VjYygrCzjEkzdsovf57GwsA6Lae3+fqp2EcLC6t7iq9MiTsDSTP6SLq40YNFXX2LIgmk9MzOc94dfE3pLYFJpX5FyLOWUPdqVaneE7Jo2eGjvhXEL93gZCcxExtPVTKCRrd13qpUMVPlty46Vm93DfvnDcSbpDBiMmXByJQc5QYSLBZlmLVtYaEJhAhZ3wOVEwIQrPnB+/1YlbqyQJ9kBbsFgLSzSb8GImWeG/voXxgECGCAOmnBXWYAUk0BYCFSxNkdtntI9rKTrPa1x0AOtIg5YEEB0mcI1iDlCK0txDZYvX+bGr/s1e/e+p+4QSUCwpghMecEKQCWDlExDLeursAALz9WysLRKa6kAy0gMSxOwUI091XLkTVpX7DtAC+CEQ8vimjpoTXLXbwaDoIxdkVfpCqSbknEm8KuiXHnHDfwNwCrfvleLFx564Ya65W8oiSr8eRYN65VwwnUnDp07Pb7/1tkj+oxaJN5SocXz5axnhnECKuDyuF9xwMrDhN709/SU0y63w+EU2jZOR0hoSI7dHpL7GhLiEJ+5xGR3W21Wt9Vq9Yi85KBQWkt48LMSUSUS3nq41tsa18jPoIXFCYl1J6X6zJg6LaxUSBX81pFptYRGBtcsW6jb4nbkxjcc2RnbQkRfQyNDT0dZSxyOjrYllIh2nYoIDzkr+u+xhXrCzySH3eh0WEtnes7enO2wlgBQiVIyvlgVLCpaVupXfzTYv3mv6/j+BMvfvw0B4wMoGauBOwGxGpj7ENCwKsDw3K8KgIUJok4QMQxY6nYFiGHh+dzOg22FgIxu9kOLB6o+WfOzMpVKPIl7XtgPK3iWXzd7U8qKKXMyVy5azcVCtHqprTIRBLThjrwKeAvA+l0PsJR2acSz/m79V4Fu4HgZLSwyPOeHEh4QJ4Qg0twhCOFiKvflb1++dPPdJWtUffRWJQFDC5z8AZYW/07sOrPAY1hOdy6Y5vKQAFBpyYpWfciCAiyksSc7LlhXWv1VW1xbl+1La9NoyHlvvUCOAfgQYMQkCwAI+JUxJsxf8jOED+YP5BlcuOUnrOz0dZV7yyhjpK5yodBEVXuQsa19W08feOPBtnANwqLEM6Hsog2+xcrKLS+48rW6eNFnwc9e/dvmy8KSb2cki1C+3moP7Oax2oProt1i29+0boOq4jmcfOpXNoHBZWTgKIHlftPGfu+whD8XWToUK/wL5ACIXeohA5eRe+1YtcUl1l7RbIcGyMwiVuVgGj4AAxob6wwCrLjZpNzwywFYDGBDQNIt2LH0TaV1k2HkRIxcy0ubV5ZPWZbe77vfoYXy4CJqatAELLlskkKL0Vum9got7nhfKFW6pFeD1r8EsNBfZamBODkmAC24BZEyfX27v35695GXbn9auVBy8elZVYF4t7ABy9/zCV4FAVisxp7pdCnV2P0dtLgObj2StnT63pzBnUdj/sHLQDAgr0K5Ajhx+QXDDvicyTtgUkXh845Rmebtm7zw8kc3/7dk2WglzZ1VL7SqX8ifnT2Ren7N3NNrf/qsBzZ6xDPpCWEmMRVMOTkrUHcvf5ag30EPYoGxEbDis4IBLS9g3S1+S1NVDrLjlrLZxPRmao9le88ZMyw8uvgd+bGwZNrQ2pJfA46m9wK1ZYWPtawtrfvBujq0da9HpLKDkbgpIYQ1s6+Yfk/QYlAVE4Opq+q1FvkGLANJF3g+gINgiTFR3Br943q3KHXLDU316KYGLGVCaoDW3L+nZfzTeRhjc6ALXBvQGOXKG6AHhAAD7kpQXwBWbwWwcOiA1tUGWPNGzMvu12Yos1ShHUPgGEm60PJCELQwJooi4T0rPvvf5/7zwgcPN0AChkJ7VazqarOwZD6itaW2uuaPWodaguSBoF2Ce1L3lMsOW98nOSfVV40dz5VdgVr8vGnOLqSxs74lFAQmlZBXoVgyviqXU8O8ZmIVlXCME7eKuW7Ewo7Nq9Uq5StgrAYtvdJNh/ekHHu1eps/vM/lPnGMZVHBDKrOYHDmh97Mz/08j4XlL0vQ/20ufKuObwGkPK7coDz/NwpcRkEr1GLb9nndBlh0SqFLTYWpu7Qc8D0aAwHJ9N3Sn33z0eNVH322VVT5SCVj8FKBS5nIXlchrS24DYO1vIxYWQc273WmJJ+yioXCYHal+eKE9gUmIzAQsJi9BsHGjDF5Dxy18ILgCph0oeYNA4DF7bkx6fB8ujWKNf7sner3v1avZZmbitfR4jktwFLoLYHW6unrcjbOW+aIj1sCWhCQKZAgAOgipZsFQAZ6KBaqAKw+PsBSGNc7TTxe8uC9+N9XyV2kvQ/77p8r6hIsIMBSeusdD9k1CHcTTnghrhVFh99+rOGdwS0J0RpM8dmVtrDgLrxUwEIa+zn3sZ91uqj5ceLWw+nLpu3L8VZjB60xB5hGTkWTyxPoomNmL+NK4G2MF+QZEy+whq5C7acfvbtV35c+v+7mYkoFDCZgqBujBq4zx1NSzh51HXmn9o/9xbVM8FCWe4gzX9Xcr1rAklPfFSHitb7sYZ48oBXMwBoBrRCPdUeTes8/i3ERJ5MHmPAgp2TiOzAH03dhZUF7rPDz4O7vFy9XqUGx8pFwf+T7kGNaCg0k92Ag0NKystgQfof3cubgztVbHT2atpWTOsD0XLsBYGD6NkCL2YJyoUsmPqgDqYVpYTFmpNYSFfeT2N7jt2tuzN3eI9gDwLVkQrxzYNve0AYx9vS/M27Gyha0rkAfVhFQeGfM1pi+IcVyPjD0bC+YFSRgxeyZ0t4a5fje0PO9F11CWrs6aEv5IrsGWbZJSXMXCRg3IQHj3jq3PZKdE2YJD7sQMwqmzbj2SgIW23opgIXsXnfYurZq6yoQHTbO2ZXaIte6AtCA5uA9llPj/KByhVfwKT7nejDOW/wW8oxuQSgWSLgoP2pxp6+qPlRSqUMqH4EK4546lHa6/YcThq1dvn6b+B09EJAZaC+ruVPWBgz6X7WARaIQqGRrS7auYHEZsbaMgBWeaXdZ1zet//zH4l+CFLVq+ZXARUFMdwc0EqV2WseRQ74Oiyp5V/FrowBil2RpXYp7kHRUW1jqNHeA1fQBIx2iyC0YllYlGAqMRfcXtCRaWLLGBAuM9cK4/0BhWVh0RSZ620LLjxoltUS4NUoOWjjg2+LXX/uReqIZeQ/AivtzqnNEt5EsoSMLAa4JQ/IJXSwQAnR5KMA/bvvUrrYoxxdGnkfr618EWOi2nIBB7Z0uJyh0FUQCxou33FOq+u2PVAm6uoJM16sBsGYMXpb9+/d/Yb7AsgnGJWjZmDG9S5rrRGtDvOK9CNbVP52Xpi+cvojuPPAdAIhgxKxVgIXMpyxWzQxkxpJoDXOrGCgWZcqXL1t5aHzrNhUrR1cKpn24dveaMwn/e6Id6q1ySQZj3ng21/HJWYO6j7gqAUttXcmt13ITBkPAQMDlyXJubfHiK9+IexKgaGVwzQt9r3SbkVGUdGpxKpqjOG9sP7Tfp5ElS99esmJxZZ+ZSz3ULkFaWYGsLfVzZQsL3+3ZsC0ntv8I1+5tu/AWDEuwBkOB8cHc9H8TsDAZIbTxPbeZkNeKyY+l5gaX4GS9hcNa9NFwCeoBFjMU6apV4lgfNGt8V81Xnvpazy3ob0xWTV/jiR8707ll/TbGA5TFwOLkoku0hYDF9SYENQWwBWB1CwhYqthWYQJWdo5VWDH+FdkCtLBIXip2SiUFcSprF70nNPgK3Sa1/7j6E1VqX8ocKcqAtfbc8ldDwvd/pE5jD0SPpRO3pvzwYR94QUBX0BdyCzKKRaHlJAsAFvfgw/dMtlBXKmEcmDFHxLMq9hj5Y6MaT5R4vFS56KA8R0jAWDQucWGXNoNmeucO122yWhEtvICLiQsNsNTrsOwRoUpVbI8n91U+nCCbxgH3n0tMMPkAYMkWFb7ndXg1cvgDrZyUjN3fNHyjq7gPAQoCiFoz1yvIBWnxUA4wK1QrWVA4m/3S+oXrb72zRulKZTBBgzrULkH8ONjYFX6jBig24vDOA9lZmenWv9v9ni3WW6EPJDaZXl5sSMYH00NQy7uLyunsWqmbBQVYTHKQK13QwqK7juuAIBSVWnbCLdg5P27BJRMXewb/2JexK4w5q1uTFgRP9UJvH0cLwOoeELAwIBJoqQAL9yYwJor/5WcFLM10hV2CeaYu2FecLNuEscGppE8/9+rz9zV4/8EXmIAR1ETxXlyQgDVnQ2ytyCpp8XJau5E25dfCEouEB8mLhI08a/Pc3efbN/knXaSxg9cxfyHwqWBzftJ1j1dm6zGOpFWn1DdXxfVck6UsJBZnhambura9oWoxZFEHdezfci7xzYfaIpbF9V8s7k1ll9nFflO/Cx2wAFRhURf7pZGMQPDSAyw1RWQAo6VlNOlCvpc/wMo4ff7gd2//7x9xPUuJcOtzaCTqcvx0nclmNAZX0UjEeZ04b7irxp13vPlds6dDrMUjS994DZggqEMGLi33YLAWFh4OsDq8ba9LbCIJawrMTlcgBD7BGowt10STmR+f42R1C3+btF1OwMKY0OqFAlGs15S/vyh/V8mWQRFdXDxnaIx7RPeR6BcXX3ItCUEEQIIT7lF17UfFFTZ+Z0w3a0RO84DP9gIWMgaltHat/bCYOo8JH9R+WLSuZCtLy+IqBAsL3adrkLyGRCWcmCsALSRgvFPu2tBKVR+77R78INiYVlEFLLFI+N0U9+G30t3Z9dFvhzPEEhqSd2dfNf/AFbh8+v6sQZ1HQcBDCQB98SMAABRNekCYHMXYFfiGtQOZJKVVnorLEZQ5JE5l/VyLDs2eb/C/yi+VuS6qQkCeli6AlbV6TtK6dp/3nCyjT8a+AAAZCElEQVQ+lpUubhMlZ+HqWh5XDLDUnc3JCPNZXoEAjMAlgxYtrWCISODyuMTaY+96rfPHT5/4sfH7072DytpbXEOAwWbNPPp+KSBpZWFwqZFAK0G2IKytiq9//Po9dz5eu5LNFRly7W0VoBUFPPSsLC2QMgJcRxISs4RVZRnfbVDmwf2HmOVIYUJXIPfLQV+5foNgRXeYDN5cU6Fn0usCljNbhG3D9deaqVyCgSwsCHDezLf255nnn7nt5a8atSl9Y7GnAhLcewHcgati5rvXLlvPTEnQhIV2CVTMEFRnXAHgFJrCwskJcRpOekC2oBewWJ5MriWY6J3sEEZBA5bRvhcSYOHx5APWrGM2GkALrsGKXSa0+wAJGEbbKl93FQIWq0pg3Og6zlOaKTb2r9Cb65Xsed6Z/EkwffYmWmAOAvRBTwAX+I4l1KBEcb6Ah5hoIdf81KqeI7tvIdMYy+L6uYoizb2FnOZutN37NicffOvhHweL6+mahGxBewCyrFrkN8290AErsrQxNx0sLhyBwEomzqVYWfJ9ZIsr5URSattGHywR31Mgs5oBmI+LZOki5IBzkAFCYCBoJdAacQKsYGnB4sJZ9uXGL1eu/tSTZe2uKFuFqteBKQwd+bWuju46mOHxeGyp55LccUMnZyVs3cnEBAAWeQCCnnE7LjaE0OT6CabDMutIXk8RqDaYD7DEfljD5P2wAnU8H4AlB48hEDEeZfrOG9y29E1l3wz0PH4/f8Rszz8d/2TNQFrbTKGnKxATD3QBjeRtFAByCk/kB7AKcj+smftimjojsn832m9cV8iAJc8Vum2h4MGNXqHey/Xve+HDh5/LTwJGQQLW1BXTa0Zff655SAnnu0ZpB2Vj1K+zsOux2jOBNWwALCp9vu1FNqbMbpHqOdPVagOLGTt2r0xMWbMw0SXS2DFf4bGBkJUX+MPzQRcgl1tQycGz1SXU9LJ6mQGNZ3D93LXlypWp1Dfm68+r3FcK61UNHwd2JiclbknZ3fr9buPFjwiokDFynUF/nprCWzg8Yf3iX5LPZj/udGaXcrhcJdw54q/FE+1yukI9brfdLU68CkGqaKKObKEc4H+pzJL4wqOUXso9cv/3vsd3hill9EJx7+y0rJyOX3yxQ/xEXnDHwYdZjYEnwzFYiCfQDcWMQS68I1DBhMb/0CQxOUtFRUVGN3j3tdKVa1QNC4+IVGoy3Vj19tzaTAEOfwuKj+xKzI2hCGqdOZTkXL9gbtaqxWsASLA6mIpPqwp05CJhZtqx77SuaFXhlVYGV6yDBky2yH3qxYcPsMAXWdbTFbIynGVysrPDM9Myi2VnZkVnZ2VHO7JzopwOR0RWelqI2DQRbbUkHTjtnvTnKGYV4fm0bhLF/yzNhDGRA8iMY/nGAhXci1W+9rmcbGeZrMwsPLOYeF600+GMEDwZLipdCF5020Gz7MxM66Fte90LYhdx4TQrXVNpYeKJHBdg8glBDuNom7El9qV0d1r19PTMMqnn0opnpKYXT09JL5WRlllK9Lm4I9tRzOl0RoiNTUPFXLDnZGZ7NizcnC2yNemCpvuRcbugXILjFk2uGVLO8VxqanrZ9JSM6LRzqSXTxPMz0zNLZmdkl8jJySnmcrgiXC5XOJQa8XzL+VOpjlnjZjFoz4XDoDdOKi5a1dqNzEnyHcaXaxgZ+1VSqD9r8/GzJSqWuj0s3FUqJ8cR5cxxRrqc7jAhM0Ajm0eMVS6jKbJDTDyrx5btcO3afixn3pQFzNAD7wIkcHK85EXuTKTRcocpySEL9437NtOdUTU9NTMqKyM7UoxZ8Yy0rOLZmdnFcrJFuwTviDaFuF0eRelMTUqxrI3flbl6yVq5KjroBboRsDB+vu1FNpyb1TLDlX5riUhHCafTnnY2xRki7htid2VFnEnOibA5s6JOJ2dF25w5Yo7kRJ1Pc0Qd35dkGdhxJF2BeDZ4DnMXz+XWIVSmmCxF75A6ZqTlFeEYcU0jxgqJYyytVaHpT5/Vf+Tp62uFFreWEWMTmn4u2y54GHI9RCwrzB0XEfXJTnc6RbatKzQsJCsn25OedCzz2G9f9p0lvma7WIcUMlUdU7uInwrNwhIPlzOB4BbDiZRInLA64BOF4IYWDLNTmeDoqPdgfIhroeR1USSykQki3VL3X9yHzyPRGK/AhOU6GzAfhCatLzI9fu8Tyt4+YXA5wJiIcA8SsJRUUXGCCeBChGANL1OuTMhd/7kz5M6HHg2JLl/MGhEJ4yD3UACaYC0Y4UJPcgFdZE+4HdnpnqMJh3P2rN/k2LhmM+hFmnIxId5Tw6VWhesYp2GGG+NTXHtFQU3m4v42TPcm7fTGQ00bCCjFJy5O8sSN4n+coBUSVHAND1p8cmWJRPElAUsuL0OXAgP84C9mpMHSBe+BF7EIUuZD8CBO0gp9kSt9YMyZIkwBKAeQmZBD8CbtcU9WK2dcs7L4DCeVGfYXgoHP5XoupiNT+BKwWJeNblC9OAT6jxO0Bm05D9F//I82kD5sMzR38AL3w0I/QW+c7POlAhYVJ/A+GJ1WluyVoGcCn0EBxHxR5oo40Vbcg3xMHpbd+BwnObMV8xrXBAQscQ0r2EDZxIkxw0m6oV24Bu2nkGfSgxz7Bd3QBlpYBCy60sVXvhJWTEZRwFucShzc+4o24DNcA1pwPmMeYry4JROXXFBe0WWN50L5kuWWnj+ecgKAiJPr5yC3wEtoiy/c4X0PPsI4Ynw4NugjeFTOWpQrbshZi4ydY95RpoA2vqOwAIvxHE4ECgkKJwwCOg2/KCY0JhQFBRvns6y8jSdjql/zdOgS3hAYCVhyNQMwG2MJADBm2chBSzKsOlhJ3y9BC8CFvoPZSR8KS2b70FUHhpTpIPcdXdUy5fE5x5Vt4qv8G/YXzEvLimnbzDAiYOEVnzFgK5dhkpWHYACL6f/gCQhPgBUmAAELk5IHJzhjAhgPCHAoElzEy+QPAhb6jLEATTGJMMFp5eJZBCw8D+PBJAD8BnRHv2TNVRbeeD6TLZiiq1Rn9/6OygLGEWNLC4IAVVl8hhPv0SbwAZ6PtmoBFgQPLSz8z7HgBFcrDBQ2fD4BC/0kYJHefD7aQMDCHAA90WcIOxmw6MrJL2CJ2/mUJmrwEHCkkbIFifekO51eCbSR8oLJG+Q5ZrZCccDcBV/QdcvxYswkGMAi34BO4FWMmxKTFmcgwOI6LCobzC7lPEOb6cLG2JNXwa8ESSXbWJyUmXgm40pUtMF38t5scuyKLnx8H8y6J8oQKhaUUXANArQgx9g2KmIYO3yPa9EXjC/mEPpJJV9rXRjGBbKFrneGWtTyrdBcghQUas0WkwSDDuKD8OggNUA1YImv8ghkufGyEMd1BXFoARYYnyvEaWVhwrJUvqyloQ20JGRBARpwkCmkCVj4HJojtRfQAgMtu+6oRV1qH2WLiosLqZWC4alRcxsCuhbITNCQIKTAVHKA1Ii1SwGKfqGPcoyP4EFtDbTBhJUtLAghTDgKACgPEAJ4Jbiq15QQsPBMZjpRacBEw3PxSgWC13CCkkYUBui7rBmCHxjTxHdyWj1+SwuA/cU4K6nB4qTihv/xGQFLtrBoVarXv+E9+gzepKLhD7A4v+SYKhUEzEO0gd4AKkoQMAQs9JELxkFzChz0mQLQcKUC8Rse5Gv0GScAG+AAWoAmONE+nPifVhYtGmr+lAWylwC0AY3oPqayScBCu7UShcinBFI8i9Ue0AYqV+Ab0A2CW8vCAi+gDeBX0I7KFcdSjtkwaQvzHmMFmQAaELRlGiihBHEC4HEtY8eYH5y3VCjoriavsLIEQZJA6c9LJdODli14BW3AeKgVC7QPMh00oRFCxQ/Px4kxAF0I3mgv5xEzHOlWv8hdWZgWlqwtkOh0xVA7wST2B1ji64tiIv4IjOvzc8jCHNolBvX/2rcTHbeRGAig///Xi1rkYStMy5KvyULoAQLFE9tNFot3R4dlJGgmLGGFIJP0OhmEt1SOAWNk3ZaEFf3zOx1AnDbVSchhxt87p05ej2w3k3teCyr2birSOBeiaNtDKlW82Tcn87n+T8JnNpkJ69+LEL/+GAWqIuMIweO/eeh/8kWuED22UECQU8LQYYUHbkHqngTt8DHnCtixhzGLzxiV5nvt9AQcY7reiSR5BBtONhNW7J+EmUAnSQvM9F0lLB0OnfO6r9Dr6trmHWh0JOFZ9Kc7vCOD/USPBJOwesSkS8n5Lpkk8MdfXklYfAXeuixXqAVECUuXZWRmkhE75ye8Nsq0x5KojOLgFrn5wRylKjpdoMp5xnPspjMWnI0EI0fwMAILPyT7yCKZuFYeGWK34D5338ahnuGokZvYQOcUc270GtnmLNMgBVVkc6nhj+4FkOPZhUUwkcSjO/52B2jVYWKQrwvGwaRv2kY2+9DwKUmsR6VLOT+ZsCJYzz0F626pA77qRPuoWuAsZFoFwbPAeID56a87YYX0+SN4G0MhQF4DdnZYMIgOSCVgCAoSV/R3MUOFq1pLEg8uRoTGH41R225i1qPD3gFqz6Of6tyFgjgRne2wQvT8yb8ZebXOq4XtCuzmBcekP7J3EEiQ6ISVs5NUkzxdAEF2u0b6CJ6RQ7JXFOVMjiZZqd47EOZznbD8XzzdhcATnIzGjIdhL2H1jiZB2F7C/iyBKNwIT8IZ9lKRxpHDOckyf8+5kSk6JwjNLreTgcoY3kmYgqDucu5EYmOdpU5b0DeCtQ9x/lUuND96dKnDMBrUkUZGY9voYO+rM/N9faOzCwx+myfc7HEUNx1X+FjkMc5NELZb05VHpsioyIwc0Sd4xC6xT/gqfsR+AnNsa0qRs8O36Re6cfrTPfjgtfWFhBVbKSh6FBj/lazofLS7avvQybTCNffIkORpn8V3FYSxUd4TDMUmuIgpuk/78fBqJqz44G+J9VsJK4CGUIKAha8dQl5rfTkUokzAvpWk+hygxIgS1tG19gDbFZIFITk7WHSnhfzGHkaFwSEJK6+D1ypp9W5rlbRmwhI8BD/ObGyiCozT6K5CFo5u5ElP+6EeJ5ifT3utXs9CxugjurdjhhdGpHmPH2NIu4mQPI7Zl0A4bycs1bLkD/M4VgdCu4jgvxoJwkMQyDM8kMw7AEZmVbPKObrE7rocOusyc27ek4CgG3YBRsKwT8zrnBt7mQYcJSznhz90tzCXBIy1wjvVtN2dIkGhEMzdEu0R0xxJXuGE9+CzNUJwUMDNEbqLF8HLzsf3dIGByxKEpwsXScbxhT8C4i8MIpPxdfy2k32Cc++gFaT8fiaR8EQSYUt8NpYL56J3kp8iVlcXDGIjY+O8r89KcpSwYhsczd/jL+FRzpvToKtxVWyxstFgxAYmRHyJrBJWZMUpBZ1Rd+QzHrQjl7Ak1x9JWJ2NVR8cEwHz2hgM8QS1FdmvgvuMo8z3CsDabIFckLTLQYIQ4Wg5SJfGgqFDcImcY+q+7LLgdqXTih6dsDr5mh+vOistevQw7kOYTlQhOwJp01VnV+3CwYxxggWdVWU4EkwEATayn0risJ8wCozMfQmkSc4O9oI6iTia8/JUKQf3mbBcF845grUOVOeZ9/SIlE3mpYIEnZxF5yTs/Mm5wcTNKiMUuxAjLiOtyBJ+zm63OS0RJPCadgRb59s3WJIba1mU98WLJEjBVoWMFz0GvcqHlrMLPLLyA8FbZ9xFHZvifvDvRBvbsFdzpfduq4Q1pwHxQbt48UsCC4ftnemh4LVXiu3sWVfTgGDhklp43ztvO6vYSFETvf1IjtFVsUlnBbfJQ/vus3aim0RuXNqFBT8KNiYkOJ3Pi5UuVkRea5fV2mFZUHyjw1LVqhra4AiIeHESrT1QpkzPgtvOcPXvPUIDrMrEOMilgwSL3pesSJ9zZ6elgjRq0HFxTkbOazdyJCw7LZcxjkaDOVfind0VR+pRYPRQyXuqnDsgIU/r+oxdJuFdhLDbCy8EBQvb6ZiRWxBgkzzJPXcSka8TpXFGOKejFRzyOlgHd6M8yT5BwRmCtcQ+O89O5PNSgUIlQY6+ObcDUScs4z4VaZ99dPGl+d6Bt68l011nH3kUU/DqbkXh1ufnd3Z2h1eQrzrfLzsFLxcpjHAVNWRWuRuf5v0tc+QOz+ETmXXHuBLOP7p4ADdTIsleRwE3e0e+SY4eTQYn3U/O7w5Cog9MRoI68Z7CGIG6eRed+bl9sqJTZ6mgsWOk7ytjW2acuBh182H+m2f7sM7M5EP8wetpH/vFH9thUWxePFDdtgGMQZp4K54/Exyf8JPf3ippuXkDWA7reUSClYwdqAVCCVqQECh1VZ2susPyOQQQECX4PGd3perUNdpdGQnqXPopUOY9nE+ierazehRAdVF4EZJ38I6+fiRbCdZ+R+DM79ltOmUXUMbPwVqXq2CYo+lgSX/Xx3Weipn8vrucnrfPZGlH0We7DKJbiE1np68iFZQkydnVTf51wRT/kgS6QDJ+1tl08NeV68Rn123E9MqFi+mj7SedKOCDGwJhsJTcerog0dqXhB/2n7jSFw9WAbxlMRHgk2IXDIOpXXUnrGDHx9iNLMbHLlxIWCZN0XkWseJAX+WPvfl1T0v4RndWvbZ4NZbC2QQievd4kD/l2RfH3Dw947UdOV9eyvzpDivgz2paZduBuQMxAHz2UcJ5FeyrScz+oHdZMXxIpquaQeqsaplJqytJgUqwnE8kvnr5ojvF7rDmDktlZgditCAx6FaMuVrHV23QATQ2p5vE5QmTvMcP+SVctlAtrzpAn+0CqkeSzhPIFQS6V1wQuAVBZ/cSexW0Vw7uYgFfYO++VNOFk8An+ORsNlOBHl1PnryDdxdKHQi7aGzu4EbrHXlmgfAqL6adIrdkBJ/Gq/khGOY7BERJqy8Wkd0ehb2OLh50N6H76cnIHNXjaj7HZ+a+uPGDnSmAmGBvprhxzuQmfU2D2EhhpfvtqcNZnDqLkfisUOZLka19WCcoZnn/Ga/JHF1Wcedf+b6RsDppSUYdeBEOKfuyxZk87zrFmVHy7xbIuhNBHNk7mHOSs+/tLoi+Oi44NAFghKjzint3V43ZTFjGWpy4E5fOwBP5kWWO/97FXgAVDOitum9d5wUcAaZl7uAzx1KrbgPe5vB9XuPbDoYLbK6i7c6zL3kcdTndXbPzqgiZ3ULOX509d6dH3T1fbK6d6S0YdsKGu65KgTAve5z5wdm/zyTLLu0PqxuzLfPqohGuXE2yk6vkmFyNLJOrM3H2/niVQGYhxz6rOOm9qwS98ueZmD/hw5NTik/YTF4fydyxqO0zd22/yXyWIM4IdvTvk3j+r4UgJZGpkFqpszPfBf3K9zfpBAdk7+DYI6Cz7+2k1VW/YAITDtlYTSed40Bnw4b83TG2/JKxJydvgn+iq5qYdCBoDjQ/OqHThyxTbvKe7daOutzGfO4F2bYLmD6/sXrEg7a1cW4Xa343Hbs5OM/tju6RPzTnnAPrxn8VdJ0/O/Ujjpzx/8q/zyq+ZeQDjVfk7h92ICPON887yZ5hN5NJ++YczQvkvr99asox+TI5cuQP5Gm/WJ2zilGfipvtw7P4bHzan9pG7csrf37I7W8mrO60BNgORlPxK4T+iffMoN8EFLyacK8QYZW8ZhKDVTvGUWc1nXZWnJ246NDPTnDdpX0D7xmUJjeaF22LyDJt0UmFziuZJ96w7kTmd6sAOJPX1XPbB7oynXZsnbv4aLtM7l0tls64tjq7+dOJawb7V7h/hVOroNg8aZ3m97Vt5t+NAJ/F7ix+kSFytf+seNMytOwrLq540jzvs45845FfXLHFM/50FN+nzF6vZH7YtX8rYXHOdthJwulIr4L3yc+1A66IN4P5Ow67CqKPHLUD6pnDrkjd5HiUoGaS+CS+7dhXuNHBewbRZ20xMVvxsf3hCheuBoNHtp6+srLddPCr517B++z8I9yfleEZHl2xVcvd373ixbNcmYmkuSqJrHB7hq9HieBRnJyfmYXzjFk/YaOccVSATRtd8amH8eebCeuR0acjPUPmn3rvBLcd99MyrBx0FdCPnPRRoF0FwEmKqxXnp/VuHc84MYuDd2ReJfwjX1gVJa+efVRozLOPzvxEAHpU7JzJ8RPFzKNAvoopR5w88t93OCyZnHF1Jq7pg49keOeMb8aoV2Re+dTKLpfx+amEdRRo3yHP3/jsOx3VmbxHtpgEPnLo/v2jgLcKet/U60zvV7nxCZlf5f87Z/+NM69w5oqdPpEwr57zf5X5Vfs9g91PnPGOHT5pm7O49dtZ7wDzaYX3960R+IaN3gm4204bgY3ARuCvIPCNYPhXFNmHbgQ2AhuBjcC9EdgJ69723dptBDYCG4HbILAT1m1MuRXZCGwENgL3RmAnrHvbd2u3EdgIbARug8BOWLcx5VZkI7AR2AjcG4GdsO5t363dRmAjsBG4DQI7Yd3GlFuRjcBGYCNwbwR2wrq3fbd2G4GNwEbgNgjshHUbU25FNgIbgY3AvRHYCeve9t3abQQ2AhuB2yCwE9ZtTLkV2QhsBDYC90ZgJ6x723drtxHYCGwEboPAP41TFWSz7DmGAAAAAElFTkSuQmCC;" parent="1" vertex="1">
          <mxGeometry x="120.39000000000001" y="194" width="63.88" height="20" as="geometry" />
        </mxCell>
      </root>
    </mxGraphModel>
  </diagram>
</mxfile>
